<?xml version="1.0" encoding="iso-8859-1"?>
<!-- Generator: Adobe Illustrator 18.0.0, SVG Export Plug-In . SVG Version: 6.00 Build 0)  -->
<!DOCTYPE svg PUBLIC "-//W3C//DTD SVG 1.1//EN" "http://www.w3.org/Graphics/SVG/1.1/DTD/svg11.dtd">
<svg xmlns="http://www.w3.org/2000/svg" xmlns:xlink="http://www.w3.org/1999/xlink" version="1.1" id="Capa_1" x="0px" y="0px" viewBox="0 0 494.263 494.263" style="enable-background:new 0 0 494.263 494.263;" xml:space="preserve" width="512px" height="512px">
<g>
	<path d="M98.22,323.252c-18.251,0-33.098,14.848-33.098,33.098s14.848,33.098,33.098,33.098s33.098-14.848,33.098-33.098   S116.471,323.252,98.22,323.252z M98.22,368.448c-6.671,0-12.098-5.427-12.098-12.098s5.427-12.098,12.098-12.098   c6.671,0,12.098,5.427,12.098,12.098S104.891,368.448,98.22,368.448z" fill="#FFFFFF"/>
	<path d="M351.598,323.252c-18.251,0-33.1,14.848-33.1,33.098s14.849,33.098,33.1,33.098c18.25,0,33.098-14.848,33.098-33.098   c0-8.841-3.443-17.152-9.694-23.404C368.749,326.695,360.438,323.252,351.598,323.252z M351.598,368.448   c-6.672,0-12.1-5.427-12.1-12.098s5.428-12.098,12.1-12.098c3.232,0,6.27,1.258,8.554,3.543c2.285,2.285,3.544,5.323,3.544,8.555   C363.695,363.021,358.269,368.448,351.598,368.448z" fill="#FFFFFF"/>
	<path d="M491.188,242.78l-73.958-73.956c-1.97-1.969-4.64-3.075-7.425-3.075h-40.6V92.716c0-17.118-13.927-31.044-31.045-31.044   H31.044C13.926,61.672,0,75.598,0,92.716v242.405c0,14.146,9.515,26.104,22.477,29.832c4.29,38.001,36.613,67.637,75.743,67.637   c38.712,0,70.754-29.008,75.588-66.425h102.201c4.834,37.417,36.877,66.425,75.589,66.425c38.712,0,70.753-29.008,75.587-66.425   h36.034c17.118,0,31.044-13.926,31.044-31.044v-84.917C494.263,247.42,493.156,244.749,491.188,242.78z M405.455,186.748   l52.96,52.958h-89.21v-52.958H405.455z M21,92.716c0-5.538,4.506-10.044,10.044-10.044H338.16c5.539,0,10.045,4.506,10.045,10.044   v187.479c-36.711,1.617-66.756,29.309-72.022,64.97h-102.55c-5.428-36.755-37.174-65.056-75.414-65.056   c-37.007,0-67.928,26.508-74.803,61.53c-1.503-1.756-2.417-4.031-2.417-6.518V92.716z M98.22,411.591   c-30.46,0-55.241-24.781-55.241-55.241s24.781-55.241,55.241-55.241s55.241,24.781,55.241,55.241S128.68,411.591,98.22,411.591z    M351.598,411.591c-30.461,0-55.242-24.781-55.242-55.241s24.781-55.241,55.242-55.241c30.46,0,55.24,24.781,55.24,55.241   S382.058,411.591,351.598,411.591z M463.219,345.165H427.01c-4.567-30.929-27.775-55.852-57.805-62.981v-21.478h104.058v74.415   C473.263,340.659,468.757,345.165,463.219,345.165z" fill="#FFFFFF"/>
	<path d="M164.773,228.343c2.05,2.05,4.737,3.075,7.424,3.075c2.687,0,5.375-1.025,7.425-3.075l50.6-50.6   c4.1-4.101,4.1-10.749,0-14.85c-4.101-4.101-10.749-4.1-14.85,0l-43.175,43.176l-18.366-18.365c-4.1-4.101-10.749-4.1-14.849,0.001   c-4.1,4.1-4.1,10.749,0,14.849L164.773,228.343z" fill="#FFFFFF"/>
	<path d="M184.602,284.114c48.797,0,88.496-39.699,88.496-88.496c0-48.797-39.699-88.496-88.496-88.496   c-48.797,0-88.496,39.699-88.496,88.496C96.106,244.415,135.806,284.114,184.602,284.114z M184.602,128.122   c37.217,0,67.496,30.279,67.496,67.496s-30.279,67.496-67.496,67.496s-67.496-30.279-67.496-67.496   S147.385,128.122,184.602,128.122z" fill="#FFFFFF"/>
</g>
<g>
</g>
<g>
</g>
<g>
</g>
<g>
</g>
<g>
</g>
<g>
</g>
<g>
</g>
<g>
</g>
<g>
</g>
<g>
</g>
<g>
</g>
<g>
</g>
<g>
</g>
<g>
</g>
<g>
</g>
</svg>
