<?xml version="1.0" encoding="utf-8"?>
<!-- Generator: Adobe Illustrator 22.0.1, SVG Export Plug-In . SVG Version: 6.00 Build 0)  -->
<svg version="1.1" xmlns="http://www.w3.org/2000/svg" xmlns:xlink="http://www.w3.org/1999/xlink" x="0px" y="0px" width="2000px"
	 height="1642.2px" viewBox="0 0 2000 1642.2" style="enable-background:new 0 0 2000 1642.2;" xml:space="preserve">
<style type="text/css">
	.st0{display:none;}
	.st1{display:inline;fill:#FFFFFF;}
	.st2{fill:#CE9663;}
	.st3{fill:#E02F5E;}
	.st4{fill:#3D2107;}
	.st5{fill:#E8A869;}
	.st6{fill:#EDC89A;}
	.st7{fill:#EDDBCE;}
</style>
<g id="Слой_3" class="st0">
	<rect y="0.2" class="st1" width="2000" height="1642"/>
</g>
<g id="Слой_2">
	<g id="Слой_1" class="st0">
	</g>
	<g>
		<g>
			<path class="st2" d="M78.4,1488.8c0-15.6,2.9-38.4,8.8-68.5c2-11.2,5.4-21.3,10.2-30.3c5.1-9.9,9-16.5,11.6-19.8
				c4.9-6.8,11.5-11,19.8-12.7c3.9-0.7,6.7-0.5,8.5,0.6c0.2,0,0.4,0.1,0.7,0.4s0.6,0.6,0.8,1c0.3,0.4,0.5,0.6,0.7,0.8
				c-0.2,0.2-0.4,0.5-0.7,0.8c-0.3,0.4-0.6,0.7-0.8,1c-0.3,0.3-0.5,0.4-0.7,0.4c-0.7,0.2-1.9,0.4-3.6,0.7c-1.7,0.3-2.8,0.5-3.6,0.7
				c-5.3,1.3-10.3,5.2-14.9,11.8c-1.5,2.2-2.8,4.6-4.1,7.3c-1.3,2.7-2.7,5.8-4.1,9.5c-1.5,3.7-2.6,6.3-3.3,8
				c-2.8,5.7-4.5,11.4-5.2,17c-1.6,10.8-3.7,25.5-6,44c0,0.4-0.6,5.2-1.7,14.6c-0.5,5.3-0.1,13.3,1.4,23.9c0.9,6.4,4.6,13.3,11,20.6
				c3.5,3.5,8.1,5,13.8,4.4c5-0.9,9-2.3,12.1-4.1c4-2.6,7.2-5.2,9.6-8c11.4-14.8,20.3-28.8,26.7-41.8l1.6-3.3
				c1.3-2.9,3.2-3.8,5.8-2.8c0.2,0,0.6,0.2,1.4,0.5c2.6,1.1,4.1,2.2,4.7,3.3c0.6,1.1,0.6,3.3,0.3,6.6c-1.7,11.5-4.7,20.9-9.1,28
				c-7.9,13.6-13.3,22.6-16.2,27.2c-7.9,12.1-17.8,21.1-29.7,27c-9.5,4.8-18.7,3.5-27.5-3.8c-5.1-4-9.2-9.6-12.1-16.8
				c-0.2-0.7-0.6-1.5-1.4-2.2c-1.5-1.6-2.4-4.2-2.8-7.7c-0.4-3.3-0.7-5.8-1.1-7.4v-0.3C78.7,1511.9,78.4,1501.6,78.4,1488.8z"/>
			<path class="st2" d="M220.3,1376.3l-2.5,65.5c-1.1,30.4-2,53.3-2.8,68.5c-0.4,7.7-0.7,15.2-1.1,22.6
				c-3.9,15.6-10.1,24.4-18.8,26.5c-8.7,2.1-15.8,1.3-21.3-2.3c-1.1-2-0.1-3.4,2.9-4.1c3-0.7,4.9-1.2,5.6-1.4
				c8.6-2.6,13.1-11.5,13.5-26.7c0.4-3.5,0.7-8.3,1.1-14.6c0.4-7.7,0.9-19.4,1.6-35.2v-5.2c0.5-14.3,1.2-31.8,1.9-52.5
				c0.4-8.1,0.6-13.1,0.8-15.1v-25c1.5-8.6,4.1-14,7.8-16.2c3.8-2.2,7.1-3.6,10.2-4.1c3-0.6,5.1-0.8,6.2-0.8
				c31.9,0,49.1-0.1,51.7-0.3h1.4c6.6,1.1,9.4,5,8.3,11.8c-1.8,12.8-3.3,32.2-4.4,58c-0.5,8.8-1,28.5-1.4,59.1
				c0,8.3-0.4,20.6-1.1,37.1v23.1c0,1.3,0,3.2,0.1,5.8c0.1,2.6,0.1,4.5,0.1,5.8c0,4.4-1.7,7.1-5.2,8c-8.3,2.6-16.6,0.9-25-5
				c-1.8-1.1-2.8-3.2-2.8-6.3v-9.6h0.3c0.7-28.6,1.3-50,1.6-64.1c0.5-34.5,0.8-51.9,0.8-52.3c0.2-5.1,0.9-19.8,2.2-44
				c0.2-1.1,0.3-2.8,0.3-5.1c0-2.3,0.1-4,0.3-5.1c0.2-2-0.5-3.3-1.9-3.8l-19.5-0.8C223.9,1368.7,220.3,1371.3,220.3,1376.3z"/>
			<path class="st2" d="M299.5,1555.6c0.4-2.9,0.9-5.6,1.6-8c1.5-4.6,3.2-11.2,5.2-19.9c2-8.7,3.5-14.8,4.4-18.3
				c1.1-4.4,2.5-10.7,4.1-18.8c1.7-8.2,2.7-13.2,3-15.3c4.8-21.6,7.8-34.8,9.1-39.6c0.7-2.6,1.5-5.3,2.3-8.1c0.8-2.8,1.7-6,2.8-9.5
				c1-3.5,1.8-6.1,2.3-8l7.4-30.5c0.2-1.1,0.1-2.8-0.3-5.2c-0.9-4.2,0.4-7.2,3.9-8.8c1.1-0.5,2.8-1.3,5.1-2.2
				c2.3-0.9,3.9-1.7,4.8-2.2c1.1-0.7,5.3-1.3,12.6-1.6c3.3-0.6,5.7,1,7.1,4.7c0.6,1.3,1,3,1.4,5.2c2.8,25.3,4.6,42.9,5.5,52.8
				c0.9,8.4,2.1,19.9,3.6,34.4c0.2,0.9,0.3,1.9,0.4,2.9c0.1,1,0.2,2.1,0.3,3.3c0.1,1.2,0.1,2.2,0.1,2.9c1.5,13.6,2.6,23.7,3.3,30.3
				c0.7,8.6,1.8,21.4,3.3,38.2c0.2,1.5,0.3,3.8,0.3,7c0,3.2,0,5.6,0,7.3c0,1.5-0.8,2.8-2.5,4.1c-7.7,4.4-13.8,7-18.4,7.7
				c-0.7,0-1.4,0.3-1.9,0.8c-1.8,1.1-3.7,1.1-5.5,0c-2.2-1.3-3.3-3.2-3.3-5.8c0.2-12.8-1.1-30-3.8-51.4c-0.4-2.2-0.8-5.4-1.2-9.6
				c-0.5-4.2-0.8-7.4-1-9.6c-0.4-2.2-0.8-3.6-1.4-4.3c-0.5-0.6-1.8-0.9-3.9-0.7c-2.4,0-9.5,0.5-21.4,1.4c-2.9,0.2-4.7,1.8-5.2,5
				c-0.7,4-3.1,14.8-7.1,32.4c-0.7,2.6-1.8,6.4-3.2,11.6c-1.4,5.1-2.3,9-2.9,11.5c-2.6,10.3-4.1,15.8-4.7,16.5
				c-1.8,1.6-3,2.2-3.6,1.6c-0.2-0.4-0.4-0.5-0.5-0.5c-0.2,0.2-0.3,0.4-0.3,0.5v0.3l-1.7,0.8
				C299.4,1558.3,299.3,1556.5,299.5,1555.6z M328.1,1472.3c1.8-0.2,4.4-0.5,7.7-0.8c1.6-0.2,4.1-0.3,7.3-0.4
				c3.2-0.1,5.6-0.1,7.3-0.1c1.8,0,2.9-0.2,3.3-0.7c0.4-0.5,0.4-1.6,0-3.4c-0.4-2.6-0.8-6.4-1.4-11.4c-0.6-5-0.9-8.8-1.1-11.4
				c-0.4-4-1-10.1-1.8-18.3c-0.8-8.2-1.5-14.3-2.1-18.3c0-0.5-0.1-1.3-0.4-2.3c-0.3-1-0.4-1.7-0.4-2.1
				C337,1428.8,330.8,1451.9,328.1,1472.3z"/>
			<path class="st2" d="M421.3,1534.4c0.7-3.5,1.2-7.6,1.4-12.4c0.4-3.5,0.7-11.1,1.1-22.8c0.4-7.7,0.9-19.4,1.6-35.2v-5.2
				c0.6-7,1.2-20.8,1.9-41.5c0.4-8.1,0.6-13.1,0.8-15.1v-25c1.3-8.6,3.6-14,7-16.1c3.4-2.1,6.8-3.5,10.3-4.1c3.5-0.6,5.8-1,6.9-1
				c31.9,0,49.1-0.1,51.7-0.3h1.4c6.6,1.1,9.3,5,8.3,11.8c-1.8,12.8-3.3,32.2-4.4,58c-0.5,8.8-1,24.8-1.4,48.1
				c0,8.3-0.4,23.4-1.1,45.4v14c1.8,0.2,3.6,0.5,5.2,1.1c6.1,1.8,9.1,4.6,9.1,8.3c0,0.7,0.2,3.5,0.5,8.3c-0.2,0.9-0.2,3,0,6.2
				c0.2,3.2,0.1,5.6-0.3,7.3l-0.8,15.7c0.2,0.4,0.3,0.9,0.3,1.7c0,0.7,0,1.3,0,1.6c-0.6,2-2,2.8-4.4,2.5c-3.7,0.2-6-0.2-6.9-1.2
				c-0.9-1-1.4-3.3-1.4-6.7l0.5-19.8c0-0.5-0.3-1.6-0.8-3.3c-0.9,0-28.5,0.5-82.8,1.4c-2.2,0-3.6,0.2-4.1,0.7
				c-0.5,0.5-1.4,7.9-2.5,22.4c0,3.1-0.3,4.9-0.8,5.4c-0.6,0.5-2.4,0.6-5.5,0.4c-2.8,0-4.4-0.3-5-0.8c-0.5-0.5-1.1-2.2-1.6-5
				l-0.3-2.5c1.1-7,1.7-13.4,1.8-19.4c0.1-6,0.1-9.9,0.1-11.7c0.2-2.8,1.5-5.7,3.9-8.8c1.5-1.7,3-2.4,4.7-2.2H421.3z M475.5,1494.3
				l0.5-25.9c0.6-27.1,0.8-40.9,0.8-41.3c0.2-5.1,0.9-19.8,2.2-44c0.2-1.1,0.3-2.8,0.3-5.1c0-2.3,0.1-4,0.3-5.1
				c0.2-2-0.5-3.3-1.9-3.8l-19.5-0.8c-7.3,0.4-11,3-11,8l-2.5,65.5c-1.1,23.1-2,42.3-2.8,57.5c-0.4,13.2-0.7,23.5-1.1,30.8
				c-0.4,1.5-0.7,2.8-1.1,4.1c2.9,0,5.5-0.1,7.7-0.3h22.8C473.4,1533.7,475.1,1520.5,475.5,1494.3z"/>
			<path class="st2" d="M538.4,1498.1c-1.8-15.8-2.8-25-3-27.8c-1.5-24,1.3-45.2,8.3-63.5c4.4-11.7,8.9-20.4,13.5-26.1
				c0.9-0.9,2.2-2.3,4-4.3c1.7-1.9,3.1-3.4,4-4.5c2.6-2.6,4-4.6,4.4-6.1c0.4-1.3,1.1-2.1,2.2-2.5c1.1-0.2,2.8-0.5,4.9-1
				c2.2-0.5,3.9-0.9,5-1.2c1.3-0.5,3.4-0.7,6.5-0.4c3,0.3,5.1,0.5,6.3,0.7c1.2,0.2,3.3,0.6,6.3,1.4c3,0.7,5.2,1.2,6.5,1.4
				c8.6,1.8,14.9,6.8,19,14.8c9.2,19.4,15.2,35.6,18.1,48.4c4.4,20.9,5.2,40,2.5,57.2c-1.8,13.2-3,21.2-3.6,23.9
				c-0.6,3.7-1.9,8.5-4.1,14.6c-2.9,8.4-5.2,14.7-6.9,18.7c-2.8,6.2-7.4,11.4-14,15.4c-1.6,0.9-4,2.2-7.1,3.8
				c-3.1,1.7-5.4,2.9-6.9,3.9c-1.8,0.9-3,1.3-3.6,1.1c-0.6,0-3.2,0.1-7.8,0.3c-4.7,0.2-7.3-0.1-7.8-0.8c-3.7-1.3-7.5-1.9-11.5-1.9
				c-8.8-0.4-15.3-5-19.5-13.8c-1.3-2.8-4.3-9.7-9.1-20.9C542.2,1520.1,540.1,1509.9,538.4,1498.1z M607.1,1404.1
				c-1.6-3.5-3.4-7.3-5.5-11.5c-2.1-4.2-3.7-7.5-4.8-9.9c-0.6-1.8-1.8-3.1-3.9-3.8c-3.7-1.7-7.2-2.8-10.7-3.3c-2-0.4-4,0.1-6,1.4
				c-6.1,3.7-11,9.4-14.9,17.1c-6.8,13.8-11,27.4-12.6,41c-1.6,13.8-2.2,24.8-1.6,33.3c1.3,14.1,3.4,28.9,6.3,44.3
				c1.3,7.2,4.7,17.3,10.2,30.5c2.2,4.6,5,6.8,8.5,6.6h8.5c2,0,3.4-0.2,4.1-0.5c10.5-4.2,17.7-11.2,21.7-20.9
				c2-4.9,4.6-13.4,7.7-25.3c0.2-0.5,1.3-7.3,3.3-20.3c1.6-10.5,1.7-22.5,0.3-36.3c-1.3-12.5-3.7-23.1-7.1-31.9
				C609.8,1410.9,608.6,1407.6,607.1,1404.1z"/>
			<path class="st2" d="M661.4,1488.8c0-15.6,2.9-38.4,8.8-68.5c2-11.2,5.4-21.3,10.2-30.3c5.1-9.9,9-16.5,11.6-19.8
				c4.9-6.8,11.5-11,19.8-12.7c3.9-0.7,6.7-0.5,8.5,0.6c0.2,0,0.4,0.1,0.7,0.4s0.6,0.6,0.8,1c0.3,0.4,0.5,0.6,0.7,0.8
				c-0.2,0.2-0.4,0.5-0.7,0.8c-0.3,0.4-0.6,0.7-0.8,1c-0.3,0.3-0.5,0.4-0.7,0.4c-0.7,0.2-1.9,0.4-3.6,0.7c-1.7,0.3-2.8,0.5-3.6,0.7
				c-5.3,1.3-10.3,5.2-14.9,11.8c-1.5,2.2-2.8,4.6-4.1,7.3c-1.3,2.7-2.7,5.8-4.1,9.5c-1.5,3.7-2.6,6.3-3.3,8
				c-2.8,5.7-4.5,11.4-5.2,17c-1.6,10.8-3.7,25.5-6,44c0,0.4-0.6,5.2-1.7,14.6c-0.5,5.3-0.1,13.3,1.4,23.9c0.9,6.4,4.6,13.3,11,20.6
				c3.5,3.5,8.1,5,13.8,4.4c5-0.9,9-2.3,12.1-4.1c4-2.6,7.2-5.2,9.6-8c11.4-14.8,20.3-28.8,26.7-41.8l1.6-3.3
				c1.3-2.9,3.2-3.8,5.8-2.8c0.2,0,0.6,0.2,1.4,0.5c2.6,1.1,4.1,2.2,4.7,3.3c0.6,1.1,0.6,3.3,0.3,6.6c-1.7,11.5-4.7,20.9-9.1,28
				c-7.9,13.6-13.3,22.6-16.2,27.2c-7.9,12.1-17.8,21.1-29.7,27c-9.5,4.8-18.7,3.5-27.5-3.8c-5.1-4-9.2-9.6-12.1-16.8
				c-0.2-0.7-0.6-1.5-1.4-2.2c-1.5-1.6-2.4-4.2-2.8-7.7c-0.4-3.3-0.7-5.8-1.1-7.4v-0.3C661.6,1511.9,661.4,1501.6,661.4,1488.8z"/>
			<path class="st2" d="M811,1396.4c0.2-4.2,0.3-7.4,0.3-9.6v-3.8c-0.2-2.4-0.6-3.9-1.2-4.7c-0.6-0.7-1.9-1.1-3.7-1.1h-17.9
				c-2.4,0-4.2-0.1-5.5-0.3c-1.3-0.2-2.3-1.1-3.2-2.6c-0.8-1.6-1.1-3.1-1-4.5c0.4-2.9,1.9-4.4,4.7-4.4c2,0,4.9,0.1,8.7,0.3
				c3.8,0.2,7.2,0.3,10.3,0.4c3.1,0.1,6.1,0.1,8.8,0.1c9,0,15.1-0.5,18.4-1.4c7.1-1.8,17.9-2.8,32.2-2.8c3.3,0,8-0.2,14-0.5
				c6-0.4,10.1-0.5,12.1-0.5c3.7,0,6.1,2.1,7.2,6.3c0.5,2.2,0,3.6-1.7,4.1c-0.2,0-0.6,0.1-1.4,0.3c-0.7,0.2-1.2,0.3-1.4,0.3
				c-8.4,0.2-20.9,0.5-37.4,0.8h-2.2c-2.8,0.2-4.4,0.7-5.1,1.7c-0.6,0.9-0.8,3.2-0.4,6.9c0,2.4-0.1,4.1-0.3,5.2
				c-0.4,7.3-0.7,12.8-1.1,16.5c-0.2,3.9-0.6,9.2-1.4,16c-0.2,2-0.5,4.9-0.8,8.5c-0.4,3.7-0.7,7-1,9.9c-0.3,2.9-0.5,5.8-0.7,8.5
				c-1.5,21.1-2.5,36.4-3,45.9c-0.9,12.5-1.8,23.7-2.8,33.5c-0.7,9.7-1.2,16.4-1.4,20.1c0,0.9-0.1,2.4-0.3,4.4
				c-0.2,2-0.3,3.6-0.3,4.7c-0.2,2.6-1.3,4.3-3.3,5.2c-2.2,0.9-5.3,1.7-9.2,2.2c-3.9,0.5-6.6,1-8.1,1.4c-1.1,0.4-3.3,0.1-6.6-0.8
				c-3.5-1.1-5-4.1-4.7-9.1c0.4-4.2,1.2-12.5,2.5-24.9c1.3-12.4,2.2-22.8,2.8-31.2c0.9-11.4,1.9-28.8,3-52.3
				c0.2-3.7,0.5-9.2,0.8-16.6c0.4-7.4,0.6-13,0.8-16.6v-5.8h-0.3C810.6,1403.8,810.8,1400.6,811,1396.4z"/>
			<path class="st2" d="M947.9,1513h0.8c0.5-0.5,1.1-1.2,1.6-1.9c0.4-1.6,2.2-7.1,5.4-16.5c3.2-9.3,5.5-16.5,7-21.5
				c2-5.9,4.9-14.8,8.5-26.7c3.7-11.9,6.4-20.9,8.3-27c0.4-1.5,1.1-3.5,2.2-6c1.1-2.6,1.7-4.1,1.9-4.7c1.3-4.8,3.4-11.7,6.3-20.8
				c2.9-9.1,5.1-15.9,6.6-20.5c1.1-2.9,2.6-5.1,4.4-6.6c1.6-1.3,4.5-2.6,8.5-3.9c6.8-2,13.3-2,19.5,0c2.4,0.5,3.9,1.5,4.7,2.8
				c0.7,1.3,0.9,3.4,0.5,6.3c-1.3,12.7-2.1,22.1-2.5,28.3c-0.7,10.6-1.2,21.4-1.4,32.2c-0.2,20.5-0.4,32.8-0.6,36.8
				c0,6.1-0.4,14.6-1.1,25.6c-0.7,11-1.2,18.2-1.4,21.7c-0.4,8.4-0.8,21.1-1.4,37.9c0,3.7-0.6,6.2-1.9,7.7c-1.3,1.5-3.6,2.3-6.9,2.5
				c-0.9,0.2-1.9,0.2-3,0l-7.2-0.3c-0.7-0.2-1.9-0.4-3.6-0.5c-0.6,0-1.2-0.1-2.1-0.4c-0.8-0.3-1.6-0.5-2.3-0.5
				c-0.7-0.1-1.5-0.1-2.2-0.1c-1.8-0.4-3-1.5-3.6-3.3c-0.2-1.8-0.3-3.3-0.3-4.4c0.7-11.2,1.8-27.7,3.3-49.5
				c1.1-15.8,1.8-27.6,2.2-35.5c0.2-4.8,0.3-9.8,0.4-15c0.1-5.2,0.1-11,0.1-17.5c0-6.4,0-11.5,0-15.1c0-2,0-4.9,0-8.7
				c0-3.8,0-6.6,0-8.4c-1.5,3.3-3.3,8.4-5.5,15.4c-3.3,9.9-8,24.8-14,44.5c-0.9,2.8-2.1,6.6-3.4,11.4c-1.4,4.9-2.7,9.3-4,13.2
				c-1.3,3.9-2.4,7.7-3.3,11.4c-1.5,3.8-3.4,9.5-5.9,16.9c-2.5,7.4-4.2,12.3-5.1,14.7c-3.8,10.8-6.8,18.9-8.8,24.2
				c-0.9,2.4-2,3.9-3.3,4.4c-7.2,2.9-12.6,4.1-16.2,3.6c-0.9-0.2-2.2-0.4-3.9-0.7c-1.6-0.3-3.2-0.5-4.5-0.8s-2.7-0.5-4-0.7
				c-3.9-0.7-5.2-3.1-4.1-7.2c0.7-1.3,1.1-5.4,1.2-12.4c0.1-7,0.1-11.1,0.1-12.4c0.4-5.9,0.6-14.1,0.7-24.8
				c0.1-10.6,0.2-17.7,0.4-21.2c0.2-3.1,0.4-7.7,0.7-13.8c0.3-6,0.4-10.6,0.4-13.8c0-3.1,0-7.7-0.1-13.8c-0.1-6,0-10.6,0.1-13.8
				c-0.2-4.4-0.2-11-0.1-19.9c0.1-8.9,0.1-15.5,0.1-19.9c0-7.7,0-13.6,0-17.6c-0.4-2.2-0.4-3.9,0-5.2c0-2.8,1.3-4.1,3.9-4.1
				c5.5-0.5,12.6-1.2,21.5-1.9c4,0,6.1,2.4,6.3,7.2c0,0.9,0,2.5,0,4.7c-0.2,11.7-0.3,20.7-0.3,27c0,8.8,0.2,21.1,0.6,36.8
				c0,3.9,0,9.9,0,18c0,8.2,0,14.3,0,18.6c0,4,0,10.1-0.1,18.2c-0.1,8.1-0.1,14.1-0.1,18.1C948,1508,947.9,1511,947.9,1513z"/>
			<path class="st2" d="M1114.8,1488.8c0-15.6,2.9-38.4,8.8-68.5c2-11.2,5.4-21.3,10.2-30.3c5.1-9.9,9-16.5,11.5-19.8
				c5-6.8,11.5-11,19.8-12.7c3.8-0.7,6.7-0.5,8.5,0.6c0.2,0,0.4,0.1,0.7,0.4c0.3,0.3,0.5,0.6,0.8,1c0.3,0.4,0.5,0.6,0.7,0.8
				c-0.2,0.2-0.4,0.5-0.7,0.8c-0.3,0.4-0.5,0.7-0.8,1c-0.3,0.3-0.5,0.4-0.7,0.4c-0.7,0.2-1.9,0.4-3.6,0.7c-1.7,0.3-2.8,0.5-3.6,0.7
				c-5.3,1.3-10.3,5.2-14.8,11.8c-1.5,2.2-2.8,4.6-4.1,7.3c-1.3,2.7-2.7,5.8-4.1,9.5c-1.5,3.7-2.6,6.3-3.3,8
				c-2.8,5.7-4.5,11.4-5.2,17c-1.7,10.8-3.7,25.5-6,44c0,0.4-0.5,5.2-1.7,14.6c-0.5,5.3-0.1,13.3,1.4,23.9c0.9,6.4,4.6,13.3,11,20.6
				c3.5,3.5,8.1,5,13.8,4.4c5-0.9,9-2.3,12.1-4.1c4-2.6,7.2-5.2,9.6-8c11.4-14.8,20.3-28.8,26.7-41.8l1.6-3.3
				c1.3-2.9,3.2-3.8,5.8-2.8c0.2,0,0.6,0.2,1.4,0.5c2.6,1.1,4.1,2.2,4.7,3.3c0.5,1.1,0.6,3.3,0.3,6.6c-1.7,11.5-4.7,20.9-9.1,28
				c-7.9,13.6-13.3,22.6-16.2,27.2c-7.9,12.1-17.8,21.1-29.7,27c-9.5,4.8-18.7,3.5-27.5-3.8c-5.1-4-9.2-9.6-12.1-16.8
				c-0.2-0.7-0.6-1.5-1.4-2.2c-1.5-1.6-2.4-4.2-2.8-7.7c-0.4-3.3-0.7-5.8-1.1-7.4v-0.3C1115.1,1511.9,1114.8,1501.6,1114.8,1488.8z"
				/>
			<path class="st2" d="M1313.9,1534.4c0.7-3.5,1.2-7.6,1.4-12.4c0.4-3.5,0.7-11.1,1.1-22.8c0.4-7.7,0.9-19.4,1.6-35.2v-5.2
				c0.5-7,1.2-20.8,1.9-41.5c0.4-8.1,0.6-13.1,0.8-15.1v-25c1.3-8.6,3.6-14,7-16.1c3.4-2.1,6.8-3.5,10.3-4.1c3.5-0.6,5.8-1,6.9-1
				c31.9,0,49.1-0.1,51.7-0.3h1.4c6.6,1.1,9.3,5,8.3,11.8c-1.8,12.8-3.3,32.2-4.4,58c-0.5,8.8-1,24.8-1.4,48.1
				c0,8.3-0.4,23.4-1.1,45.4v14c1.8,0.2,3.6,0.5,5.2,1.1c6,1.8,9.1,4.6,9.1,8.3c0,0.7,0.2,3.5,0.5,8.3c-0.2,0.9-0.2,3,0,6.2
				c0.2,3.2,0.1,5.6-0.3,7.3l-0.8,15.7c0.2,0.4,0.3,0.9,0.3,1.7c0,0.7,0,1.3,0,1.6c-0.5,2-2,2.8-4.4,2.5c-3.7,0.2-6-0.2-6.9-1.2
				c-0.9-1-1.4-3.3-1.4-6.7l0.5-19.8c0-0.5-0.3-1.6-0.8-3.3c-0.9,0-28.5,0.5-82.8,1.4c-2.2,0-3.6,0.2-4.1,0.7
				c-0.6,0.5-1.4,7.9-2.5,22.4c0,3.1-0.3,4.9-0.8,5.4c-0.5,0.5-2.4,0.6-5.5,0.4c-2.8,0-4.4-0.3-4.9-0.8c-0.6-0.5-1.1-2.2-1.7-5
				l-0.3-2.5c1.1-7,1.7-13.4,1.8-19.4c0.1-6,0.1-9.9,0.1-11.7c0.2-2.8,1.5-5.7,3.8-8.8c1.5-1.7,3-2.4,4.7-2.2H1313.9z
				 M1368.1,1494.3l0.6-25.9c0.5-27.1,0.8-40.9,0.8-41.3c0.2-5.1,0.9-19.8,2.2-44c0.2-1.1,0.3-2.8,0.3-5.1c0-2.3,0.1-4,0.3-5.1
				c0.2-2-0.5-3.3-1.9-3.8l-19.5-0.8c-7.3,0.4-11,3-11,8l-2.5,65.5c-1.1,23.1-2,42.3-2.8,57.5c-0.4,13.2-0.7,23.5-1.1,30.8
				c-0.4,1.5-0.7,2.8-1.1,4.1c2.9,0,5.5-0.1,7.7-0.3h22.8C1366,1533.7,1367.7,1520.5,1368.1,1494.3z"/>
			<path class="st2" d="M1467.5,1440.6c1.2-4.2,2.1-7.4,2.6-9.6c1.7-7.2,3.9-17.4,6.7-30.7c2.8-13.3,4.9-22.7,6.2-28.2
				c1.5-7,2.6-12.3,3.3-16c0.7-4,2.7-6.4,5.8-7.1c6.2-1.5,12.3,0,18.2,4.4c0.7,0.4,1.7,1,2.8,1.9c1.1,0.9,1.8,1.6,2.2,1.9
				c3.8,2.8,5.1,6.9,3.8,12.4c-6.4,24.6-10.8,42.4-13.2,53.6c-0.9,4.6-2,9.4-3.3,14.4c-1.3,5-2.8,10.6-4.4,16.8
				c-1.7,6.1-2.9,10.9-3.9,14.2c-2,8.3-6,24.6-11.8,49c-0.7,3.3-1.8,8.3-3.2,15c-1.4,6.7-2.4,11.7-3.2,15c-0.2,0.7-1.6,6.3-4.1,16.8
				c-0.7,1.8-1.5,2.8-2.2,2.8c-3.3,0.9-6,1.3-8,1.1c-5.5-0.5-11.4-1.6-17.6-3c-1.5-0.4-2.7-2-3.7-4.8c-1-2.8-1.2-5.4-0.7-7.6
				l9.1-37.9c2-8.3,5-20.8,9.1-37.7c0.7-3.5,0.7-7.1,0-10.7l-7.4-25.6c-1.1-4.2-2.8-10.4-5-18.4c-2.2-8.1-3.8-14.2-5-18.4
				c0-0.2,0-0.5-0.1-0.8c-0.1-0.4-0.1-0.6-0.1-0.8c-1.1-2.9-2.8-7.3-5.1-13.2c-2.3-5.9-4-10.3-5.1-13.2c-0.9-2.4-1.6-4.5-2.2-6.3
				c-0.9-3.9,0-6.7,2.8-8.5c2.2-1.6,4.3-1,6.3,1.9c1.3,1.5,2.4,3.5,3.3,6.1c1.6,4.9,4.3,12.4,8,22.3c1.3,3.1,2.8,7.9,4.5,14.4
				c1.7,6.5,2.7,10,2.9,10.6c1.8,6.6,4.6,16.3,8.3,29.1c0,0.2,0.5,1,1.4,2.5C1465.6,1447.3,1466.3,1444.9,1467.5,1440.6z"/>
			<path class="st2" d="M1613.1,1550.4h11.8c2.6-0.2,3.8-1.6,3.8-4.1c0.7-6.2,1.4-10.9,1.9-14c1.5-7.5,2.4-20.5,2.8-39l0.8-47v-30.8
				c0-3.8,0.2-9.6,0.5-17.2c0.4-7.6,0.6-13.3,0.6-17.2c0-1.8,0-4.6,0.1-8.3c0.1-3.7,0.1-6.4,0.1-8.3c0-2,0.2-3.3,0.7-3.8
				c0.5-0.5,1.5-1.2,3.2-1.9c3.3-1.5,7.6-2.6,12.9-3.3c2.4-0.2,5.9-0.3,10.5-0.3c1.3,0,2.2,0.5,2.8,1.4c2.4,4.8,3.4,8.5,3,11.3
				c-0.2,1.3-0.3,3.2-0.4,5.8c-0.1,2.6-0.1,4.5-0.1,5.8c-0.2,4.6-0.5,31.8-1.1,81.7c-0.2,16.5-0.7,33.2-1.7,50
				c-0.2,3.3-0.5,17.5-1.1,42.6c0.4,5.3-2.3,8.4-8,9.4l0.3-0.3h-1.1c-2,0.2-6.3,0.3-12.9,0.3h-60.2c-9.9-0.6-14.9-0.8-15.1-0.8
				c-2.6,0-6.3,0.1-11.3,0.4c-5,0.3-8.7,0.5-11.3,0.7h-1.4c-6.6-1.1-9.4-5-8.3-11.8c1.8-12.8,3.3-32.2,4.4-58
				c0.5-8.8,1-28.5,1.4-59.1c0-8.3,0.4-20.6,1.1-37.1v-23.1c0-1.3,0-3.2-0.1-5.8c-0.1-2.6-0.1-4.5-0.1-5.8c0-4.4,1.7-7.1,5.2-8
				c8.3-2.6,16.6-0.9,25,5c1.8,1.1,2.8,3.2,2.8,6.3v9.6h-0.3c-0.7,28.6-1.3,50-1.6,64.1c-0.5,34.5-0.8,51.9-0.8,52.3
				c-0.2,5.1-0.9,19.8-2.2,44c-0.2,1.1-0.3,2.8-0.3,5.1c0,2.3-0.1,4-0.3,5.1c-0.2,2,0.5,3.3,1.9,3.9l5.8,0.8h7.4
				c1.7-0.6,2.6-1.7,2.8-3.3c0.2-7.3,0.5-12.8,0.8-16.5c0-3.8,0.3-9.2,0.8-15.9c0.2-2,0.4-4.9,0.7-8.5c0.3-3.7,0.5-7,0.7-9.9
				c0.2-2.9,0.3-5.8,0.3-8.5c1.1-30.3,1.8-50.1,2.2-59.7c0.7-12.5,1.4-23.7,1.9-33.6c0.5-9.7,0.9-16.4,1.1-20.1c0-0.9,0-2.4,0.1-4.4
				c0.1-2,0.1-3.6,0.1-4.7c0.2-2.6,1-4.3,2.5-5.2c1.5-0.9,3.6-1.6,6.3-2.2c2.8-0.6,4.7-1,5.8-1.4c0.7-0.4,2.3-0.1,4.7,0.8
				c2.4,1.1,3.5,4.1,3.3,9.1c-0.2,4.2-0.7,12.5-1.6,24.9c-0.9,12.4-1.6,22.8-1.9,31.2c-0.7,11.4-1.5,33.4-2.2,66
				c-0.2,3.7-0.4,9.2-0.7,16.6c-0.3,7.4-0.4,13-0.4,16.6v5.8c0,2.2-0.1,5.4-0.3,9.6c-0.2,4.2-0.3,7.2-0.3,8.9
				C1610.9,1548.1,1611.7,1549.5,1613.1,1550.4z"/>
			<path class="st2" d="M1689,1498.1c-1.8-15.8-2.8-25-3-27.8c-1.5-24,1.3-45.2,8.3-63.5c4.4-11.7,8.9-20.4,13.5-26.1
				c0.9-0.9,2.2-2.3,4-4.3c1.7-1.9,3.1-3.4,4-4.5c2.6-2.6,4-4.6,4.4-6.1c0.4-1.3,1.1-2.1,2.2-2.5c1.1-0.2,2.8-0.5,5-1
				c2.2-0.5,3.8-0.9,4.9-1.2c1.3-0.5,3.4-0.7,6.5-0.4c3,0.3,5.1,0.5,6.3,0.7c1.2,0.2,3.3,0.6,6.3,1.4c3,0.7,5.2,1.2,6.5,1.4
				c8.6,1.8,14.9,6.8,19,14.8c9.2,19.4,15.2,35.6,18.1,48.4c4.4,20.9,5.2,40,2.5,57.2c-1.8,13.2-3,21.2-3.6,23.9
				c-0.5,3.7-1.9,8.5-4.1,14.6c-2.9,8.4-5.2,14.7-6.9,18.7c-2.8,6.2-7.4,11.4-14,15.4c-1.6,0.9-4,2.2-7.1,3.8
				c-3.1,1.7-5.4,2.9-6.9,3.9c-1.8,0.9-3,1.3-3.6,1.1c-0.5,0-3.2,0.1-7.8,0.3c-4.7,0.2-7.3-0.1-7.8-0.8c-3.7-1.3-7.5-1.9-11.6-1.9
				c-8.8-0.4-15.3-5-19.5-13.8c-1.3-2.8-4.3-9.7-9.1-20.9C1692.8,1520.1,1690.7,1509.9,1689,1498.1z M1757.6,1404.1
				c-1.6-3.5-3.4-7.3-5.5-11.5c-2.1-4.2-3.7-7.5-4.8-9.9c-0.5-1.8-1.8-3.1-3.8-3.8c-3.7-1.7-7.2-2.8-10.7-3.3c-2-0.4-4,0.1-6.1,1.4
				c-6,3.7-11,9.4-14.8,17.1c-6.8,13.8-11,27.4-12.7,41c-1.6,13.8-2.2,24.8-1.6,33.3c1.3,14.1,3.4,28.9,6.3,44.3
				c1.3,7.2,4.7,17.3,10.2,30.5c2.2,4.6,5,6.8,8.5,6.6h8.5c2,0,3.4-0.2,4.1-0.5c10.5-4.2,17.7-11.2,21.7-20.9
				c2-4.9,4.6-13.4,7.7-25.3c0.2-0.5,1.3-7.3,3.3-20.3c1.7-10.5,1.7-22.5,0.3-36.3c-1.3-12.5-3.7-23.1-7.2-31.9
				C1760.3,1410.9,1759.2,1407.6,1757.6,1404.1z"/>
			<path class="st2" d="M1851.5,1513h0.8c0.6-0.5,1.1-1.2,1.7-1.9c0.4-1.6,2.2-7.1,5.4-16.5c3.2-9.3,5.5-16.5,7-21.5
				c2-5.9,4.9-14.8,8.5-26.7c3.7-11.9,6.4-20.9,8.3-27c0.4-1.5,1.1-3.5,2.2-6c1.1-2.6,1.7-4.1,1.9-4.7c1.3-4.8,3.4-11.7,6.3-20.8
				c2.9-9.1,5.1-15.9,6.6-20.5c1.1-2.9,2.6-5.1,4.4-6.6c1.7-1.3,4.5-2.6,8.5-3.9c6.8-2,13.3-2,19.5,0c2.4,0.5,3.9,1.5,4.7,2.8
				c0.7,1.3,0.9,3.4,0.5,6.3c-1.3,12.7-2.1,22.1-2.5,28.3c-0.7,10.6-1.2,21.4-1.4,32.2c-0.2,20.5-0.4,32.8-0.6,36.8
				c0,6.1-0.4,14.6-1.1,25.6c-0.7,11-1.2,18.2-1.4,21.7c-0.4,8.4-0.8,21.1-1.4,37.9c0,3.7-0.6,6.2-1.9,7.7c-1.3,1.5-3.6,2.3-6.9,2.5
				c-0.9,0.2-1.9,0.2-3,0l-7.1-0.3c-0.7-0.2-1.9-0.4-3.6-0.5c-0.5,0-1.2-0.1-2.1-0.4c-0.8-0.3-1.6-0.5-2.3-0.5
				c-0.7-0.1-1.5-0.1-2.2-0.1c-1.8-0.4-3-1.5-3.6-3.3c-0.2-1.8-0.3-3.3-0.3-4.4c0.7-11.2,1.8-27.7,3.3-49.5
				c1.1-15.8,1.8-27.6,2.2-35.5c0.2-4.8,0.3-9.8,0.4-15c0.1-5.2,0.1-11,0.1-17.5c0-6.4,0-11.5,0-15.1c0-2,0-4.9,0-8.7
				c0-3.8,0-6.6,0-8.4c-1.5,3.3-3.3,8.4-5.5,15.4c-3.3,9.9-8,24.8-14,44.5c-0.9,2.8-2.1,6.6-3.4,11.4c-1.4,4.9-2.7,9.3-4,13.2
				c-1.3,3.9-2.4,7.7-3.3,11.4c-1.5,3.8-3.4,9.5-5.9,16.9c-2.5,7.4-4.2,12.3-5.1,14.7c-3.8,10.8-6.8,18.9-8.8,24.2
				c-0.9,2.4-2,3.9-3.3,4.4c-7.2,2.9-12.6,4.1-16.2,3.6c-0.9-0.2-2.2-0.4-3.8-0.7c-1.7-0.3-3.2-0.5-4.5-0.8s-2.7-0.5-4-0.7
				c-3.8-0.7-5.2-3.1-4.1-7.2c0.7-1.3,1.1-5.4,1.2-12.4c0.1-7,0.1-11.1,0.1-12.4c0.4-5.9,0.6-14.1,0.7-24.8
				c0.1-10.6,0.2-17.7,0.4-21.2c0.2-3.1,0.4-7.7,0.7-13.8c0.3-6,0.4-10.6,0.4-13.8c0-3.1,0-7.7-0.1-13.8c-0.1-6,0-10.6,0.1-13.8
				c-0.2-4.4-0.2-11-0.1-19.9c0.1-8.9,0.1-15.5,0.1-19.9c0-7.7,0-13.6,0-17.6c-0.4-2.2-0.4-3.9,0-5.2c0-2.8,1.3-4.1,3.9-4.1
				c5.5-0.5,12.6-1.2,21.4-1.9c4,0,6.1,2.4,6.3,7.2c0,0.9,0,2.5,0,4.7c-0.2,11.7-0.3,20.7-0.3,27c0,8.8,0.2,21.1,0.5,36.8
				c0,3.9,0,9.9,0,18c0,8.2,0,14.3,0,18.6c0,4,0,10.1-0.1,18.2c-0.1,8.1-0.1,14.1-0.1,18.1C1851.6,1508,1851.5,1511,1851.5,1513z
				 M1887.6,1320.7c0.9-1.5,2.3-2.3,4.1-2.5c1.1-0.4,1.9-0.6,2.5-0.6c1.5-0.5,2.9-0.4,4.4,0.6c0.7,0.7,1.7,1.4,2.8,1.9
				c0.4,0.4,0.8,0.8,1.4,1.2c0.5,0.5,1,0.8,1.4,1c0.4,0.4,0.9,0.9,1.5,1.6c0.6,0.7,1.2,1.4,1.8,1.9c1.1,1.5,1.1,2.8,0,4.1
				c-1.8,1.8-4.2,4.6-7.1,8.3c-1.3,1.8-3,4.4-5.2,7.7c-0.7,1.5-1.9,1.9-3.6,1.4c-4,0.9-12.8-5.4-26.4-19c-0.4-0.5-1.1-1.3-2.1-2.2
				c-1-0.9-1.7-1.7-2.1-2.2c-1.5-1.3-1.4-2.5,0.3-3.6c2-0.9,3.8-0.7,5.5,0.6C1871.2,1329.1,1878.2,1329,1887.6,1320.7z"/>
		</g>
		<g>
			<g>
				<path class="st3" d="M1920.6,925.8V1032c0,9.4-0.9,19.3-2.7,29.6c-1.8,10.3-3,17.3-3.5,20.8c-1.8,10.6-7.4,15.9-16.8,15.9h-2.7
					c-31.9-1.2-56.1-1.8-72.6-1.8c-5.9,0-10.5-1.5-13.7-4.4c-3.3-2.9-5.8-7.4-7.5-13.3c-4.7-15.3-7.8-30.8-9.3-46.5
					c-1.5-15.6-2.2-34.1-2.2-55.3c0-53.7,4.4-126,13.3-216.8c0.6-4.7,1.8-9.6,3.5-14.6c1.8-5,2.9-8.4,3.5-10.2
					c3.5-9.4,9.7-14.2,18.6-14.2h2.7c17.7,1.2,31,1.8,39.8,1.8c20.1,0,33.3,10.6,39.8,31.9c5.9,21.8,8.9,45.1,8.9,69.9v100.9H1920.6
					z M1857.7,1233.7c-12.4,0-20.9-1.8-25.7-5.3c-4.7-3.5-7.1-9.7-7.1-18.6c0-14.7,2.7-26.1,8-34.1c5.3-8,12.7-11.9,22.1-11.9
					c11.8,0.6,22.6,4.7,32.3,12.4c9.7,7.7,14.3,15.3,13.7,23c-0.6,7.7-5.8,15.3-15.5,23C1875.9,1229.9,1866.6,1233.7,1857.7,1233.7z
					"/>
			</g>
		</g>
		<g>
			<path class="st3" d="M393,975.2l3,104c2,44.7,3,86.3,3,125c0,8.7-1.5,14.5-4.5,17.5s-8.2,4.5-15.5,4.5c-8.7,0-15-1.2-19-3.5
				c-4-2.3-6-6.5-6-12.5c-0.7-6-1.5-13.3-2.5-22c-1-8.7-1.5-15.7-1.5-21c0-36-1.3-90.7-4-164c-3.3-61.3-5-116-5-164v-41
				c0-12-1.2-19-3.5-21c-2.3-2-9.8-3-22.5-3c-20,0.7-49.3,1-88,1c-10,0.7-16.3,1.7-19,3c-2.7,1.3-4,4.7-4,10l1,12
				c6.7,105.3,12,184.7,16,238c1.3,27.3,4,68.3,8,123c0.7,8.7-0.3,20.3-3,35c-0.7,2.7-1.3,6-2,10c-0.7,4-1,8.7-1,14
				c-0.7,10-6.7,15-18,15c-40.7,0-71,0.3-91,1c-11.3,0-18-5.7-20-17c-1.3-6-3.5-14.5-6.5-25.5s-4.8-20.5-5.5-28.5l-2-50
				c-0.7-16-1.7-44.3-3-85c-1.3-40.7-2-77.3-2-110c0-58,2-105.7,6-143c1.3-9.3,2.7-17,4-23c3.3-13.3,7.2-22.5,11.5-27.5
				c4.3-5,11.5-7.5,21.5-7.5c6,0,11,0.3,15,1c3.3,0.7,8.5,1.3,15.5,2c7,0.7,14.2,2.2,21.5,4.5c7.3,2.3,14,6.8,20,13.5
				c3.3,3.3,7.7,5.2,13,5.5c5.3,0.3,9,0.5,11,0.5h102c10-0.7,24.3,2.3,43,9c8.7,4,14.5,8.7,17.5,14c3,5.3,4.8,12.3,5.5,21L393,975.2
				z"/>
			<path class="st3" d="M622,1204.2c10-7.3,18-15.8,24-25.5c6-9.7,12.7-23.2,20-40.5l21-49c2-5.3,5.7-8,11-8c2,0,3.3,0.3,4,1
				c2.7,1.3,4,3.3,4,6c0,2.7-0.3,5.3-1,8c-1.3,5.3-4.2,15.3-8.5,30c-4.3,14.7-9.3,29.7-15,45c-5.7,15.3-13.2,30-22.5,44
				c-8,14-19.7,20.7-35,20c-13.3,0-23.3,0.3-30,1c-5.3,0-11.7,0.2-19,0.5c-7.3,0.3-16,0.2-26-0.5c-45.3-2-80-23.7-104-65
				c-17.3-32.7-26-70-26-112c0-9.3,0.7-22.7,2-40c3.3-25.3,8.7-48.7,16-70c18-52.7,53-88.7,105-108c19.3-7.3,38.3-11,57-11
				c35.3,0,63.7,12.5,85,37.5c21.3,25,32,54.8,32,89.5c0,7.3-0.3,13-1,17c0,3.3-0.7,8.3-2,15c-2.7,16.7-7.3,28.2-14,34.5
				c-6.7,6.3-18.3,10.2-35,11.5c-20,1.3-35,2-45,2l-23,1c-9.3,0-14,3-14,9v2c2,32,5.2,59.8,9.5,83.5c4.3,23.7,12.5,46.2,24.5,67.5
				c0.7,1.3,1.5,2.2,2.5,2.5C619.5,1203,620.7,1203.5,622,1204.2z M581,952.2h-1v22c0,7.3,0,15.7,0,25c0,9.3,0.7,15.8,2,19.5
				c1.3,3.7,5.3,5.5,12,5.5c4.7,0,18-1.7,40-5c17.3-2.7,28-12.7,32-30c3.3-15.3,5-29.7,5-43c0-12-1.7-25.3-5-40
				c-4.7-20-16.3-37.7-35-53c-7.3-6-13.3-9-18-9c-7.3,0-14,5.7-20,17c-7.3,13.3-11,28-11,44C581.3,915.8,581,931.5,581,952.2z"/>
			<path class="st3" d="M901,994.2c-13.3,8.7-22.8,17.7-28.5,27c-5.7,9.3-7.8,20.3-6.5,33c1.3,9.3,2.3,19.3,3,30
				c0.7,10.7,1,18.3,1,23c1.3,25.3,2,43.7,2,55c0,25.3-1,42.7-3,52c-2,9.3-7,15.3-15,18c-8,2.7-22.3,4-43,4h-12c-18,0-30.3-1-37-3
				c-6.7-2-11.3-6.3-14-13c-2.7-6.7-4.7-19-6-37c-2-21.3-3-42.3-3-63c-0.7-4.7-1-11.7-1-21c-1.3-56-2-97.3-2-124c0-42,1-83.3,3-124
				c0.7-16.7,2.2-27.8,4.5-33.5c2.3-5.7,7.5-8.5,15.5-8.5s18.3,1.3,31,4c19.3,3.3,32,6.2,38,8.5c6,2.3,10.8,7.3,14.5,15
				c3.7,7.7,7.2,22.2,10.5,43.5c2,11.3,3.5,24.2,4.5,38.5c1,14.3,1.8,24.2,2.5,29.5c0,2.7,0.2,7.2,0.5,13.5
				c0.3,6.3,1.5,11.8,3.5,16.5c6-0.7,10.8-3.3,14.5-8c3.7-4.7,6.2-8,7.5-10l98-121c7.3-10,14.3-15,21-15c5.3,0,10.7,2.3,16,7
				c-12.7,21.3-34.3,51.3-65,90c-10,12-15,23.3-15,34c0,5.3,1.7,13,5,23c22,66,40,141.3,54,226c0.7,6.7-0.2,11-2.5,13
				c-2.3,2-6.5,3-12.5,3c-11.3,1.3-19.2,0.5-23.5-2.5c-4.3-3-8.8-9.8-13.5-20.5c-6.7-16-12-32.3-16-49c-4-16.7-8.3-37.7-13-63
				c-1.3-7.3-4-21-8-41l-6-28C903.7,1006.8,902.3,999.5,901,994.2z"/>
			<path class="st3" d="M1198,1122.2l-33,53c-10,18-26.3,27-49,27c-10.7,0-21-1-31-3c-22-3.3-35-20-39-50c-2.7-16-4-34.3-4-55
				c0-40,6.7-78,20-114c0.7-1.3,1.3-3,2-5c0.7-2,1.7-4,3-6c20.7-38,47.3-57,80-57c10,0,23,2.3,39,7c6.7,2,14.3,4.7,23,8
				c2.7-1.3,4.3-2.7,5-4c8-17.3,15.2-29.2,21.5-35.5c6.3-6.3,13.5-9.5,21.5-9.5c4,0,9.5,0.7,16.5,2c7,1.3,12.8,2.3,17.5,3
				c20,2.7,34.5,7,43.5,13c9,6,15.2,15.3,18.5,28c3.3,12.7,5,32,5,58c0,14.7-0.7,36-2,64l-9,140c-0.7,16.7-4.5,28.2-11.5,34.5
				c-7,6.3-18.5,10.2-34.5,11.5c-4.7,0-11.7,0.7-21,2c-14.7,1.3-25.3,2-32,2c-25.3,0-39-13.3-41-40l-2-38c0-2-0.2-6.7-0.5-14
				C1204.1,1136.8,1202,1129.5,1198,1122.2z M1087,1076.2c0,3.3,0,10,0,20s0.3,19.8,1,29.5c0.7,9.7,2.7,19.2,6,28.5
				c0.7,2,1.7,5.3,3,10c1.3,4.7,3.2,8.7,5.5,12c2.3,3.3,5.8,5,10.5,5c5.3,0,10-2.7,14-8c4-5.3,6.7-8.7,8-10
				c47.3-62.7,71-126.7,71-192c0-18-8.7-32-26-42c-6.7-4-13.3-6-20-6c-8.7,0-17.7,3.7-27,11c-14.7,11.3-25.3,27.3-32,48
				C1090.3,1013.5,1085.6,1044.8,1087,1076.2z"/>
			<path class="st3" d="M1695,1025.2c0.7,10,1,24,1,42c0,22.7-1.3,54.7-4,96c-0.7,8-3,19.3-7,34c-2.7,11.3-4.3,19-5,23
				c-1.3,10.7-6.7,16-16,16h-3c-18.7-1.3-45.3-2.7-80-4c-6.7,0-11.2-1.5-13.5-4.5c-2.3-3-4.2-7.8-5.5-14.5c-1.3-14.7-2.7-25.7-4-33
				c-2.7-22.7-4-40-4-52c0-7.3,0.3-13,1-17c0.7-6.7-0.3-11.3-3-14c-2.7-2.7-7.7-4-15-4c-21.3,1.3-35.5,3-42.5,5s-11.3,6.3-13,13
				c-1.7,6.7-2.5,20.3-2.5,41c0,5.3-0.2,11.8-0.5,19.5c-0.3,7.7-0.2,16.8,0.5,27.5c0,12-5.3,18-16,18h-5h-4
				c-15.3-0.7-25.8-1.7-31.5-3c-5.7-1.3-9.3-4.7-11-10c-1.7-5.3-3.2-16-4.5-32c-1.3-17.3-2-30-2-38c0-6.7-0.8-12.2-2.5-16.5
				c-1.7-4.3-5.5-7.8-11.5-10.5c-2.7-1.3-4.8-3.3-6.5-6c-1.7-2.7-3-6-4-10s-1.5-6.7-1.5-8c-2.7-8.7-0.3-13.7,7-15
				c6.7-0.7,10.8-2.8,12.5-6.5c1.7-3.7,2.5-8.8,2.5-15.5v-7l3-189c0-16.7,0.7-29,2-37c0.7-12,2.3-19.8,5-23.5
				c2.7-3.7,7.7-5.5,15-5.5c12,1.3,20.5,4.2,25.5,8.5c5,4.3,7.8,11.8,8.5,22.5l14,198c1.3,17.3,3,28.2,5,32.5c2,4.3,7.7,6.5,17,6.5
				c8,0,15-0.3,21-1c20-1.3,31.2-2.2,33.5-2.5c2.3-0.3,4-3,5-8s1.8-16.5,2.5-34.5l6-174c0-10,1-19.3,3-28c1.3-10.7,3.7-17.3,7-20
				c3.3-2.7,10.3-3.7,21-3c24,2,41.5,5.2,52.5,9.5c11,4.3,19,11.8,24,22.5c5,10.7,9.2,28,12.5,52c3.3,21.3,5.5,44.2,6.5,68.5
				c1,24.3,1.8,40.2,2.5,47.5C1693,991.8,1693.6,1006.5,1695,1025.2z"/>
		</g>
		<g>
			<path class="st4" d="M393.5,354.2l3,104c2,44.7,3,86.3,3,125c0,8.7-1.5,14.5-4.5,17.5s-8.2,4.5-15.5,4.5c-8.7,0-15-1.2-19-3.5
				c-4-2.3-6-6.5-6-12.5c-0.7-6-1.5-13.3-2.5-22c-1-8.7-1.5-15.7-1.5-21c0-36-1.3-90.7-4-164c-3.3-61.3-5-116-5-164v-41
				c0-12-1.2-19-3.5-21c-2.3-2-9.8-3-22.5-3c-20,0.7-49.3,1-88,1c-10,0.7-16.3,1.7-19,3c-2.7,1.3-4,4.7-4,10l1,12
				c6.7,105.3,12,184.7,16,238c1.3,27.3,4,68.3,8,123c0.7,8.7-0.3,20.3-3,35c-0.7,2.7-1.3,6-2,10c-0.7,4-1,8.7-1,14
				c-0.7,10-6.7,15-18,15c-40.7,0-71,0.3-91,1c-11.3,0-18-5.7-20-17c-1.3-6-3.5-14.5-6.5-25.5s-4.8-20.5-5.5-28.5l-2-50
				c-0.7-16-1.7-44.3-3-85c-1.3-40.7-2-77.3-2-110c0-58,2-105.7,6-143c1.3-9.3,2.7-17,4-23c3.3-13.3,7.2-22.5,11.5-27.5
				c4.3-5,11.5-7.5,21.5-7.5c6,0,11,0.3,15,1c3.3,0.7,8.5,1.3,15.5,2c7,0.7,14.2,2.2,21.5,4.5c7.3,2.3,14,6.8,20,13.5
				c3.3,3.3,7.7,5.2,13,5.5c5.3,0.3,9,0.5,11,0.5h102c10-0.7,24.3,2.3,43,9c8.7,4,14.5,8.7,17.5,14c3,5.3,4.8,12.3,5.5,21
				L393.5,354.2z"/>
			<path class="st4" d="M576.5,501.2l-33,53c-10,18-26.3,27-49,27c-10.7,0-21-1-31-3c-22-3.3-35-20-39-50c-2.7-16-4-34.3-4-55
				c0-40,6.7-78,20-114c0.7-1.3,1.3-3,2-5c0.7-2,1.7-4,3-6c20.7-38,47.3-57,80-57c10,0,23,2.3,39,7c6.7,2,14.3,4.7,23,8
				c2.7-1.3,4.3-2.7,5-4c8-17.3,15.2-29.2,21.5-35.5c6.3-6.3,13.5-9.5,21.5-9.5c4,0,9.5,0.7,16.5,2c7,1.3,12.8,2.3,17.5,3
				c20,2.7,34.5,7,43.5,13s15.2,15.3,18.5,28c3.3,12.7,5,32,5,58c0,14.7-0.7,36-2,64l-9,140c-0.7,16.7-4.5,28.2-11.5,34.5
				c-7,6.3-18.5,10.2-34.5,11.5c-4.7,0-11.7,0.7-21,2c-14.7,1.3-25.3,2-32,2c-25.3,0-39-13.3-41-40l-2-38c0-2-0.2-6.7-0.5-14
				C582.7,515.8,580.5,508.5,576.5,501.2z M465.5,455.2c0,3.3,0,10,0,20s0.3,19.8,1,29.5c0.7,9.7,2.7,19.2,6,28.5
				c0.7,2,1.7,5.3,3,10c1.3,4.7,3.2,8.7,5.5,12c2.3,3.3,5.8,5,10.5,5c5.3,0,10-2.7,14-8c4-5.3,6.7-8.7,8-10
				c47.3-62.7,71-126.7,71-192c0-18-8.7-32-26-42c-6.7-4-13.3-6-20-6c-8.7,0-17.7,3.7-27,11c-14.7,11.3-25.3,27.3-32,48
				C468.8,392.5,464.2,423.8,465.5,455.2z"/>
			<path class="st4" d="M1073.5,404.2c0.7,10,1,24,1,42c0,22.7-1.3,54.7-4,96c-0.7,8-3,19.3-7,34c-2.7,11.3-4.3,19-5,23
				c-1.3,10.7-6.7,16-16,16h-3c-18.7-1.3-45.3-2.7-80-4c-6.7,0-11.2-1.5-13.5-4.5c-2.3-3-4.2-7.8-5.5-14.5c-1.3-14.7-2.7-25.7-4-33
				c-2.7-22.7-4-40-4-52c0-7.3,0.3-13,1-17c0.7-6.7-0.3-11.3-3-14c-2.7-2.7-7.7-4-15-4c-21.3,1.3-35.5,3-42.5,5s-11.3,6.3-13,13
				c-1.7,6.7-2.5,20.3-2.5,41c0,5.3-0.2,11.8-0.5,19.5c-0.3,7.7-0.2,16.8,0.5,27.5c0,12-5.3,18-16,18h-5h-4
				c-15.3-0.7-25.8-1.7-31.5-3c-5.7-1.3-9.3-4.7-11-10c-1.7-5.3-3.2-16-4.5-32c-1.3-17.3-2-30-2-38c0-6.7-0.8-12.2-2.5-16.5
				c-1.7-4.3-5.5-7.8-11.5-10.5c-2.7-1.3-4.8-3.3-6.5-6c-1.7-2.7-3-6-4-10s-1.5-6.7-1.5-8c-2.7-8.7-0.3-13.7,7-15
				c6.7-0.7,10.8-2.8,12.5-6.5c1.7-3.7,2.5-8.8,2.5-15.5v-7l3-189c0-16.7,0.7-29,2-37c0.7-12,2.3-19.8,5-23.5
				c2.7-3.7,7.7-5.5,15-5.5c12,1.3,20.5,4.2,25.5,8.5c5,4.3,7.8,11.8,8.5,22.5l14,198c1.3,17.3,3,28.2,5,32.5c2,4.3,7.7,6.5,17,6.5
				c8,0,15-0.3,21-1c20-1.3,31.2-2.2,33.5-2.5c2.3-0.3,4-3,5-8s1.8-16.5,2.5-34.5l6-174c0-10,1-19.3,3-28c1.3-10.7,3.7-17.3,7-20
				c3.3-2.7,10.3-3.7,21-3c24,2,41.5,5.2,52.5,9.5c11,4.3,19,11.8,24,22.5c5,10.7,9.2,28,12.5,52c3.3,21.3,5.5,44.2,6.5,68.5
				c1,24.3,1.8,40.2,2.5,47.5C1071.5,370.8,1072.1,385.5,1073.5,404.2z"/>
		</g>
	</g>
	<path class="st2" d="M1298.1,235.9L1311,223l12.9-8l12.7-12.2l13.2-3.7l9.4-8.6l13.8-5.9l11.9-4l13.6-2.3h8c0,0,6,6,8,6
		c2,0,3,6,3,6l3,7l-1,9l-5,4l12.9-2h8.9h11.9l11.9-1l9.9,1l11.9,2l7,8v6l-6,4l1,5l7,8l-2,6l-13.9,10.9l-12.9,2h-13.9h-8l-8,2
		l-9.8,1.4l-3.1-3.4l-6,2l-7,2l-8-1l-8-1h-8h-8.9l-7-5h-10.9l-6.2,3l-0.7,2.9l-4,4.5h-5.5l-5.5-2.5l-7.2,2.5l-4.6,3.3l-14,1.2l-2-4
		v-8h-5l-4-3v-10L1298.1,235.9z"/>
	<path class="st5" d="M1308,269.8l8-10l8,10l-4,3c0,0-7-1-8-1S1308,269.8,1308,269.8z"/>
	<polygon class="st5" points="1297.1,245.9 1305,248.9 1299.3,258.5 1295.1,254.8 1296.1,248.9 	"/>
	<polyline class="st5" points="1441.5,207.6 1447.1,206.9 1451.1,206.1 1458.4,207.1 1454.1,217 1443.1,218 1441.5,207.6 	"/>
	<path class="st3" d="M1181.8,280.7v7l1,7v10.9l1,5l6,2l7,3l2,7l-1,7l-1,9v6l1,3l2,1l2,1l3-1l2-1l1-2l1-4l1-6v-6l1-9l3-4l5-1
		c0,0,4,0,5,1c1,1,5,3,5,3l5,6l8,8l6,5l5,5l5,3l3,5v5v5l-2,5v6l2,4l5,2l5-2l2-4v-4l-1-6v-9l4-6l9.9-8l8.9-5l7-4l5-1l7,2l10.9,3
		l9.9,2l11.9,1l10.9-2l9.9-4l6-3l8-3h5l4,1c0,0,3,2,4,3c1,1,5,7,5,7l3,6l2,11.9v9l-2,6l-1,6v5l3,3l4,2l4-2l3-2l3-3v-4l-2-6l-1-10.9
		l3-8l5-10l8.9-8l8-4l8.9-1h9.9c0,0,9.9,3,10.9,4c1,1,10.9,6,10.9,6l8,10l2,6l4,10l-1,9l-3,9l-2,8v4l3,4l4,3l4,1h5l3-2l3-4v-6l-2-6
		l-1-4l-1-10l1-6l3-6l6-5l8-5h4h6l7,1l8,2c0,0,7,2,8,3c1,1,8,8,8,7c0-1,4,10,4,10s0,6,1,7c1,1,0,8,0,8l-3,6l-1,6l3,4h5h5l2-6v-4
		l-1-7v-8l3-9l4-3l2-2l5-1l4,4l3,7v10.9v11.9l1,10.9v9v10l-1.6,13.9l-4.3,12.9l-5,7v5l1,5l4,4l7,3h7l5-4l5-5v-7l-1.2-5l-3.7-5.6
		l-2-6.3l-2.1-7.1l0.1-11.8l3-22.9l1-9l2-10l3-7l3-5l5-4l6-3l8-3l9.9-1h8l7,1l11.9,3l8.9,4c0,0,5,4,6,5s4,9,4,9l1,10.9l2.1,18.5
		v14.6v11.2c0,0,0.9,10.5,0.9,12.4c0,2-1,14.9-1,14.9l-1,14.9l-4,15.9l-2,8l-2,7v7l2,8l7,7l8,1h8l6-4l3-7l3-7l-3-8l-4-11.9l-4-11.9
		l-2-13.9l-1.7-20.8l0.7-17v-20.9v-11.9l1-10l4-18.9l6-9l8-5l4-3l10.9-2h5l8,1c0,0,6,1,6,2s2,6,2,6s-1,7-1,8s0,8,0,8l-3,8
		c0,0-1,4,0,5c1,1,4,4,4,4l3,1l3,1l5-1l2-2l1-4v-9l-2-11.9l1-9l2-7l5-5l6-5l6-2l5-1h2l9.9-1h7l8.9,3l9.9,5l6,6c0,0,3,9,4,10
		c1,1,1,10.9,1,10.9v14.9c0,0-1,10.9-1,11.9c0,1-1,10.9-1,11.9c0,1-2,9-2,9l-3,8l-4,8l-2,9l1,7l6.5,7.5l14.3,3.3l12-1.9l6.2-5.8
		l2.7-5.1l1-8.6l-2-5.4l-3-4l-3-12.1c0,0-5-12.8-5-13.8s-4-16.9-4-17.9c0-1-2-11.9-2-11.9v-6l2-20.9l4-8c0,0,4-6,5-7c1-1,5-4,6-4
		c1,0,2-1.4,2-1.4l9.9-0.6l3-1l1-2l-1-5v-6l-2-24.9l-2-6l-4-5l-52.7-32.8l-33.8-13.9l-9.9-5l-7,4l-8.9,2l-8.8,7.1l-19,4.9l-35.8,7
		l-34.8,5l-27.8,1l-18.9-3l-15.8,5.5l-14,2.5l-22.9-1l-23.9-4l-14-6.7l-6.8-6.2l-8-4l-8-5l-3-6l2-5l-1-6l-6-4l-2-4l1-5l2.2-5.6
		l4.1-5l7.6-6.5l5-4.8l4-4l2-7l-7,3l-19.9,7l-28.8,8l-57.6,17.9l3,3h3l6-1l6-1l7-2l13.9,1l13.9,1l8,2l4,3l3,3l2,5l-2,5l-3,1l-2,1
		l-2,2l-1,1l4,2c0,0,3,1,3,2c0,1,2.1,4.7,2.1,4.7l0.9,4.2l-2,3l-4,4l-8,7l-7,1l-8,1l-7.4,0.1h-5.5l-5-1.1l-4,1l-5,3l-3,1h-5l-3-2
		l-4-1l-3-1l-3.1,1.7l-4.8,1.7c0,0-3.7,0.1-4.8,0.4c-1.1,0.2-5.2-0.4-5.2-0.4l-9.6-1.4c0,0-4.2-1-5.2-1s-6.4,1.1-6.7,1
		c-0.3,0-4.2-0.8-5.2-0.4s-4.2-3.3-4.1-3c0.1,0.4-4.5-1.5-4.5-1.5l-3.4-0.1h-2.9c0,0-3.1,2-4.1,2c-1,0-2,2-3,3c-1,1-5,2-5,3
		s-6,1-6,1h-5l-3.8,0l-4.1,2l-4,2l-2,2l-11.1,1l-3.9-3l-1-5l1-4c0,0-2.4-1-2.2-1c0.2,0-5.8-1-5.8-1l-4-6l1-5l1-6v-4l-1-1l-10.9,3
		l-102.4,33.8V280.7z"/>
	<path class="st6" d="M1169.9,480.8l1,6l4,6l3,5l4,6l5,3l5,5v5l-3,7c0,0,0,5-1,6c-1,1,1,9,1,9l1,7l2,15.9c0,0,0,17.9,1,18.9s2,3,2,3
		l7,1c0,0,6.2-1,6.6-0.5s8.7,0.1,8.7,0.1l7.6,1.4l8.9,1h5.8h5.1l8.7-1l21.2-2.1c0,0,5.6-0.1,5.2-0.5s4.6-0.4,4.6-0.4h6
		c0,0,8.7,0.5,9.8,0.2s11.1-1.2,11.1-1.2l10.9-3l8.9-5l10.9-3l7.8-2.6l5.2-1.4l4-0.8l4.2,1.6l7.2,1.9l8.3,2.3l11.2,1.2l6.7-0.2h11.9
		l10.1,0.1l11.8-0.1l10.9,1l12.9,1l8,1l8-1l8.1-3.2l9.8-2.7l6.6-2l10.3-1l11.8,1.5l14.5-0.1l11.4-1.4h8l8.9-0.4l10.3-0.8l11.5-0.9h4
		l8.9,2l11.4,1.2l9.6,0.2l11.8,1.5h14.9l15.9,1l16.8-0.7l16.3-0.1l15.7-2.1l11.7-1.7l10.2-0.2l7.2,1l8,1.3l7.9,2.3l15.7,1.4
		c0,0,14.4,1.2,14.7,1.1s16.4-0.4,16.8-0.2c0.4,0.1,12.3,0.1,12.3,0.1l11.9-4l8.9-2l9.6-5.3l4.3-4.6l2-9l4-28.9l1-16.9l-1-12.9
		l-3-14.9l-5-7l-7-4l-10.9-1l-20.9-1l-21.9-1l-17.9-2l-11.9-1l-17.9,1l-12.9,1l-8.2,0.9l-0.7,5.1l1,8l2.7,12.2l2.2,8.7l3.6,8.9
		l3.2,8.5l0.1,8.5l-4.4,7.6l-7.3,5.6l-9.2,0.7l-6-2l-6-4l-2-7l-1-4l0.4-8.1l2.9-10.9l3.7-16.8l1.6-11.2l0.4-9.3l-10.9-1.4l-16.9-1
		l-20.9,1l-11.9,1l-12.6-0.3l-6.8-1.9l-0.5,3.2c0,0-0.2,4.2-0.1,5.1c0.1,0.9-3.9,5.8-3.9,5.8l-6,4l-5.6-0.1l-6.6-1.8l-4.2-3.6
		l-2.5-3.5l-2-7l2-2l-3.1-0.2l-4.7,0.8l-27,1.5c0,0-13.9-0.5-13.4-0.7c0.5-0.2-9.7-0.1-9.7-0.1l-7.7-0.1l-8.9,1l-18.9,2l-8.9,1l-7,4
		l-11.9,2h-14.9h-10.9h-41.7l-54.4-0.7l-11.2-1.2l-5.8,0.1l-10.1-1.1h-8.9l-10.3,2l-20.5,4l-7.2,2.7l-14.7,2.2l-15.9,1l-16.3,1.4
		l-14.5,3.6l-17.9-1l-10.9-1L1169.9,480.8z"/>
	<path class="st6" d="M1181.8,311.6l-5,9l-4,10.9l-5,10.9l-4,10l-1,8l-4,9l-5,16.9l-4.1,10l5.1,2l5,2l5,3h5l6-2l4-3l4-1l5,1h5l6,1
		h9.9h7l5,0.7l6.6,0.8l8.2,0.7l7.5-1l7.6-0.2l12.9-1c0,0,12.9-2,12.9-1c0,1,8.9-1,8.9-1l7,1l7.9,3.3l9,1.7l8-0.8l6-0.2l7-2.7l6-1.3
		h5h4l8.3,3l6.6,1.7l14.9,1.3l9.9-2c0,0,5.6-0.7,6.8,0.2c1.2,0.8,7.8,0.6,7.8,0.6l6.7,1.2l6.6,1l6-1.3l5-1.7l5,1.2l5,1.7l6,1
		c0,0,3.6,0,4.8,1.5c1.2,1.5,5.6,0.5,5.6,0.5h4.5l7-2l6-2l6-2l7,1h6l11.9,1l11.9,1h13.6h10.2l10.3,0.2l8.6-0.2h8l7,3l5.8,0.3
		l8.1-0.3l7-1.1l5.9-0.9h4l1.9-2l0.1-11.9l-1-15.9l-1-9l-2-5l-5.1-1.6l-6.8,1.6l-5,6l-1,4v12.9v8l-0.3,4.8l-3.7,2.2h-3l-4-1l-2-4v-4
		l1.8-4.6l1.5-5.1l-0.3-5.2v-6l-2.1-4.1l-0.8-3.8l-2.8-3.3l-4.7-4.3l-3.4-2.4l-4-1l-5-3l-6-1l-5.9-0.8c0,0-6-0.1-7-0.1s-7,1-7,1
		s-4,3-5,4s-4.6,3.3-5.3,4.1c-0.7,0.8-3.6,3.8-3.6,4.8s-1,4-1,5c0,1,0.8,11.4,0.8,11.4l1.7,7.2l1.4,4.3v5.1l-3,4.8l-3,2l-3.8,1.2
		l-5.1-1.2l-5.2-5.6l-1.3-7.9l3.1-10.9l1.5-13.4l-6.6-17.9l-7.6-8.6l-8.6-6.3l-7.8-1.7l-12.1-2.3l-10.9,2l-9.9,5.8l-7.3,7.7
		l-4.6,8.5l-2.8,9.6l-0.2,5.3c0,0,2.2,6.7,2.1,7.4c-0.1,0.6-0.3,8.6-0.3,8.6l-3.8,4l-5.7,0.6l-3.2-2.6c0,0-3,0-3-2
		c0-2-1.8-6.5-1.8-6.5l3.8-7.5l0.9-6.2l-0.3-7.8l-0.8-7.3l0.2-4.4l-5.6-6.4l-3.4-4.6l-4-3l-4-1l-11.1,2.3l-6.5,2.8l-11.2,4.8
		l-13.3,2l-16.1-2l-14.4-4l-7-2l-5,1l-7,4l-8.9,5l-6.7,5.3l-5.7,6.3l-2.5,4.3l1.6,10.7l1,9l-4.6,2.2h-6.5l-2.2-2.5l-1.4-6.6l2-8.2
		v-8.6l-5-7l-8-6l-8.5-7.5l-3.8-4l-6.6-9.5l-9.9-2l-7,3l-1,5.1l-1,8.8v7l-1,5l-4,4h-5l-2.2-2.8l-1.8-5.1l1.7-9.3l1.7-7.1l-3.3-8.5
		l-6-3L1181.8,311.6z"/>
	<path class="st6" d="M1612.1,405.2l2.5-16.4l4.5-16.4l13.9-10l14.2-3.5l11.6-0.5l13.9,2l17.9,8l6,9l1.3,12.7l1.5,16.7l-1.5,1.8
		l-18.2,0.7h-15.9l-14.8-2.5l-8.1-2.5l-9.4,1.1l-6,2.4l-5.3,1.8c0,0-4.2-1.3-5.2-1.3c-1,0-4-2-4-2L1612.1,405.2z"/>
	<path class="st6" d="M1713.5,407.1l1.5-22.3l3.5-16.5l7.6-10c0,0,7-5.6,8.2-5.3c1.2,0.3,8.3-2.8,8.3-2.8s5.8-0.9,8.3-0.9
		s4.5,0,5.5,0s6,2,6,3s3,2,4,3c1,1,0.3,4.2,1.6,5.6s-1.6,10.3-1.6,10.3l-0.9,8.1l-0.1,6.8l0.8,3.2l4,2.6l4.1,1.2l5-1l2.6-4.5
		l0.5-7.3l-0.6-5.7l-1.6-9.4l1-10.9l7-10l7.3-5.3l9.6-1.7l10.3-1.8l11.9,1.2l10.6,2.7l8.3,7.8l5.1,8.5l2.5,8.6v7.3v11.2l-1.4,19.5
		l-9.2,2l-33-0.2l-16.2-0.7l-18.4-0.2l-8.3,1.8l-16.2,4.7l-6.6-1.7l-12.1,0H1720L1713.5,407.1z"/>
	<polygon class="st7" points="1577.3,259.8 1566.4,257.8 1559.4,255.8 1551.5,253.8 1545.5,250.9 1540.5,248.9 1538.6,244.9 
		1536.6,243.9 1529.6,240.9 1523.6,236.9 1520.7,236.9 1516.7,230.9 1516.7,226 1516.7,221 1516.7,218 1512.7,214 1509.7,213 
		1509.7,208.1 1507.5,203.5 1512.7,197.1 1516.7,192.1 1522.7,188.1 1527.6,182.2 1531.6,178.2 1533.6,171.2 1536.6,161.3 
		1537.3,152.8 1542.4,143.8 1547.8,136.6 1554.5,131.4 1562.4,123.4 1568.4,118.5 1577.3,111.5 1589.5,96.6 1603,85.1 1613.1,78.6 
		1623,73.3 1635,70.7 1640.9,65.7 1643.9,65.7 1648.9,71.7 1653.8,76.7 1659.8,80.6 1664.8,83.6 1669.7,87.6 1677.7,90.6 
		1684.6,94.6 1692.6,99.6 1699.5,102.5 1708.5,109.5 1717.4,114.5 1724.4,118.5 1735.3,125.4 1746.3,135.4 1750.2,143.4 
		1754.2,151.3 1756.3,161.3 1754.2,171.2 1751.2,180.2 1754.2,181.2 1768.1,182.2 1773.1,182.2 1777.1,182.2 1781,184.2 1785,188.1 
		1788,194.1 1788,202.1 1791,208.1 1791,215 1792,224 1788.7,229.2 1781,230 1774.1,232.9 1770.1,236.9 1763.2,240.9 1749.2,243.9 
		1735.4,246.9 1714.5,249.9 1696.6,252.8 1680.2,255.6 1666.8,255.8 1650.9,255.8 1640.9,255.8 1631,252.8 1622,256.8 1611.1,259.8 
		1600.2,259.8 1583.3,259.8 	"/>
	<path d="M1645.3,64.2c3.3,3.9,6.1,8.3,9.9,11.6c3.3,2.8,7.8,4.2,11.7,6.4c20.4,11.7,41.1,23,61.1,35.5
		c13.9,8.7,25.5,19.8,27.7,36.8c0.6,4.2,0.8,8.6,0.4,12.9c-0.4,4-1.9,7.9-3.1,12.4c7.3,0.3,14.5,0.7,21.8,0.9
		c7.6,0.2,13.1,4.6,14.1,12c0.7,5.4,1,10.8,1.9,16.2c0.7,4.1,1.8,8.2,3,12.3c0.3,1.1,1.3,2.4,2.4,3c4.2,2.3,8.4,4.8,12.9,6.2
		c17.8,5.7,34.3,13.5,48.5,25.4c0.9,0.7,2,1.2,3.2,1.6c11.5,3.8,20.4,11.3,29.3,18.7c4.2,3.4,6.3,7.9,6.7,13
		c0.5,5.7,0.4,11.5,0.7,17.2c0.2,3.6,0.5,7.2,0.9,10.8c1,9.2,2.9,18.4,3,27.6c0.2,11.4-1.6,22.8-1.5,34.1c0.1,6,2.4,11.9,3.6,17.9
		c0.5,2.2,1.3,4.5,1.1,6.7c-0.6,11.8,1.5,22.9,6.1,34c1.9,4.6,2.5,10.1,2,15.1c-2.1,18.9-5.1,37.7-7.4,56.5
		c-0.9,7-0.5,14.2-0.9,21.3c-0.4,6.4-0.3,13-1.8,19.2c-2.7,10.8-3.6,22.4-12.1,31.3c-1.1,1.2-2.2,2.6-3.6,3.1
		c-7.8,3.2-15.9,4.3-24.5,3.2c-5.3-0.7-10.8-1-16.1-0.6c-12.1,0.8-23.8-2.1-35.7-3.2c-12.2-1.1-24.6,0.7-36.9,0.9
		c-7.3,0.1-14.6-0.5-21.8-0.7c-7.6-0.3-15.4-1.7-22.7-0.4c-16.2,2.7-32.2,1.3-48.3,0.4c-4.1-0.2-8.2,1.1-12.3,1
		c-24.7-0.5-49.5-1.5-74.2-1.5c-7.8,0-15.7,2.4-23.5,3.9c-9.5,1.9-18.9,4.5-28.8,3c-2.8-0.4-5.9,0.5-8.8,0.8c-9.1,0.7-18.3,1-27.4,2
		c-4.3,0.5-8.3,2.1-12.6,3c-10.2,2.3-20.3,1.3-30.6,0.3c-11.4-1.1-22.8-0.1-34.3,1.9c-15,2.6-30.3,3.5-45.6,0.3
		c-10.5-2.2-21-2.4-31.6,0c-19,4.5-38,9.3-57.2,13.3c-8.2,1.7-16.8,1.6-25.3,2.3c-8.2,0.6-16.3,1.5-24.5,1.6
		c-10.4,0.1-20.9-0.2-31.4-0.7c-8.3-0.4-14.9-4.4-20.4-10c-0.9-0.9-1.4-2.6-1.4-4c-0.5-15.1-0.6-30.1-1.4-45.2
		c-0.3-6.1-2.1-12-3.2-18.1c-1.2-6.7-1.4-13.2,2.3-19.3c2.7-4.5-0.2-7.2-3.5-9.5c-10.8-7.6-16.6-18.5-17.8-30.4
		c-1.3-13.4-5.9-25.8-8.9-38.6c-0.4-1.7-1.5-3.2-2.4-4.7c-3.4-5.5-6.9-10.9-10.4-16.3c0-5.6,0-11.3,0-16.9
		c5.6-15.7,12.3-31.2,16.4-47.3c3.6-14.2,10.7-26.8,15.9-40.2c4.2-10.9,4.1-22.5-0.1-33.9c-0.7-1.9,0.5-5.3,2-6.8
		c2-2,5.2-3.3,8.1-4.3c12-4.2,24.1-8.5,36.3-12.3c10.7-3.4,21.7-6,32.5-9.3c13.1-4,26.1-8.2,39.1-12.4c1.7-0.6,3.5-1.8,4.5-3.2
		c10.8-14,25.9-23,41.1-31.9c18-10.6,36.9-18.9,57.8-22.8c9-1.7,15.5,1.9,17.5,10c0.1,0.5,0.1,1.2,0.4,1.4c8,3.9,4.7,9.7,2.8,15.3
		c-0.1,0.4,0.1,1,0.2,1.9c7.3-2.3,14.4-4.6,21.6-6.7c19.8-5.7,39.7-11,59.4-17.1c10-3.1,19.7-7.5,29.4-11.5c0.9-0.4,1.4-2.1,1.7-3.3
		c3.6-16.1,12.6-29.1,25.1-40.4c14.8-13.4,28.9-27.4,43.7-40.7c3.4-3.1,8.1-5,12.3-7.3c7-3.9,14.1-7.7,21.2-11.5
		c1.8-1,3.6-1.8,5.4-2.8C1641.9,64.2,1643.6,64.2,1645.3,64.2z M1633,249.1c0.7,1.1,1.2,3,2,3.1c14.4,1.9,28.9,3.4,43.5,1.1
		c13.5-2.1,26.9-4.1,41.2-6.2c-8.1-5.4-15.3-10.2-21-14.1c-3.9,1.3-6.7,2.9-9.6,3.1c-8.2,0.8-16.6,0.6-23.9-3.4
		c-5.7-3.1-8.9-0.7-12.4,2.6c-1.5,1.4-2.8,3.1-4.5,4.2c-5,3.3-10.2,6.5-15.4,9.7c0.8-1.1,1.4-2.5,2.4-3.3
		c7.8-6.2,15.7-12.2,23.8-18.5c-0.6-1-1.3-1.9-1.9-2.9c-9.3-15.5-18.5-31.1-27.8-46.5c-2-3.3-1.9-5.9,1.6-8
		c6.4-4,12.6-8.4,19.3-11.7c7-3.5,8.7-5.3,7.1-12.8c-1.8-8.4-4-16.8-6.2-25.1c-0.5-2.1-0.9-4.4-2.2-6.1c-8.8-11-9.4-24.6-14-37.4
		c-0.8,1.1-1.7,1.9-2.1,2.8c-4.1,8.9-8.1,17.8-12.2,26.7c-2.6,5.6-6.8,11-7.5,16.8c-1,9-6.2,15.3-12,21.3
		c-6.7,6.7-14.4,12.5-21.3,19c-12.1,11.5-11.5,25.7,0.7,33.6c4.7,3,10.1,5.2,15.1,7.8c3.8,2,7.9,3.7,11.1,6.4c1.7,1.4,2.7,5,2,6.9
		c-0.7,1.8-4.2,4.1-6.1,3.8c-7.5-0.9-14.9-2.7-22.4-4c-6-1-12-2.2-18-2.5c-2.1-0.1-4.3,2.2-6.4,3.4c1.4,1.5,2.5,3.7,4.2,4.3
		c8.6,2.8,17.4,5,26,7.8c7.2,2.3,14.3,5,21.1,8c6,2.7,9,10.1,7.3,16c-0.1,0.5-1.2,0.8-2,1.2c-0.3-0.8-0.8-1.2-0.7-1.6
		c1.8-7.5-2.1-12.6-8.9-14.9c-11.6-3.8-23.6-6.4-35.3-9.8c-5.4-1.6-10.5-3.7-15.7-5.9c-0.9-0.4-1.6-2.2-1.5-3.3
		c0.2-4.6,4.2-9,9.1-8.8c8.2,0.4,16.5,1.4,24.6,2.8c4.9,0.8,9.5,3.1,14.3,4.2c1.7,0.4,3.9-0.9,5.9-1.5c-0.9-2-1.2-4.7-2.7-5.8
		c-2.7-2-6.2-2.9-9.2-4.5c-6.2-3.3-13.4-5.6-18.2-10.2c-12.4-11.8-6.6-27.2,4.3-37.2c6.7-6.2,14.1-11.8,20.6-18.2
		c3.7-3.6,7.3-7.8,9.3-12.4c3.4-7.7,5.4-15.9,8.4-23.8c3.4-9,6-18.3,12.9-25.7c1.1-1.2,1.4-3,2.4-5.2c-5.4,2.3-9.8,4.3-14.3,6.1
		c-7.2,2.9-13.1,7.1-18.5,12.5c-10,10.2-20.6,19.8-31.2,29.4c-10.6,9.6-22.1,18.7-27.3,32.2c-3.2,8.4-4.3,17.6-6.8,26.3
		c-1.5,5.4-0.8,10.4,1.4,15.4c2,4.3,4.4,8.6,5.8,13.1c1.9,6.4,0.8,7.4-6.6,7.8c-5.2,0.2-10.4,0.5-16.1,0.7c0,2.1,0.1,3.7,0,5.3
		c-0.5,9.2,0.3,10.4,9.1,14.5c3.7,1.7,8,2.8,10.9,5.4c5.8,5.2,12.2,9.3,19.9,11c7.4,1.6,15,2.6,22.6,3.5c7.9,1,15.9,2,23.4-2
		c1.6-0.8,3.7-0.7,5.6-1c0.1,0.4,0.1,0.9,0.2,1.3c-1.7,0.8-3.4,1.6-5.1,2.3c0.2,0.4,0.3,0.8,0.5,1.2c5.4-1.6,10.9-2.9,16.1-4.9
		C1625.7,253.2,1629.2,251,1633,249.1z M1466.2,332.2c-13.4-8-33.1-5.3-41.5,7.1c-6.5,9.7-12,20.2-7.2,32.7c1.6,4.3,1.1,9.1-3.7,12
		c-4.1,2.5-8.5,2.2-12.2-0.7c-4-3.2-4-7.5-2.4-11.8c3.1-8.8,3.5-17.6,0.6-27c-12.2,3-24,5-35.7,0.2c11.5-4,23.2-2.2,36.3-0.9
		c-3.1-4.8-5.4-8.7-8.1-12.4c-2.9-3.9-6.9-5.6-11.9-3.9c-4.1,1.4-8.4,2.5-12,4.7c-9.7,6.1-20.4,7.8-31.5,6.6
		c-7.7-0.8-15.2-3.1-22.6-5.1c-6.7-1.9-12.6-2.7-18.4,2.6c-3,2.8-7.3,4.5-11.1,6.5c-10.4,5.5-14.9,12.1-11.9,22.5
		c0.7,2.4,1.2,5.1,0.6,7.4c-0.6,2.4-2.2,6-3.9,6.3c-3.2,0.6-7.7,0.2-10.1-1.7c-2.1-1.6-2.8-5.7-3-8.7c-0.2-2.3,1.3-4.8,2-7.2
		c1.9-6.5-0.6-11.5-5.5-16.1c-4.2-3.9-8.1-6.1-14.7-4.3c-5.8,1.6-12.6,1.7-18.1-2.1c0-0.7,0-1.3,0-2c6.5-0.4,13-0.8,19.5-1.2
		c-1.9-2.4-3.9-5-6.1-7.5c-2.2-2.6-4.3-5.3-6.8-7.5c-6.2-5.3-14.3-3-15.7,4.7c-0.9,5.1,0,10.5-0.6,15.6c-0.3,2.9-1.2,6.7-3.2,8.1
		c-2.2,1.4-6.7,1.5-9.1,0.2c-2.1-1.1-2.9-4.7-3.7-7.4c-0.4-1.4,0.8-3.2,1-4.8c0.6-4.9,1.8-9.9,1.4-14.7c-0.4-4.6-4.5-7.3-9.3-8.3
		c-4.9-1-6.1,2.8-7.6,5.9c-6.3,12.8-13.3,25.4-14.9,40.3c11.2-0.6,22.3-1.2,33.5-1.8c0.1,0.5,0.1,0.9,0.2,1.4
		c-2.1,0.5-4.2,1.2-6.3,1.4c-8.1,0.9-16.3,1.9-24.4,2.3c-3.9,0.2-5.3,1.4-6.2,4.9c-1.4,5.6-3.5,11-5.5,16.4c-1.3,3.5-3,6.9-4.5,10.4
		c3.8,1.5,7.1,2.3,9.8,4c5.4,3.6,10.1,3.2,15.2-0.7c2.2-1.6,5.5-3.6,7.7-3.1c7.8,1.8,15.6,2.3,23.6,2c11.4-0.4,22.4,3.3,34.1,1.5
		c12.5-1.9,25.3-1.6,37.9-2.2c0.7,0,1.5,0.1,2.1-0.2c4.5-2.7,8.6-1.1,12.8,0.7c11.3,5,22.4,5.4,34.3,1.1c5.8-2.1,13.6-2.6,19.4-0.7
		c14.9,4.9,29.7,4.5,44.9,3.3c2.5-0.2,5.4-0.1,7.7,0.9c6.7,2.7,13.1,2,19.8-0.3c2.4-0.8,5.5-0.9,8-0.3c4.5,1.1,8.8,3.2,13.3,4.4
		c2.5,0.7,5.4,0.7,8,0.6c12-0.5,22.7-7.6,35.6-4.7c9.2,2.1,19,1.8,28.6,2.1c10.9,0.3,21.9,0.6,32.8-0.2c6-0.5,11.2,0.2,16.8,2
		c4.5,1.4,9.4,2.5,14.1,2.3c7-0.3,13.9-1.8,21.7-2.8c-0.6-11.9-0.9-24.1-2-36.2c-0.2-1.9-3.5-5-5.6-5c-5-0.2-8.4,2.6-10.4,7.4
		c-3,7.3-1.1,14.3-0.2,21.5c0.3,2.7-1.3,7.1-3.6,8.4c-2.6,1.5-7.1,1.2-10.2,0.1c-3.7-1.3-3.8-5.3-3-8.7c0.6-2.7,2-5.3,2.5-8.1
		c3.6-18.1-6.6-31-27.4-35.9c-12.4-2.9-21.4,2.2-28.4,10.5c-6,7.1-6.1,15.8-1.5,24.3c3.2,5.8,1.3,13.7-3.6,16.7
		c-5.1,3.2-11.7,2-16.9-3.1c-5.3-5.1-2.6-10.4-0.8-15.8c4.5-13.3,3.2-25.9-5.9-37.1c-3.3-4-6.3-8.9-12.4-10
		C1469,333.2,1467.6,332.7,1466.2,332.2z M1587.5,458.5c-4.8,0.6-9.2,1.7-13.6,1.7c-13.4,0-26.8-0.3-40.2-0.6
		c-3.8-0.1-7.7-0.7-11.4-0.4c-8.3,0.7-16.5,1.6-24.7,2.7c-3.9,0.5-8,1.2-11.6,2.6c-7,2.9-14.1,4.4-21.7,4.2
		c-8.5-0.2-17.1,0.2-25.6,0.1c-29.8-0.1-59.6-0.1-89.4-0.4c-3.9,0-8.2-2.2-11.7-1.3c-6.5,1.5-12.4,0.2-18.5-0.9
		c-1.9-0.3-3.9-0.8-5.7-0.5c-8.7,1.4-17.5,2.6-26,4.6c-11.7,2.7-23,7.6-35.5,6.8c-2.4-0.1-4.9,0.2-7.3,0.5
		c-7.6,0.8-15.8,0.2-22.6,2.8c-11.7,4.4-22.7,3-34.3,1.1c-4.4-0.7-9-0.1-14.1-0.1c1.8,10,6.2,17,13.5,22.8c8.6,6.9,8.5,7.8,4.2,17.8
		c-1.2,2.8-2.5,6.1-2.2,9c2,15.6,4.3,31.1,6.9,46.6c0.3,1.8,3,4.8,4.5,4.8c10.6-0.1,21.2-0.9,31.7-1.5c3.5-0.2,6.9-0.6,11.1-1
		c-0.9,2.3-1.3,3.3-2.2,5.6c12.1-1.5,23-2.9,34-4.3c2.2-0.3,4.4-0.6,6.7-0.7c8.4-0.1,17.2,1.7,25-0.3c15.5-4,30.4-10.1,45.6-15.1
		c2.5-0.8,5.9-1.5,8.2-0.7c13.9,5.1,28.2,6.5,43,6.4c16-0.1,32,1.2,48,1.6c6.8,0.2,13.6,3,20.5-0.8c8.7-4.8,18.5-6.8,28.5-7
		c15.7-0.3,31.2-3.5,47.1-0.8c8.5,1.5,17.7-0.6,26.5-1.1c3.8-0.2,7.6-1,11.3-0.7c5.3,0.4,10.5,2.2,15.8,2.4
		c24.2,1.2,48.3,2.4,72.5,2.8c10.9,0.2,21.9-0.8,32.6-2.8c12.8-2.5,25.7-2.7,37.7,0.7c14.4,4.1,28.7,4.6,43.3,4.4
		c4.5-0.1,9.1-0.2,13.6,0c11.3,0.5,21.6-2.9,31.7-6.9c8.2-3.3,14.6-7.9,13.2-17.7c-0.1-0.8,0.3-1.6,0.5-2.4
		c3.5-19.3,5.5-38.8,3.2-58.3c-0.8-6.4-5.1-12.8-9.2-18.4c-1.8-2.5-6.8-3.8-10.5-4.1c-9.3-0.6-18.7,0.1-28.1-0.4
		c-9.5-0.4-19-1.6-28.6-2.3c-8.5-0.7-16.9-2-25.4-1.9c-9.2,0.1-18.3,1.8-27.5,2.3c-3.8,0.2-5.1,1.2-4.9,5
		c0.8,12.9,4.5,25.1,9.9,36.8c2.9,6.2,3.6,12.4,1.6,18.9c-2.6,8.3-9.8,13.3-18.7,13.3c-8.8,0-16.7-5-18.3-13.5
		c-1.1-5.4-0.5-11.5,0.8-17c3.3-13.8,7.2-27.5,7.5-42.4c-5.4-0.6-10.6-1.3-15.7-1.6c-9-0.6-18.3-2.2-27-1
		c-11.2,1.6-22.1,4.1-33.3,0.8c-3.4,13.3-8.5,17.6-19.3,16.8C1593.6,475.3,1588.8,470.1,1587.5,458.5z M1351.1,279.2
		c-2.4-1.7-4-3.7-5.7-3.9c-7.1-0.7-14.2-0.8-21.3-1c-5.3-0.1-10.6-0.1-16,0c-10.8,0.2-21.5,0.2-32.3,0.9
		c-10.2,0.7-20.6,0.9-30.4,4.8c-0.7,0.3-1.7,0-2.6,0c-18.3,0-36.6,0.1-54.9-0.1c-3.7,0-4.6,1.3-4.3,4.4c0.3,3.6,1.1,7.3,0.9,10.9
		c-0.4,6.6-0.7,12.1,7.7,15.5c9.1,3.8,9.3,12.1,7.4,20.6c-0.9,4.2-1.2,8.5-1.1,12.7c0.1,1.3,2.6,3.4,4.1,3.5
		c1.6,0.1,3.7-1.6,4.7-3.1c0.8-1.2,0.2-3.2,0.4-4.8c0.7-7.3,1.3-14.7,2.2-21.9c0.2-1.3,2-3.3,3.1-3.4c6.9-0.3,14.3-0.9,19,5.5
		c6,8.3,13.3,15.3,22,20.9c0.3,0.2,0.5,0.5,0.8,0.7c6.9,4.9,9.2,11.3,6.7,19.2c-0.9,2.8-2.1,5.8-2.1,8.7c0,2.1,1.1,5.3,2.8,6.2
		c2.1,1,5.6,0.8,7.7-0.2c1.2-0.6,1.2-4,1.1-6.1c-0.2-4.1-0.9-8.2-1.5-12.3c-1.1-7.5,4.4-11.6,9.5-15.4c6-4.5,12.4-8.4,19-12
		c2.6-1.4,6.4-2.4,9.2-1.8c6.7,1.5,13.1,4.2,19.7,6.2c12.1,3.7,24,3.6,35.3-2.7c3.2-1.7,6.3-3.8,9.7-4.8c17.3-5,22.2-2.4,28.6,10.2
		c6,11.7,5.9,23.8,1.8,36.2c-0.8,2.5,0.4,6,1.6,8.6c0.5,1.1,4.4,2,5.5,1.3c2.2-1.4,4.3-3.9,5-6.3c0.7-2.4-0.2-5.2-0.6-7.8
		c-2.4-14.6,1.6-27,13.8-36.6c12.6-9.9,39.1-9.5,50.6,1.2c16.5,15.3,21.1,30.3,11.5,51.7c-1.7,3.7-0.2,10,3.4,12.7
		c3.5,2.6,7.3,3,11.2,0.7c4.7-2.8,4.8-7,3.6-11.4c-0.6-2.4-2-4.7-2.4-7.1c-2.6-17.9-2.2-22.7,14.4-32.8c5.2-3.2,10.6-2.5,15.5-1.7
		c8.4,1.4,17.7,2.8,24.5,7.2c10.5,6.7,13.6,24.7,8.8,36.3c-1.5,3.6-1.7,7.3,1.9,9.9c1.1,0.8,3.8,0.9,5.1,0.2c3.6-2,2.6-5.4,2.4-8.8
		c-0.4-7-0.6-14.2,0.4-21.2c0.8-5.9,10.2-11.2,15.6-10c4.7,1,7.5,6.4,7.1,13.3c-0.2,2.6-0.1,5.3,0,7.9c0.3,13.1,1.1,26.2,0.9,39.2
		c-0.3,13.7-0.4,27.6-10.3,39.2c-1.1,1.2-1,3.8-0.6,5.6c1.7,6.5,9.6,10.9,16.4,8.9c12.2-3.6,12-11.6,6.3-22.3
		c-2.4-4.4-4.6-9.4-4.9-14.2c-1.4-19.5,1.9-38.6,5.7-57.7c1.3-6.3,4.9-10.5,10.3-13.6c11.1-6.3,23.1-9.4,35.9-7.6
		c8,1.2,16.1,2.8,23.5,5.7c8.2,3.3,13.5,9.7,14.2,18.7c0.7,10.1,1.7,20.1,2.1,30.2c1.2,30.6,3.5,61.1-7.9,90.9
		c-2.2,5.7-0.6,13.6,1.6,19.8c2.8,7.7,13.3,10,20.8,6.2c7.9-4,11.2-14.6,8.3-21.8c-4.1-10.1-8.6-20.5-9.9-31.1
		c-2.1-17.9-2.3-36-2.4-54c-0.1-13.9,0.7-27.8,2.2-41.6c0.7-6.3,2.7-13.4,6.6-18.4c10.5-13.5,25.6-16,42.1-12.5
		c4,0.8,8.4,7.2,7.8,11.1c-1.2,7.5-2.5,14.9-3.7,22.4c-0.7,4.3,1.8,7.1,5.7,8.4c4,1.3,7.3-0.6,8-4.3c0.7-3.4,0-7.1-0.2-10.6
		c-0.4-6.4-2.1-12.9-1.2-19c1.4-9.1,7.2-17,16.2-19.9c8.7-2.8,18.5-3.4,27.8-3.1c6.2,0.2,12.9,2.7,18.3,5.9
		c11.9,7.1,14.5,19.3,14.3,31.4c-0.5,21.5-0.9,43-11,63.1c-4,8-2.2,14.3,3.4,19c8,6.7,21.2,6.8,29.4,0.2c6.6-5.3,7.4-12.3,2.3-19.3
		c-0.8-1.1-1.3-2.3-1.7-3.6c-2.7-9-5.5-18.1-8-27.2c-5.2-19.3-7.9-38.5-2.7-58.4c2.3-8.7,8-14.9,14.4-20.1c2.8-2.3,9.2-0.8,13.9-1.1
		c0.3,0,0.5-0.4,1.3-1.2c-1.1-2.1-2.3-4.4-3.4-6.7c-0.6-1.3-1.5-2.7-1.4-4.1c0.3-4.7,1.6-9.4,1.5-14c-0.3-14.6-0.8-15.4-16.2-12.2
		c-8.9,1.8-17.7,2.4-26.7-0.8c-13-4.5-26.3-8.5-40.7-6.7c-4.6,0.6-9.5-1.5-14.3-1.7c-6.4-0.2-12.9-0.1-19.2,0.8
		c-6.2,0.8-12.6,2.1-18.4,4.4c-5.1,2-9.7,2.6-15.1,1.9c-6.5-0.8-13.4-1.7-19.6-0.5c-21.3,4.3-42.9,4.2-64.4,5.1
		c-3,0.1-6-0.3-8.9,0.1c-4,0.6-7.8,1.9-11.8,2.7c-1.7,0.3-3.6,0.2-5.4,0c-7-0.8-14-2.3-21-2.3c-12.9-0.1-25.7,1.2-38.6,1
		c-9-0.1-17.8-0.6-26.8,0.3c-13.6,1.4-27.5,2.7-41.1,1.7c-29.1-2.1-58.2-5.5-87.2-8.7c-8-0.9-16.3-2-23.7-4.7
		c-7.4-2.7-14.6-5.1-22.6-5C1364.4,274.1,1356.3,272.4,1351.1,279.2z M1714.4,409.9c0,14.7,0,29.6,0,44.5c0,2.9,1.8,3.2,4.1,3
		c5.9-0.5,11.8-1.2,17.7-1.5c8.6-0.4,17.3-0.9,25.9-0.4c9,0.5,17.9,2.4,26.9,2.9c14.4,0.7,28.8,0.7,43.1,1c6.6,0.1,16.5,7,17.7,13.1
		c1.5,7.8,2.9,15.6,3.3,23.5c0.8,20.3-3.5,40.1-6,60.1c-0.1,1-0.7,2.3-1.6,2.8c-12,7.6-25,12.9-39.7,13.3
		c-9.7,0.3-19.5,0.3-29.2,1.1c-9,0.8-17.4-0.1-25.9-3.4c-13.2-5.2-27.5-5.7-41.1-2.5c-17.8,4.2-35.7,2-53.5,3.3
		c-11,0.9-22.3-0.7-33.4-1.7c-12.8-1.1-25.8-0.2-38.2-4.3c-0.9-0.3-2-0.2-3.1-0.2c-11.1,0.7-22.1,1.4-33.2,2.2
		c-4.1,0.3-8.3,0.8-12.4,1.5c-9.3,1.7-18.5,5.5-27.7-0.7c-1.1-0.7-3-0.5-4.6-0.5c-11.9,0-22.8,3.7-33.5,8.3c-1.7,0.8-3.9,1-5.9,0.9
		c-14.2-0.8-28.5-2.1-42.7-2.7c-20.4-0.8-41.1,1.7-60.8-6.1c-1.7-0.7-4.2-0.6-6,0c-13.3,4.4-26.5,8.8-39.6,13.8
		c-6.9,2.6-13.8,3-21,2.7c-2.9-0.1-5.9-1.1-8.8-0.8c-6.3,0.6-12.6,2.7-18.9,2.7c-17.4,0-34.8,3.9-52.4-0.5
		c-6.1-1.5-13.1-0.2-20.1-0.2c0,4.2-0.4,7.9,0.1,11.4c0.3,2.2,1.5,4.6,3,6.3c6.6,7,15.5,9.6,25,9.4c15.5-0.3,30.9-0.9,46.3-2.1
		c11.2-0.9,22.4-2.3,33.4-4.5c12.4-2.4,24.6-5.7,36.9-8.9c14.6-3.8,29.3-5.1,44.3-2.4c15.3,2.7,30.3,2,45.6-0.6
		c10.5-1.8,21.5-1.3,32.2-1.4c7.9-0.1,16.4,2.2,23.8,0.3c18.2-4.7,36.9-4.5,55.4-5.8c10.7-0.7,21-1.9,31.4-4.3
		c8.9-2.1,17.8-4.4,27.2-3c4.4,0.7,9,0.9,13.5,0.9c16.4,0.1,32.7,0,49.1,0c3.1,0,6.2,0.3,9.3,0.2c6-0.1,12.1-0.5,18.1-0.5
		c9.7,0,19.5,1,29.1,0.4c13.2-0.9,26.2-3,39.5-0.2c5.4,1.1,11.5,0.9,16.9-0.1c13.7-2.5,27.4-0.9,41.1-0.6c1,0,2.1,0.4,3,0.8
		c8.6,3.5,17.7,3.2,26.8,3c6.2-0.1,12.5-0.2,18.6,0.4c18.1,1.8,26.4-4.4,31.7-20c5.3-15.6,5.6-31.7,6.6-47.8
		c1.1-17.1,4.1-34.1,6.2-51.2c1.1-9.1,3-18-0.9-27.3c-3.2-7.8-3.9-16.6-5.5-25c-1.1-6-2-12-2.8-18c-0.9-6.2-2.9-12.6-2-18.6
		c2.1-14.7,1.9-29.4,0.5-44.1c-0.3-3.1-2-4.4-4.6-4.1c-4.8,0.5-9.4,1.1-13.3,4.8c-12.5,12.3-13.8,27.8-12.1,43.1
		c2.1,20.1,8.1,39.5,16.9,58.1c2.9,6.2,2.5,13.1-1.8,19c-6.6,9.2-22.5,11.9-33.6,5.9c-10-5.4-12.6-15.3-7.4-26.8
		c3.9-8.8,7-17.8,7.9-27.9c-5.7,0.6-10.9,1.8-16,1.7c-18.8-0.4-37.5-1.4-56.3-1.7c-3.8-0.1-7.5,1.8-11.3,2.7
		c-4.3,1-8.6,2.7-12.9,2.8C1740.5,410.2,1727.8,409.9,1714.4,409.9z M1150.8,398c-3.2,12.2-2.6,22.5,6.3,31.5
		c2.1,2.1,4.5,4.6,5.1,7.2c3,12.9,5.5,25.8,8,38.8c0.6,3.3,2.3,4.1,5.7,3.8c4.7-0.4,9.6-0.1,14.4,0c7.7,0.3,15.9,2.4,23.1,0.7
		c10.2-2.5,20.3-4,30.7-4.6c11.9-0.8,24.1-0.4,35.2-5.8c1.5-0.7,3.3-0.9,5-1.2c7.5-1.2,15-2.5,22.6-3.6c4.2-0.6,8.4-1.1,12.6-1.1
		c4.1,0,8.2,0.6,12.3,0.9c9.4,0.6,18.7,1.6,28.1,1.8c15.6,0.3,31.3,0.1,47,0.2c7.7,0.1,15.3,0.8,23,0.7c11-0.1,22-0.3,32.9-1
		c6.2-0.4,12.6-1,18.3-3.1c6.6-2.4,13.1-4.3,20.2-3.8c2.2,0.2,4.5-0.4,6.7-0.5c9.3-0.8,18.6-2,27.9-2.2c10.4-0.2,20.9,0.8,31.3,0.7
		c6.7-0.1,14.2,0.3,19.9-2.4c4.5-2.1,7.9-8.3,9.5-13.3c2.1-6.5,2.5-13.7,2.8-20.6c0.5-14.4-0.7-15-15.8-12.1
		c-4.9,0.9-10.7,2.2-14.9,0.6c-9.2-3.6-18.1-3.3-27.8-3c-17.3,0.5-34.8-1.2-52.1-2.2c-8.2-0.5-16-1.1-24.3,1.8
		c-9.7,3.4-20.4,5.4-30.8,0.1c-5.9-3-12.2-3.4-18.4-0.2c-1.1,0.6-2.7,0.5-4,0.2c-11.3-2.3-22.6-2.6-34.2-1.4
		c-9.4,0.9-18.6,0.3-27.4-4.1c-6.3-3.2-13.5-1.8-19.8,0.5c-11.7,4.2-23,5-34.5-0.5c-2.7-1.3-6-2.5-8.9-2.3
		c-9.9,0.6-19.8,1.9-29.8,2.6c-7.6,0.6-15.3,0.9-22.9,1c-4.9,0.1-9.9-0.5-14.8-0.9c-3.3-0.3-6.5-0.9-9.8-1.1
		c-5.8-0.3-11.8,0.5-17.3-0.7c-5.6-1.2-10.4-1.8-14.9,2.4c-1.2,1.1-2.8,2.1-4.5,2.5c-2.1,0.5-4.6,1-6.5,0.3
		C1160.9,402.8,1156.1,400.4,1150.8,398z M1326.6,270.4c8.9,0.9,17.5,3.7,25.1,2.1c7.8-1.6,15.4-1.8,23-1.1c6.8,0.6,13.5,2.4,20.1,4
		c3,0.7,5.6,3.1,8.6,3.5c15.6,2.3,31.3,4.6,47,6.3c18.3,1.9,36.7,3.6,55.1,4.5c11.4,0.5,22.9-0.4,34.4-1.1
		c8.1-0.5,16.4-2.8,24.4-2.1c14.1,1.3,28.1,2.8,42.1,0.4c12.9-2.2,25.7,2.8,38.5-0.7c0.6-0.2,1.4,0,2.1,0c6.6,0,13.3,0.3,19.9-0.1
		c5.6-0.3,11.2-1.5,16.9-1.8c3.4-0.2,6.9,1,10.3,0.7c5.9-0.5,11.6-1.8,17.5-2.7c11.7-1.9,23.4-3.4,35.3-0.8c1.9,0.4,4.6-0.2,6.4-1.2
		c6.5-3.8,13.5-5,21-4.9c5.1,0.1,10.1-0.3,15.2-0.2c5.5,0,10.9,0.3,16.4,0.4c3,0,6-0.2,9.1-0.5c1.7-0.1,3.5-1,5.1-0.6
		c8.3,1.7,16.5,3.6,24.8,5.5c7,1.6,14,4.6,21.1,4.8c7.8,0.2,15.6-2.1,24.8-3.5c-2.7-2.2-4.7-4.3-7.1-5.8
		c-15.3-9.7-30.2-19.9-46-28.6c-10.7-5.9-22.7-9.7-34.1-14.5c-2.5-1.1-4.9-2.5-7.5-3.5c-1.1-0.4-2.5-0.5-3.6-0.3
		c-3.8,0.8-7.5,1.8-11.2,2.9c-1.8,0.5-3.8,1.2-5.1,2.5c-3.8,3.6-7,7.4-13,8.4c-19.7,3.3-39.3,7.2-59,10.6c-23,4-46.1,6.5-69.4,2.5
		c-2.7-0.5-5.8,0.7-8.5,1.5c-6.1,1.7-12.1,4.9-18.2,5.1c-16.9,0.6-33.8,0.2-50.2-4.4c-4.1-1.2-8.2-2.6-12-4.3
		c-3.8-1.8-7.1-4-10.1-7.2c-2.7-3-7.8-4-11.9-5.8c-7.6-3.3-10.1-7.3-8.3-14.9c1.2-4.9-0.4-7.9-4.3-10.6c-1.3-0.9-3-2.3-3.1-3.6
		c-0.4-5.2-1-10.6,3.6-14.9c3-2.8,5.8-5.7,8.6-8.6c3.9-4,7.8-8.1,11.6-11.9c-35.1,10.5-70.1,21-105,31.4c0.2,0.6,0.3,1.2,0.5,1.8
		c2.2-0.4,4.4-0.8,6.6-1.2c6.1-1,12.2-2.5,18.4-2.9c5.2-0.3,10.6,0.5,15.9,0.9c6.7,0.5,13.5,1.1,20.2,1.7c0.4,0,0.7,0.4,1.4,0.9
		c-1.4,0.5-2.4,1-4.2,1.7c7.1,4.1,7.4,9.9,4.9,16.5c2.1,0,3.6,0,5.1,0c0,0.3,0,0.5,0.1,0.8c-3.5,0.8-7.1,1.7-11,2.6
		c7.3,5.6,10.4,11.8,6.8,16.7c-3.6,5-9,8.9-13.2,12.8c4.9-0.8,10.9-1.7,17-2.6c0.1,0.7,0.2,1.4,0.3,2.2c-5.4,0.6-10.8,1.3-16.2,1.8
		c-3.4,0.3-6.8,0-10.3,0.2c-6.9,0.3-14.1,2-20.6,0.6c-5.4-1.2-8.7,0.5-12.6,2.9c3.9,0,7.9,0,11.8,0c-1.6,0.7-3.1,0.8-4.7,0.7
		c-7.6-0.6-15.6,2.2-22.5-3.1c-0.6-0.4-2.1-0.4-2.8,0c-9.6,6.2-19.6,1.3-29.4,1.3c-2.1,0-4.1,0.5-6.2,0.5
		c-3.8,0.1-10.5,1.1-11.1-0.2c-2.9-6.6-8.9-4.2-13.5-5c-1.3-0.2-3.3,3-5,4.6c1.5,1,2.9,2.2,4.5,3c1.1,0.5,2.4,0.6,3.6,0.9
		c-0.1,0.4-0.1,0.9-0.2,1.3c-6.3-0.3-12.7-0.7-19-0.8C1336.2,267.3,1330.9,265.2,1326.6,270.4z M1665.1,87.4c3,2.9,5.1,5.4,7.6,7.2
		c15,11,31,20.5,37.3,39.6c4.4,13.3,6.5,25.8,2.2,39.1c-0.6,1.9-1.8,4.1-3.5,5.2c-8.3,5.6-16.9,11-25.4,16.4
		c-6.3,4-11.7,8.7-13.7,16.1c-1.6,5.8-0.3,10.5,5.1,13.1c5.6,2.6,11.2,3.5,17.4,0.1c8.2-4.5,16.9-8.2,25.5-12.1
		c4.2-1.9,5.8,2,8.1,3.9c0.6,0.5-0.8,3.1-1.1,4.8c-0.2,1,0,2.1,0.1,3.1c0.2,1.7,0.9,3.6,0.6,5.2c-1.1,6.1-0.1,8,6.4,8.1
		c3.3,0.1,7-0.7,10-2.1c7.3-3.4,14.3-7.4,21.4-11.3c4-2.2,11.8-2.2,13.3,0.7c2.3,4.6,5.7,4.8,9.8,2.8c4.1-1.9,5.2-6,4-10.3
		c-1.5-5.6-2.9-11.4-3.4-17.1c-0.4-6-2.7-10.9-7.1-14.9c-2.8-2.5-5.5-2.7-8.3,0.5c-4.2,4.8-8.2,9.9-13.2,13.8c-3.8,3-8.9,5.6-13.7,6
		c-3.6,0.3-8.5-2.2-11.1-4.9c-3-3.1-1.4-7.8,1.5-10.9c2.9-3.2,6.6-5.8,9.9-8.6c1.3-1.1,3-1.9,3.8-3.2c4.3-6.8,5.5-14,4-21.9
		c-2.9-15.8-13.7-26.5-26.7-34.7c-18.9-12-38.9-22.7-58.4-33.9C1667.4,87.1,1667,87.3,1665.1,87.4z M1714.3,406.6
		c5.3,0,9.8,0,14.3,0c7.6,0,15.2-0.5,22.7,0.4c5.5,0.7,9.8-0.3,14.2-3.1c1.8-1.1,4.1-1.9,6.2-2c11.6-0.2,23.2-0.1,34.7-0.1
		c0.7,0,1.4,0,2.1,0.2c11,2.8,22.1,1.7,33.2,0.7c7.1-0.6,9.5-3.1,9.9-10.2c0.2-4-0.5-8.1,0.4-11.9c1.9-8.7,0.1-16.9-2.8-24.8
		c-1.3-3.7-4-7.4-7.1-10.1c-10-8.9-22.1-9.1-35.1-7.6c-20.9,2.4-28.1,19.3-25,34.8c1,4.8,1.4,9.8,1.4,14.8c0,2-1.7,5.3-3.1,5.6
		c-4.1,0.6-8.7,0.9-12.4-0.4c-4.1-1.5-6-5.2-4.7-10.2c1.6-6.4,2.9-12.9,3.4-19.5c0.6-6.8-3.5-10.4-10.6-11.5
		c-10.2-1.6-19,1.5-26.8,7.2c-3.5,2.5-6.8,6-8.5,9.8C1715.4,380.4,1714.6,393.2,1714.3,406.6z M1689.2,232.3c-6-2.1-12.7-4.4-19.3-7
		c-1.5-0.6-3.3-2.4-3.5-3.8c-1.3-10.8,1.1-21.4,12.3-28.1c6.5-3.9,13.3-7.2,19.6-11.4c4-2.7,8.5-5.9,10.3-9.9
		c8.9-19.8-1.6-36.5-10.5-53.4c-0.3-0.6-1-0.9-1.5-1.4c-8.3-6.8-16.6-13.5-24.9-20.3c-2.1-1.7-3.9-3.6-5.8-5.5
		c-4-4.1-7.9-8.3-12.1-12.2c-3.5-3.4-7.4-6.4-11.6-10.1c-3.4,1.2-6.1,6-4.5,9.4c1.7,3.5,3,7.2,4.5,10.8c2.7,6.6,4.7,13.5,8.2,19.6
		c3.3,5.6,5.4,11.2,6.2,17.5c0.7,5.9,1.3,12.1,3.7,17.4c3.3,7.3,1.5,13.4-5.9,16.9c-5.7,2.7-11.1,6-16.2,9.7
		c-3.8,2.7-4.9,6.5-2.2,11c8.7,14.1,17,28.4,25.8,42.5C1666.8,231.9,1680.9,235.5,1689.2,232.3z M1366.8,235.2
		c0.7-0.2,1.4-0.4,2.1-0.6c1.3,2,3,3.8,3.8,6c1.5,3.9,3.5,3.2,5.5,0.8c1.2-1.3,1.9-3.2,2.3-4.9c0.7-3.2,1.1-6.4,1.6-9.6
		c10.6,1.3,10.6,1.3,14.5-9.1c6.8-0.8,6.6-0.8,10.3-7.1c1-1.7,2.9-3.2,4.8-4c3.6-1.5,8.1-7.6,6.9-11c-1.5-4-5.6-3.7-9.2-3.6
		c-0.7,0-1.4,0-2.1,0.2c-9.3,3.1-18.7,6-27.9,9.5c-3.8,1.4-6.8,4.5-10.5,6.3c-19.6,9.6-37.5,21.1-51.5,37.5c-0.3,0.4-1,0.5-1.5,0.8
		c-0.4-0.3-0.8-0.6-1.1-0.9c2.8-3.8,5.1-8.2,8.7-11.2c7.1-5.9,14.8-11.4,22.7-16.4c8.4-5.3,17.2-9.9,26-14.5c6.5-3.3,13.2-6.3,20-9
		c4-1.6,8.3-2.7,12.4-3.9c-0.1-0.6-0.2-1.1-0.2-1.7c-2.6,0-5.7-0.8-7.9,0.1c-11.8,4.9-23.3,10.3-34.9,15.4c-1.7,0.8-3.7,1.2-5.5,1.8
		c-0.1-1.5,0.1-2,0.5-2.2c12.5-5.7,25.2-11.1,37.6-17c5.1-2.4,9.1-1.4,13.4,1.4c1.7,1.1,4.1,1.3,6.1,2c0.2-2.7-0.1-4.3-1-5.6
		c-4.1-5.9-10.2-4.8-15.9-3.6c-14.8,3.2-28.8,8.6-41.9,15.9c-9.1,5.1-18.9,9.4-27.1,15.6c-9.3,7-17.7,15.3-25.3,23.9
		c-3.3,3.8-4.6,9.7-5.4,14.9c-0.7,4.5,2.9,6.9,8.1,6.6c0.4-2.6,0.7-5.2,1.1-7.9c0.7,0,1.3,0.1,2,0.1c0,3.9,0.7,7.9-0.2,11.5
		c-1.6,6.4,0,9,6.9,9.5c3.9,0.3,6.6-0.9,9.3-3.7c1.6-1.7,4.5-2.6,6.9-3.2c1.9-0.5,4.2-0.1,6.2-0.1c7.2-0.1,12.4-3.7,15.3-9.4
		c1.2-2.3-0.3-6-0.6-9c0-0.2,0.4-0.5,1.6-2.1c1.7,4.2,3,7.5,4.9,12.1c3-2.1,6.1-3.8,8.5-6.1C1371.5,245.3,1370.1,240.2,1366.8,235.2
		z M1698.2,410.2c-8.9,0-16.8-0.7-24.5,0.2c-9.9,1.1-19.3,0.1-28.9-2.5c-4.5-1.2-9.8-1.8-14.3-0.7c-5.7,1.3-10.9,5.2-17.3,1.6
		c-2,12.1-3.8,23.2,0,34.2c2.3,6.6,5.1,13.5,13.8,14.3c5.8,0.6,11.8,0.8,17.4-0.3c10.7-2.1,21.2-2,32-0.9c7.2,0.8,14.4,1.2,21.7,1.7
		C1698.2,441.6,1698.2,426.2,1698.2,410.2z M1435.7,222.2c-0.1-0.3-0.1-0.6-0.2-0.9c3-0.9,6.3-2.8,9-2.4c10.3,1.8,21.1,1.6,30.8,6.2
		c1.2,0.6,2.7,1.5,3.9,1.3c2.5-0.6,5.4-1.3,7.2-2.9c1.3-1.1,2-4.7,1.1-5.7c-2.7-2.9-6-6.5-9.5-7.1c-9.8-1.8-20.1-3.8-29.9-2.9
		c-10,0.9-19.7,4.8-30.2,3.1c-1.3-0.2-3.1,1-4.3,2c-2.7,2.4-5.1,5-7.8,7.8c3,0.2,5.1,0.4,7.2,0.6c0,0.6-0.1,1.2-0.1,1.8
		c-4.4,0-8.9,0-13.3,0c-1.4,7.8-2.3,8.6-11,9.2c-0.3,0-0.8-0.1-1,0c-0.7,0.5-1.4,1.1-2,1.7c0.7,0.6,1.4,1.6,2,1.6
		c2.2,0,4.6-0.1,6.6-0.8c5-1.8,9.7-4.3,14.7-6.1c10.1-3.7,20.6-1.5,31-1.6c0.2,0,0.4,0.5,1.2,1.5c-2.1,0.2-3.6,0.4-5.2,0.4
		c-5.8,0-11.5-0.2-17.3,0.1c-3.2,0.2-6.7,0.8-9.4,2.3c-6.4,3.5-12.8,6.4-20.3,6.7c-1.2,0-2.3,1-3.4,1.5c21.2,0.5,22.2,0.6,27.1,4.6
		c-3.9-0.6-6.5-1-9.1-1.5c-6.4-1.2-12.7-2-18,3.1c-1.1,1.1-3.4,1.4-5.1,1.4c-2.3-0.1-4.5-0.8-6.4-1.2c-0.9,2-1.4,3.4-2.2,4.7
		c-1.6,2.6-2.4,5,0.2,7.6c3.7,3.8,7.8,1.4,11.7,0.8c3-0.5,3.4-2.7,3.3-5.2c-0.1-1.5,0.5-3,0.8-4.6c0.6,0.1,1.3,0.2,1.9,0.3
		c0,3.5,0,7.1,0,10c8.2,5,7.3-4.6,12.1-6.2c-0.2,1.6-0.1,2.6-0.6,3.3c-2.4,4.1,0.4,5.4,3.6,5.2c3.1-0.2,6.1-1.9,9.2-2.7
		c2.2-0.6,5.2-1.7,6.6-0.8c6.6,4,12.5,1.7,18.7-0.4c2.3-0.8,5.2-1.3,7.4-0.6c11.6,3.9,31.1-0.9,39-9.8c4.4-5,3.1-10.7-3.2-13.3
		c-2.1-0.9-4.7-0.7-7.1-1.2c-3.4-0.7-6.8-1.6-10.1-2.4c0.2-0.5,0.3-1.1,0.5-1.6c4.4,0.7,8.7,1.4,13.1,2.1c0.1-0.5,0.3-1,0.4-1.6
		c-4.8-1.7-9.5-3.7-14.4-4.9c-4.8-1.2-9.8-1.9-14.8-2.2C1445.4,221.9,1440.5,222.2,1435.7,222.2z M1612.9,405.6
		c5,2.6,8.5,2.4,12.4,0.3c4.1-2.2,8.7-4.5,13.1-4.8c10.8-0.7,21.6-0.4,32.4-0.1c2.9,0.1,5.8,1.3,8.6,2c-0.1,0.5-0.2,0.9-0.3,1.4
		c-9.1,3.3-18.4,0.1-28.8,0.7c4,1.2,7.1,2.9,10.1,3c10.8,0.2,21.6-0.3,32.4-0.3c3.9,0,5.3-1.6,4.8-5.1c-0.9-6.7-1.6-13.5-2.3-20.2
		c-0.7-6.3-4.7-10.5-9.6-14.1c-8.9-6.7-19.7-8.6-30.5-8.6c-12,0.1-23.1,4.4-32.8,11.5c-1,0.7-2.2,1.8-2.5,2.9
		C1617.6,384.7,1615.2,395.3,1612.9,405.6z M1294.8,238.5c-37.1,13.1-74.9,21.3-110.1,37.1c4.4,1,8.7,1.5,13,1.5
		c12.2,0.1,24.3,0.1,36.5,0.1c3.3,0,7,0.4,9.7-0.9c12.6-6.2,26.4-4.3,39.7-5.8c4.1-0.5,8.3,0.1,12.5,0.5c6.8,0.7,7.3,0.3,7.7-6.3
		c0.1-1.1,0-2.2,0-3.3c-8.6-0.8-10.2-2.4-10-10.6C1293.8,247.1,1294.3,243.4,1294.8,238.5z M1719.8,215.3
		c-9.3,1.5-14.8,8.4-23.1,13.1c7.5,4.9,14,9.1,20.5,13.4c5.4,3.6,11.1,3.9,17.3,2.6c8-1.7,15.9-3.8,24-4.8
		c6.8-0.9,10.9-4.7,14.6-9.3c2.2-2.7,0.8-5.2-2.8-5.2c-1.6,0-3.5,0.5-4.9,1.3c-8,4.6-15.9,9.4-23.9,14.1c-8.6,5.1-20.7-0.2-21.6-9.7
		C1719.4,225.8,1719.8,220.7,1719.8,215.3z M1528.2,184.5c-5,5.2-10.6,10.6-15.6,16.5c-4.9,5.8-2.9,10.6,4.7,12.4
		c3.8,0.9,7.9,1.1,11.9,1.1c7.3,0.1,8.1-1.2,6.1-7.6C1533,199.6,1530.7,192.3,1528.2,184.5z M1770,184c-5-0.5-8.4-0.7-11.8-1.3
		c-7.9-1.4-14.1,0.4-18.4,7.5c-2.5,4-2.1,6.9,1.3,10c3.5,3.2,6.7,2.8,10-0.3c3.7-3.5,7.2-7.1,11-10.5
		C1764.2,187.6,1766.6,186.3,1770,184z"/>
	<path d="M1470.4,333.8c-0.2,0.9-0.2,2.5-0.6,2.6c-10.2,2.1-20.1,1.5-29.8-2.6c8.4-5.8,17.4-1.9,26.2-1.6
		C1467.6,332.7,1469,333.2,1470.4,333.8z"/>
	<path d="M1422.6,516.4c2.4-0.5,4.9-1.3,7.3-1.3c32.4-0.3,64.9-0.4,97.3-0.7c1.9,0,3.8-0.4,5.6-1c13-4.5,26.4-4.3,39.8-3.1
		c1.6,0.1,3.2,0.9,4.8,2.5c-3.6,0.7-7.2,1.8-10.9,2.1c-11.6,1.1-23.2,2.5-34.9,2.9c-33.6,1.2-67.3,1.9-100.9,2.7
		c-2.7,0.1-5.4-1.2-8.1-1.8C1422.6,518,1422.6,517.2,1422.6,516.4z"/>
	<path d="M1286.1,547.3c3.8-0.4,7.7-0.8,11.5-1.3c7.8-0.9,16-0.6,23.2-3.2c14-5,28.9-3.5,43-7.4c4.3-1.2,9.4-0.2,14.1-0.2
		c0.1,0.5,0.2,1,0.3,1.4c-3,1.2-5.8,2.9-8.9,3.4c-11.5,2-23,3.5-34.5,5.5c-9.6,1.6-19,4-28.6,5.3c-5.6,0.7-11.4-0.1-17.1-0.3
		c-1,0-2-0.9-3-1.3C1286,548.6,1286,547.9,1286.1,547.3z"/>
	<path d="M1207,503.8c2.9-0.6,5.9-1.3,10.3-2.3c-6.5-0.3-11.5-0.6-17.2-0.9c7.6-3,56.7-6.8,62.6-4.6c-3.9,1-6.9,1.8-10,2.6
		c0,0.2,0,0.5,0,0.7c6.1,0,12.3,0,18.4,0c0,0.5,0,0.9,0,1.4c-21.2,3.1-42.5,5.9-64.1,4.8C1207.1,504.9,1207.1,504.3,1207,503.8z"/>
	<path d="M1748.9,488.3c2.2-1,4.3-2.7,6.7-3c23.1-3.4,46.2-6.1,69.6-4.1c2.1,0.2,4.2,0.8,6.3,1.2c0,0.6,0,1.2-0.1,1.8
		c-27.3,2.2-54.6,4.4-82,6.5C1749.3,490,1749.1,489.2,1748.9,488.3z"/>
	<path d="M1766.7,507.3c-1-3.7,1.2-5.6,4.9-5.9c12.7-0.8,25.3-1.6,38-2c2.6-0.1,5.3,1.1,7.9,2.6c-14.6,5.8-30.5,1.8-44.5,6.8
		c-1.6,1.3-2.9,3.5-4.7,3.8c-6.3,1.1-12.8,3-19.2-2C1754.4,505.7,1760.5,508.8,1766.7,507.3z"/>
	<path d="M1516,479.3c-31.4,1.3-62.8,2.6-94.2,3.9c-0.1-0.5-0.2-0.9-0.4-1.4c1.6-0.7,3.1-1.9,4.8-2.1c29.1-3.9,58.4-4.6,87.7-2
		c0.8,0.1,1.5,0.5,2.3,0.7C1516.1,478.7,1516.1,479,1516,479.3z"/>
	<path d="M1738.4,553.9c-16.5,1.5-32.9,2.9-49.4,4.5c-5.7,0.6-11.4,1.7-17.1,2.1c-2.7,0.2-5.4-0.7-9-1.3
		C1670.7,552,1723.7,548.3,1738.4,553.9z"/>
	<path d="M1469.7,502.2c4.3,0,8.7,0,13,0c0,0.3,0,0.5,0,0.8c-29.1,1-58.3,1.9-87.4,2.9c0-0.6,0-1.2,0-1.8c9.4,0,18.8,0.1,28.1-0.1
		c1.8,0,4.4-0.2,5.3-1.2c3.5-4.1,8.2-4.7,13.1-4.9c7.1-0.3,14.3-0.6,21.4-0.4c2.4,0.1,4.7,2,7,3
		C1470.1,501.1,1469.9,501.6,1469.7,502.2z"/>
	<path d="M1506.5,543.8c-25.9,2.4-51.8,4.9-78.4,7.3C1432.2,545,1491.7,539.3,1506.5,543.8z"/>
	<path d="M1254,559.2c-18,2.4-36,4.8-54.1,7.2c-0.3-0.7-0.6-1.5-1-2.2c1.4-1.1,2.5-2.9,4.1-3.3c15.9-3.7,32-6.5,48.5-4.6
		c0.8,0.1,1.6,0.5,2.3,0.8C1253.9,557.8,1253.9,558.5,1254,559.2z"/>
	<path d="M1640.3,473.4c16,0,31.4,0,47.9,0c-4,4.7-37.7,9-47.4,7.2c1.6-1.4,2.9-2.5,4.5-3.9C1643.6,475.6,1642.2,474.6,1640.3,473.4
		z"/>
	<path d="M1535.1,545.3c27.4-1.6,54.8-1.8,82.1,0.4C1610.1,548.9,1543.6,548.7,1535.1,545.3z"/>
	<path d="M1808.2,558.2c-3.3,0.7-6.6,1.8-10,1.9c-11.1,0.1-22.3-0.1-33.4-0.6c-3.2-0.1-6.4-1.4-9.5-2.5c-0.9-0.3-1.3-1.7-1.9-2.6
		c1-0.4,2-1.1,3-1.1c13.4,0.4,26.8,0.9,40.1,1.5c3.9,0.2,7.7,0.9,11.6,1.4C1808.2,556.8,1808.2,557.5,1808.2,558.2z"/>
	<path d="M1297.2,494.3c7.2-4.9,52-7.8,60.8-3.9C1346.5,494.1,1302.2,496.9,1297.2,494.3z"/>
	<path d="M1246.2,532.7c-7.7,1.8-14.2,3.4-20.7,4.8c-8.8,1.8-17.7,3.5-26.5,5.1c-1.1,0.2-2.4-0.7-3.6-1c0.5-0.9,0.8-2.1,1.6-2.8
		C1203.9,533.5,1236.2,529.1,1246.2,532.7z"/>
	<path d="M1289.2,529.3c-15.5,5.6-31.5,8.9-48.9,9C1244.9,532.2,1279,526,1289.2,529.3z"/>
	<path d="M1385.9,505.4c-4,0.9-6.8,1.8-9.6,2.1c-10.7,1-21.4,1.9-32.2,2.6c-1.4,0.1-2.8-1.1-4.2-1.7c0.8-0.9,1.5-2.5,2.5-2.7
		c13-3.2,26.2-5,39.6-2.2C1383,503.7,1383.8,504.3,1385.9,505.4z"/>
	<path d="M1545.7,485.8c22.9-2.9,45.7-2,68.2,4.1c-22.7-0.8-45.4-1.6-68.1-2.4C1545.8,486.9,1545.8,486.4,1545.7,485.8z"/>
	<path d="M1544.5,471.5c3.4-6,32.4-8,41.6-2.9C1581.6,472.3,1550.4,474.5,1544.5,471.5z"/>
	<path d="M1564,502.2c-12.6,6-39.3,6.3-47.8,0.3C1532.8,500.4,1548.4,501,1564,502.2z"/>
	<path d="M1344.5,517.5c-7.4,5.9-35,9.1-40.2,4.9C1307.9,518.1,1336.8,514.4,1344.5,517.5z"/>
	<path d="M1288.2,570.3c15.6-1.8,31.3-3.6,48.1-5.6c-6.4,7.3-37.7,11.2-47.8,7.1C1288.4,571.3,1288.3,570.8,1288.2,570.3z"/>
	<path d="M1284.4,512.7c-4.1,1.4-7,2.8-10.1,3.4c-7.8,1.4-15.7,2.5-23.7,3.5c-1.2,0.2-2.6-0.9-3.9-1.3c0.8-1,1.3-2.6,2.3-2.9
		c10.7-3.6,21.6-6.2,33.1-4.4C1282.4,511.1,1282.8,511.6,1284.4,512.7z"/>
	<path d="M1491.2,523.5c-2.6,2.2-3.9,4.3-5.5,4.5c-8.4,1.2-16.8,2.1-25.2,2.7c-1.1,0.1-2.4-1.7-3.6-2.6c1.2-0.8,2.2-2.1,3.5-2.3
		c8.1-1.1,16.2-2.1,24.4-3C1486.3,522.6,1487.9,523.1,1491.2,523.5z"/>
	<path d="M1652.8,529.4c-18.2,2.3-35,1.8-53,0.2C1605,525.6,1644.2,525.7,1652.8,529.4z"/>
	<path d="M1380,529.1c12.4-1.2,23.9-2.4,36.3-3.6C1411.7,533.9,1386,536.4,1380,529.1z"/>
	<path d="M1823.3,528.2c-2.4,1-4.7,2.6-7.1,2.8c-11.4,1.2-22.4-1-33.3-4.8c13.2,0,26.5,0,39.7,0
		C1822.8,526.9,1823,527.6,1823.3,528.2z"/>
	<path d="M1529.5,532.9c13.8,0.3,26.5-1.6,40.2,0.6C1560.3,539.7,1536.1,539.7,1529.5,532.9z"/>
	<path d="M1382.4,561.1c11.5,0,23,0,34.4,0C1407.4,568.5,1386.9,567.9,1382.4,561.1z"/>
	<path d="M1277,478.1c6.9-4.7,30.8-4.4,36.6,0.2C1308.5,481.4,1284.9,481.4,1277,478.1z"/>
	<path d="M1662.4,540.2c0.9-0.6,1.9-1.7,2.6-1.6c8.6,1.3,17.1,2.7,25.7,4.2c0.7,0.1,1.4,0.8,2.1,1.3c-6.2,5.5-18.7,3.8-30.5-4.1
		L1662.4,540.2z"/>
	<path d="M1439.3,536.6c-5.8,4.1-25.3,4.9-30.6,1.6C1413.1,533.6,1432.7,532.4,1439.3,536.6z"/>
	<path d="M1275,561c-0.9,1-1.3,1.8-1.7,1.9c-8.7,1-17.3,2-26,2.7c-0.9,0.1-1.9-1.4-2.8-2.2c0.7-0.7,1.3-1.8,2-1.9
		c8.8-0.7,17.6-1.2,26.3-1.8C1273.2,559.7,1273.8,560.3,1275,561z"/>
	<path d="M1660.7,497.7c6.5-5.3,21.5-5.9,26.5-1.3C1682.6,500.5,1667.6,501.3,1660.7,497.7z"/>
	<path d="M1369.8,489.2c4.1-7.4,20.8-6.5,27.5,1.9C1387.7,490.4,1379,489.8,1369.8,489.2z"/>
	<path d="M1648.3,553.8c-4.9,4.7-18.9,4.9-26.5,0.4C1626.4,550.5,1643.5,550.3,1648.3,553.8z"/>
	<path d="M1629.1,504.2c6.8-4.6,14.5-5.6,22.5-5.3c0.7,0,1.9,1.3,1.9,1.9c0,0.9-0.8,2.6-1.5,2.7
		C1644.5,504.9,1637,507.3,1629.1,504.2z"/>
	<path d="M1756.3,464c-8.3,1.9-15.7,2.7-23.6,0.4C1736.1,458.6,1750.9,458.3,1756.3,464z"/>
	<path d="M1721.3,542.6c7.5-2.6,14.6-2.9,22.3-1.1C1738.4,547.5,1726.7,548.1,1721.3,542.6z"/>
	<path d="M1521.3,498.9c-7.5,2.5-14.6,3.1-21.9-0.2C1504.8,494.4,1515.6,494.4,1521.3,498.9z"/>
	<path d="M1754.6,539.6c7.5,0.8,14.3,1.5,21.6,2.2C1772.1,547.9,1760.7,546.7,1754.6,539.6z"/>
	<path d="M1583.2,518.5c3.3-1.2,6.5-2.6,9.8-3.4c0.9-0.2,2.2,1,3.4,1.6c-0.7,1.2-1.2,3.2-2.1,3.4c-3.4,0.6-6.9,0.7-10.4,0.9
		C1583.7,520.2,1583.5,519.4,1583.2,518.5z"/>
	<path d="M1735.5,497.9c3.2,0,6.5-0.1,9.7,0.1c0.9,0.1,1.8,1.1,2.7,1.7c-1,0.7-2,2.1-3,2c-3.3-0.2-6.6-0.9-9.8-1.4
		C1735.2,499.5,1735.3,498.7,1735.5,497.9z"/>
	<path d="M1662.3,540.1c-1.7,0.6-3.4,1.8-5,1.7c-1.9-0.1-3.8-1.3-5.8-2.1c4-2.7,6.3-2.6,10.9,0.6
		C1662.4,540.2,1662.3,540.1,1662.3,540.1z"/>
	<path d="M1665.8,516.7c2-0.5,4-1.4,6-1.5c1.1,0,2.3,1.3,3.4,2.1c-1.1,0.8-2.2,2.2-3.3,2.1c-2.1,0-4.1-0.9-6.1-1.5
		C1665.8,517.6,1665.8,517.2,1665.8,516.7z"/>
	<path d="M1300.3,386.7c22.5-1.6,45.1-3.5,67.6,0.7C1345.3,391.8,1322.8,391.1,1300.3,386.7z"/>
	<path d="M1348.5,355.1c-13.4,1.8-26.8,3.5-40.1,5.3c-2.9,0.4-5.8,1.2-8.8,1.2c-1.7,0-3.4-1.2-5.1-1.9c1.4-1.2,2.5-3.1,4.1-3.6
		c3.4-1,7.1-1.7,10.7-1.9c11.1-0.7,22.1-1.1,33.2-1.5c2-0.1,4,0.7,6,1C1348.6,354.2,1348.6,354.7,1348.5,355.1z"/>
	<path d="M1379.3,390.8c4.4-3.9,35.1-5.7,41.4-2.6C1416,394.2,1387.4,396.2,1379.3,390.8z"/>
	<path d="M1471.3,355.2c-12.5,3.6-25.2,1.9-37.8,1.9c-1.2,0-2.5-1.9-3.7-2.8c1.2-1,2.3-2.7,3.6-2.8
		C1446.2,350.8,1459,350.6,1471.3,355.2z"/>
	<path d="M1354.3,371.8c1-0.5,2-1.1,3.2-1.7c-1.3-0.8-2.4-1.4-3.5-2c4-6,16.8-7.3,24.8-2.4c-2.1,1.1-4,2.1-6.3,3.4
		c2.6,0.5,4.7,1,6.9,1.4c0,0.6,0,1.2-0.1,1.8c-8.3,0.5-16.5,0.9-24.8,1.4C1354.5,373.1,1354.4,372.4,1354.3,371.8z"/>
	<path d="M1555.9,366.2c-14.6-0.6-28.1-1.2-42.6-1.8C1519.4,356.3,1546.6,357.8,1555.9,366.2z"/>
	<path d="M1213.2,385.3c-14.8,5.2-29.1,2.3-43.2-2.5C1184.5,381.6,1199,382.1,1213.2,385.3z"/>
	<path d="M1421.9,390.2c13.6-2.1,25.8-2,39-1.3C1453.9,395.7,1430.1,396.6,1421.9,390.2z"/>
	<path d="M1278.5,387.8c-13.4,4.1-26.5,4.7-40.5,4.6C1244.7,386.3,1270,383.5,1278.5,387.8z"/>
	<path d="M1471.2,361.9c-6,5.1-26,5.4-31.9,0.5C1444,358.5,1465,358.1,1471.2,361.9z"/>
	<path d="M1328.4,368.5c-7.6,4.7-16.1,4.6-24.5,4.5c-1,0-2.4-1.4-2.8-2.5c-0.3-0.6,0.9-2.4,1.6-2.5
		C1311.2,366.5,1319.8,364.7,1328.4,368.5z"/>
	<path d="M1483.4,373.1c-7.2,4.4-16.4,5.6-23.1,3.1C1464,371.1,1476.7,369.2,1483.4,373.1z"/>
	<path d="M1222.5,364.7c-7.4,4-14.7,3.7-22.5,1.7C1204,361.4,1216.8,360.4,1222.5,364.7z"/>
	<path d="M1514.4,393.2c5.1-2.9,15.3-1.5,19.9,2.5C1530.1,399.6,1518.8,398.3,1514.4,393.2z"/>
	<path d="M1217.3,370.3c7.3-2.4,14.5-2.3,21.6,0.8C1231.6,375,1224.5,373.2,1217.3,370.3z"/>
	<path d="M1538.2,378.1c-5.5,4.1-10.4,4.5-15.8,1.5C1525.4,374.7,1531.3,374.1,1538.2,378.1z"/>
	<path d="M1291.1,343.2c4.1-0.4,8.1-0.9,12.2-1.1c0.7,0,1.6,1.4,2.3,2.1c-0.8,0.8-1.6,2.1-2.4,2.2c-3.9,0.2-7.9,0.1-11.9,0.1
		C1291.2,345.4,1291.1,344.3,1291.1,343.2z"/>
	<path d="M1436.1,368.7c-4.8,3.8-8.5,3.9-13.7,0.6C1425.9,365.3,1430.6,365,1436.1,368.7z"/>
	<path d="M1540.4,387c4.4-4,8.5-4.1,13.2-0.7C1550.3,390.2,1546.7,390.5,1540.4,387z"/>
	<path d="M1554.4,378c3.7-1.8,6.7-1.9,9,1.2c0.3,0.4-0.9,2.6-1.7,2.8C1558,383,1555.9,381.3,1554.4,378z"/>
	<path d="M1547.4,399.7c4-4.7,7.5-4.9,10.9-0.5C1554.6,399.4,1551,399.6,1547.4,399.7z"/>
	<path d="M1585.5,374.2c2.5,0,4.9-0.1,7.4,0.1c0.2,0,0.2,1.9,0.3,2.9c-2.6,0-5.2,0-7.9,0C1585.4,376.3,1585.5,375.3,1585.5,374.2z"
		/>
	<path d="M1484.4,275.6c-15,0-30.1,0-45.1,0c-0.1-0.1-0.1-0.3-0.2-0.4c2.7-0.5,5.4-0.9,8.2-1.4c-18.9-1.7-37.6-3.3-56.4-5
		c0-0.6,0-1.1,0.1-1.7c33.1-0.8,66.3-1.5,98.6-2.3c1.3,1.2,2.4,2.2,4,3.7c-18.2,0-36.3,0-54.5,0c0,0.6-0.1,1.1-0.1,1.7
		c15.1,1.3,30.3,2.6,45.4,3.9C1484.4,274.6,1484.4,275.1,1484.4,275.6z"/>
	<path d="M1562.3,266.9c16.5,1.5,32.7-3.5,49.8-1.8c16.3,1.6,33-0.6,49.6-1.1c0,0.8,0.1,1.6,0.1,2.3c-3.3,0.3-6.6,0.7-10,0.8
		c-7.3,0.3-14.6,0.4-21.9,0.7c-16.8,0.9-33.7,2.3-50.5,2.6C1573.7,270.7,1568,268.2,1562.3,266.9z"/>
	<path d="M1813.5,249c-38.6,5.4-77.5,7.3-116.6,6.4c9.9-0.7,19.9-1.8,29.8-2.1c12-0.4,24,0.4,35.9-0.5c13-1,25.8-3.3,38.7-4.9
		c3.9-0.5,7.9-0.5,11.9-0.7C1813.4,247.7,1813.4,248.3,1813.5,249z"/>
	<path d="M1801.5,253.5c-14.4,1.9-28.8,4.3-43.3,5.6c-9.6,0.9-19.4-0.3-29.1,0.3c-14,0.8-28,2.4-42.1,3.6c-1.2,0.1-2.4,0-3.6,0
		c0-0.5-0.1-1-0.1-1.6c39.3-2.9,78.7-5.8,118-8.7C1801.4,253,1801.5,253.2,1801.5,253.5z"/>
	<path d="M1691.3,264.1c22.9,0.1,45.8-1.3,68.5,2.8c0,0.5,0,0.9-0.1,1.4c-22.8-0.9-45.7-1.7-68.5-2.6
		C1691.2,265.2,1691.2,264.7,1691.3,264.1z"/>
	<path d="M1776.6,237.5c11.9-2.7,23.6-1.3,35.3,3.1c-13.3,1.5-26.5,3-39.8,4.5c-0.1-0.4-0.1-0.8-0.2-1.2c8.1-1.4,16.2-2.8,24.3-4.2
		c0-0.3,0-0.6,0-0.9c-6.6,0-13.1,0-19.7,0C1776.5,238.4,1776.5,238,1776.6,237.5z"/>
	<path d="M1693,269.2c-14,1-28,2-42,3c0-0.4-0.1-0.8-0.1-1.2c14.1-1.1,28.1-2.2,42.2-3.3C1693.1,268.2,1693,268.7,1693,269.2z"/>
	<path d="M1459.9,200.1c8.8,0,17.6,0,26.4,0c0,0.4,0,0.7,0,1.1c-8.8,0-17.7,0-26.5,0C1459.9,200.8,1459.9,200.5,1459.9,200.1z"/>
	<path d="M1634.6,278c-8.6,0.6-17.2,1.3-25.9,1.9c0-0.3-0.1-0.7-0.1-1c8.6-0.8,17.2-1.6,25.8-2.4
		C1634.5,277,1634.6,277.5,1634.6,278z"/>
	<path d="M1543.1,261.1c4.5-0.4,9-0.8,14.5-1.3c-4.6,5.7-10,0.9-14.2,3.3C1543.3,262.5,1543.2,261.8,1543.1,261.1z"/>
	<path d="M1561.7,275.9c6.4-0.3,12.7-0.7,19.1-1c0,0.3,0,0.6,0.1,0.9c-6.4,0.4-12.8,0.8-19.3,1.2
		C1561.6,276.7,1561.7,276.3,1561.7,275.9z"/>
	<path d="M1565,233.8c9.2,1.5,18.4,3,27.6,4.7c4.8,0.9,6.6,4.6,7.5,8.6c0.8,3.3-2.4,6.8-7.1,6.8c-8.3,0-16.7,0.7-24.5-3.3
		c-10.3-5.3-20.8-10.3-31.2-15.5c0.3-0.5,0.5-1,0.8-1.5c6.1,3.1,12.5,5.7,18.2,9.3c7.7,4.8,15.7,8.3,25,8.9c3,0.2,6,0.8,8.8,0.3
		c2.8-0.5,7.2-1.9,7.6-3.5c0.7-3.3-1.5-6.8-5.7-7.7c-5.1-1.1-10.2-2-15.3-2.9c-4-0.7-8.1-1.4-12.1-2.1
		C1564.7,235.2,1564.9,234.5,1565,233.8z"/>
	<path d="M1644,219.4c-13.5,7.4-28.1,10.2-43.3,10.6c-0.2-0.6-0.3-1.3-0.5-1.9c14.4-3.5,28.9-6.9,43.3-10.4
		C1643.6,218.3,1643.8,218.9,1644,219.4z"/>
	<path d="M1603.7,200.5c-6.8-2.4-13.3-5-17.9-10.8c-3.1-3.9-3.2-8.6-0.3-12.8c3.9-5.6,7.8-11.3,11.8-16.9c0.8-1.1,1.7-2.1,2.6-3.1
		c0.5,0.3,0.9,0.6,1.4,0.9c-3.9,5.9-7.4,12-11.8,17.6c-5.6,7.2-5.3,12.3,2.6,17.4c3.9,2.5,8.2,4.5,12.4,6.7
		C1604.1,199.8,1603.9,200.1,1603.7,200.5z"/>
	<path d="M1636.4,135.7c5,5.4,5.6,12.9,0.9,17.6c-3.8,3.8-8.5,6.8-12.9,10.2c-0.3-0.3-0.7-0.7-1-1c1.9-1.7,3.6-3.7,5.7-5.1
		c10-6.7,10.6-8.1,7.3-19.4C1636.3,137.4,1636.4,136.7,1636.4,135.7z"/>
	<path d="M1552,153.6c8.3-1.2,14.9,2.7,21.6,6.2c-0.2,0.5-0.4,1-0.6,1.5C1566,158.7,1559,156.1,1552,153.6z"/>
	<path d="M1630.8,99.5c-2.1,6.7-4.2,13.5-6.4,20.2c-0.5-0.1-0.9-0.3-1.4-0.4c2.1-6.7,4.2-13.5,6.3-20.2
		C1629.8,99.2,1630.3,99.3,1630.8,99.5z"/>
	<path d="M1596.2,173.1c0,5.3,0,10.4,0,14.7C1592.3,184.7,1592,179.9,1596.2,173.1z"/>
	<path d="M1560.6,145.6c3.5,0.6,7.1,1.1,10.6,1.7c-0.1,0.6-0.2,1.2-0.3,1.7c-3.5-0.6-7.1-1.1-10.6-1.7
		C1560.4,146.7,1560.5,146.2,1560.6,145.6z"/>
	<path d="M1599.1,117.1c2.7,0.5,5.5,1,8.2,1.4c-0.1,0.7-0.2,1.4-0.3,2.1c-2.7-0.4-5.5-0.9-8.2-1.3
		C1598.9,118.5,1599,117.8,1599.1,117.1z"/>
	<path d="M1744.7,214.2c-6.1,0.6-9.1-2.4-12.3-5.2c-3.3-2.9-6.7-5.6-10.5-7.7c-4.2-2.4-5.8-5.6-4.9-10c0.9-4.7,3.2-8.4,8.1-9.9
		c0.6,0.6,1.3,1.2,1.9,1.8c-1.6,0.9-3.6,1.5-4.8,2.8c-5.1,5.4-3.7,11.2,3.1,14.3c2.1,1,4.1,2.4,5.9,3.9c2.1,1.8,3.6,4.1,5.7,5.8
		C1738.9,211.4,1741.3,212.3,1744.7,214.2z"/>
	<path d="M1743.9,167.8c-9-1.4-17.9-2.8-26.9-4.1c9.5-4.4,17.9,2.6,27.1,1.5C1744.1,166,1744,166.9,1743.9,167.8z"/>
	<path d="M1782.6,205.1c-2.1-0.8-5.1-0.9-6.3-2.4c-3.9-4.7-7.6-5-11.9,0.3c-0.3-0.6-0.6-1.2-0.9-1.8c1.6-1.4,3.1-3.4,5-4.1
		c1.6-0.6,4.1-0.3,5.6,0.6c3.1,1.9,5.7,4.4,8.5,6.6C1782.7,204.5,1782.6,204.8,1782.6,205.1z"/>
	<path d="M1688.2,223c-11.5,0-16.8-7.6-12.2-16c0.6,3,0.4,7.3,2.5,10.1C1680.5,219.8,1684.9,221.1,1688.2,223z"/>
	<path d="M1733.5,221.3c3.2,7.2,3.2,7.2,12.3,5.9c-3.1,3.7-6.6,4.9-10.5,2.7C1731.8,228.1,1732.1,225,1733.5,221.3z"/>
	<path d="M1834.1,356.3c-2.1,1-4.1,2.5-6.4,3.1c-11.7,3-23.5,5.8-35.4,8.4c-1.5,0.3-3.4-0.7-5-1.1c1.1-1.2,2.1-3.2,3.5-3.6
		c12.2-3.2,24.5-6.1,36.8-8.9c2-0.4,4.3,0.4,6.4,0.7C1834,355.4,1834,355.8,1834.1,356.3z"/>
	<path d="M1753.6,396.9c-7,4.7-27.7,5.1-33.6,0.7C1724.4,393.7,1748,393.2,1753.6,396.9z"/>
	<path d="M1720.4,374.4c5.7-5.8,27.9-7.9,36-3.5C1744.3,374.3,1733,375.3,1720.4,374.4z"/>
	<path d="M1799,386.2c12.5-1.1,23.6-2.1,35.5-0.4C1827.4,391.9,1809.3,392.1,1799,386.2z"/>
	<path d="M1823.3,379.4c-1.8-0.9-4.2-2.1-6.5-3.3c2.4-0.8,4.7-1.9,7.2-2.3c2.5-0.5,5.2-0.6,7.8-0.5c1.1,0,2.3,1,3.4,1.6
		c-0.9,0.9-1.6,2.3-2.6,2.6C1829.9,378.2,1827.1,378.6,1823.3,379.4z"/>
	<path d="M1735.6,385.8c4.5-3.7,8.8-3.8,13.6-0.6C1746.3,389.6,1741.2,389.9,1735.6,385.8z"/>
	<path d="M1657.1,196.8c-4.9-4.2-7.1-9.7-5.9-15.7c1.1-5.3,5.5-7.9,11.4-8.6c5.7-0.7,11.2-2.3,16.7-3.7c1.7-0.5,3.6-1.5,4.8-2.7
		c7.5-7.5,11.6-16.2,11.2-27c0.5,2.2,1.9,4.6,1.3,6.5c-1.8,5.8-3.7,11.7-6.7,17.1c-2.4,4.3-6.4,7.7-12.1,8.6
		c-5.1,0.8-10.1,2.3-15.3,3.1c-7.5,1.3-10.7,5.3-9.1,12.3C1654.3,190.1,1655.9,193.4,1657.1,196.8z"/>
	<path d="M1675.7,141c0.3-18.6-11.5-32.4-20.3-47.3C1666.5,107.7,1678,121.7,1675.7,141z"/>
	<path d="M1680.7,123.9c1.4,6,2.8,12,4.2,17.9c-0.5,0.1-1,0.2-1.5,0.3c-1.5-6-2.9-12-4.4-18C1679.5,124.1,1680.1,124,1680.7,123.9z"
		/>
	<path d="M1307.6,248.9c-1.5-12.3,33.5-43.9,48.1-43.3c-5.6,3.6-10.1,6.4-14.5,9.4c-6.6,4.5-13.6,8.6-19.5,13.8
		c-4.1,3.6-6.6,8.7-9.8,13.1C1310.6,243.8,1309.5,245.8,1307.6,248.9z"/>
	<path d="M1341.9,238.4c1.2-1.1,2.2-2.5,3.6-3.2c2.7-1.4,5.5-2.4,8.6-3.7c-6.2-5.3-6.2-5.4-2-10.8c-2.6,6.1,1.5,8.8,4.5,9.3
		c3.1,0.6,6.9-1.9,10.4-3.1c0.3,0.5,0.5,0.9,0.8,1.4c-2.3,1.2-4.5,2.5-6.9,3.6c-3.3,1.4-6.9,2.3-10,4c-1.9,1-3.4,3-4.8,4.7
		c-3.1,4-6.1,8.2-9.2,12.2c-1.6,2-3.4,3.9-6.1,5.7c0.3-1.1,0.3-2.6,1.1-3.4c2.1-2.2,4.8-3.9,6.7-6.2c2.1-2.5,3.6-5.5,5.2-8.4
		c0.2-0.3-1.4-1.5-2.2-2.3C1341.8,238.2,1341.9,238.4,1341.9,238.4z"/>
	<path d="M1393.5,209.9c-4.8,4.1-9.6,8.1-14.4,12.2c-0.4-0.4-0.8-0.8-1.2-1.2c2.4-2.4,4.8-4.9,7.3-7.4c-2.5-1.3-4.5-2.4-6.5-3.4
		c9.8,1.7,11.3,1.5,17.9-8.2c2.8-4.2,5.3-3.1,9.7-2.3c-3.3,1.6-5.7,2.7-8.1,3.9c2.7,2.2,4.9,3.9,7,5.6c-0.3,0.4-0.6,0.7-0.9,1.1
		c-2.1-1.2-4-3-6.2-3.5c-1.2-0.3-3,1.7-4.5,2.7C1393.5,209.5,1393.5,209.7,1393.5,209.9z"/>
	<path d="M1341.8,238.2c-1.7,5-5.8,7.8-10.5,10c2.5-4.3,5.2-8.5,10.6-9.9C1341.9,238.4,1341.8,238.2,1341.8,238.2z"/>
	<path d="M1372.4,218.3c1.3,2.7,2.6,5.3,4.6,9.3c-3.4-1.2-5.1-1.9-7.4-2.7c0.3-1.9,0.7-4,1-6
		C1371.2,218.6,1371.8,218.4,1372.4,218.3z"/>
	<path d="M1328.4,248.9c-4.2,2.5-8.6,5.1-12.8,7.5C1316.8,251.9,1323.3,248.1,1328.4,248.9z"/>
	<path d="M1419.5,252.4c0-2.1,0.8-4.8-0.2-6.3c-1.2-1.8-4.1-2.6-7.4-4.5c3.8-1,6.4-1.7,9.4-2.5c-2-1.7-3.9-3.3-6.3-5.4
		c9.9,3.5,18.9,6.6,28,9.8c-7.3,2.5-14.3-6.1-21.4,0.3C1424.4,247.7,1423.8,250,1419.5,252.4z"/>
	<path d="M1480.4,242.6c-2.1,1.1-3.9,2.7-5.8,2.9c-5,0.4-11.2,1.9-14.7-0.3c-5.5-3.6-9.1-1.4-13.1,0.3c-0.4,2.7-0.8,5.1-1.2,7.5
		c-0.6-0.1-1.1-0.2-1.7-0.3c0.2-1,0.3-2,0.6-3c0.6-2.3,0.6-6.2,1.9-6.7c4.1-1.4,9.1-2.8,12.9-1.7c2.2,0.7,4.2,4.3,7.6,3.7
		c2.9-0.4,6-1.2,8.3-2.9C1477.9,240.3,1479.3,240.3,1480.4,242.6z"/>
	<path d="M1443.1,212.7c2.2-1.9,4.8-3,8.7-1.2c2.6,1.2,6,1.1,9,1.4c1.8,0.2,3.6,0,5.3,0c0,0.6,0,1.3,0,1.9c-4.1,0-8.2,0.3-12.3-0.1
		C1450.3,214.4,1446.7,213.4,1443.1,212.7z"/>
	<path d="M1462.3,229.5c-5.3,0-10.6,0-15.8,0c0-0.4,0-0.7,0-1.1c5.4,0,10.7,0,16.1,0C1462.5,228.8,1462.4,229.1,1462.3,229.5z"/>
	<path d="M1422.2,221.4c2.4,0,4.8,0,7.2,0c0,0.4,0,0.8,0.1,1.2c-2.4,0.1-4.8,0.2-7.2,0.3C1422.3,222.4,1422.2,221.9,1422.2,221.4z"
		/>
	<path d="M1671.9,382.5c-14.9,2.8-29.8,4.3-45.9,4.3C1630.4,379.6,1663.2,376.9,1671.9,382.5z"/>
	<path d="M1649.2,372.3c4.8-4.8,20.9-5.6,26.6,0C1666.9,372.3,1658,372.3,1649.2,372.3z"/>
	<path d="M1642.7,391.6c-8.1,2.6-15,5.1-22.5,1.3C1623.8,388,1633.5,387.3,1642.7,391.6z"/>
	<path d="M1662.7,393.3c8.2-2.6,16.4-4.4,24.8-2.7c0.1,0.8,0.1,1.6,0.2,2.4C1679.4,394,1671.1,394.6,1662.7,393.3z"/>
	<path d="M1655.5,243.7c11.6,0,22.8,0,33.5,0C1683.7,247.8,1662,248.2,1655.5,243.7z"/>
	<path d="M1514.3,207.6c11.2-2.5,11.2-2.5,10-10.7c0.5,0,1,0,1.5,0c0,2.6,0.9,5.6-0.1,7.8C1523.4,209.7,1518.6,208.4,1514.3,207.6z"
		/>
	<polygon points="1866.5,454.9 1871.5,453.9 1873.5,450.9 1875.5,447 1875.5,442 1874.5,434 1867.5,410.1 1869.5,424.1 1871.5,434 
		1872.5,442 1870.5,449 	"/>
	<polygon points="1718.4,517.6 1717.4,521.6 1715.5,523.6 1712.5,525.6 1709.5,526.6 1714.5,526.6 1717.4,525.6 1719.4,521.6 
		1720.4,513.7 	"/>
	<polygon points="1608.1,444 1610.1,447 1613.1,450.9 1614.1,456.9 1614.1,459.9 1613.1,461.9 1613.1,457.9 1612.1,452.9 
		1610.1,449 	"/>
	<polygon points="1499.8,398.2 1502.8,397.2 1503.8,394.2 1505.8,392.2 1505.8,394.2 1504.8,396.2 1502.8,398.2 	"/>
	<path d="M1275.2,339.5l4-2l0.9-0.9l2.1-2.1l3-2l3-3c0,0,6-4,6-3c0,1-4,4-4,4l-3,2l-4,3L1275.2,339.5z"/>
	<polygon points="1268.2,366.3 1268.2,368.3 1267.2,373.3 1269.2,368.3 	"/>
	<polygon points="1185.8,298.6 1186.7,302.6 1188.7,305.6 1191.7,308.6 1192.6,308.9 1194.7,309.6 1190.7,306.6 1188.7,303.6 
		1187.7,302.6 	"/>
	<polygon points="1370.6,324.5 1373.6,324.5 1377.6,323.5 1383.5,321.5 1389.5,322.5 1387.5,321.5 1382.5,320.5 1378.6,322.5 	"/>
	<polygon points="1411.3,355.4 1411.3,360.4 1410.4,365.3 1411.3,369.3 1411.3,366.3 1412.3,360.4 	"/>
	<polygon points="1777.1,356.4 1776.1,363.3 1776.1,370.3 1776.1,376.3 1777.1,372.3 1777.1,365.3 	"/>
	<polygon points="1777.1,386.2 1776.1,388.2 1774.1,390.2 1776.1,389.2 	"/>
	<polygon points="1883.4,288.7 1887.4,288.7 1890.4,291.7 1891.4,295.7 1890.4,299.6 1890.4,296.6 1890.4,293.7 1888.4,290.7 
		1886.4,289.7 	"/>
	<polygon points="1882.4,321.5 1877.4,324.5 1873.5,328.5 1871.5,332.5 1868.5,337.5 1871.5,331.5 1871.5,327.5 1875.5,324.5 
		1877.4,322.5 	"/>
	<polygon points="1206.6,335.5 1206.6,339.5 1205.6,341.4 1205.3,341.9 1203.6,344.4 1201.7,345.4 1200.7,345.4 1201.7,346.4 
		1203.6,345.4 1204.6,344.4 1205.6,342.4 1206.6,340.4 	"/>
	<polygon points="1185.8,290.7 1184.8,286.7 1185.8,283.7 1187.7,281.7 1191.7,280.7 1195.7,280.7 1192.7,281.7 1189.7,281.7 
		1187.7,282.7 1186.7,284.7 	"/>
	<polygon points="1206.6,269.8 1212.6,265.8 1219.5,263.8 1227.5,262.8 1220.5,264.8 1215.6,265.8 	"/>
	<polygon points="1262.3,268.8 1274.2,267.8 1282.2,264.8 1291.1,262.8 1282.2,265.8 1274.2,268.8 	"/>
	<polygon points="1341.8,277.7 1346.7,279.7 1350.7,283.7 1350.7,288.7 1349.7,284.7 1346.7,281.7 	"/>
	<path d="M1415.3,288.7c0,1,7-2,7-2h6h10.9l3,2l-3-1h-7h-6L1415.3,288.7z"/>
	<polygon points="1570.4,395.2 1571.3,396.2 1574.3,397.2 1576.3,396.2 1575.3,397.2 1572.3,397.2 	"/>
	<polygon points="1584.3,356.4 1581.3,359.4 1578.3,363.3 1577.3,368.3 1579.3,364.3 1580.3,361.4 	"/>
	<polygon points="1524.6,342.4 1531.6,341.4 1536.6,342.4 1544.5,344.4 1548.5,345.4 1542.5,343.4 1535.6,341.4 1531.6,340.4 	"/>
	<polygon points="1633,300.6 1640.9,294.7 1649.9,291.7 1660.8,291.7 1648.9,293.7 1643.9,294.7 	"/>
	<polygon points="1709.5,379.3 1710.5,395.2 1708.5,414.1 1709.5,420.1 1709.5,412.1 1710.5,402.2 1711.5,392.2 	"/>
	<path d="M1238.4,300.6"/>
	<path class="st4" d="M1150,396.2l-2.2,5.4c0,0-0.5,5.1-0.6,4.9c-0.1-0.2,0,5.7,0,5.7l0.9,5l2,5l4,6c0,0,4,4,4,5s4,9,4,9l1,7l2,7
		l2,10.7l2.6,11.8l0.4,2.4h4l6.1-0.5l4.5-0.4l5.3,0.7l7,1.2l6,1l5.7-1h5.2l5.1-1.9l4.5-1.1l5.3-1l7.2-0.1l5.7-0.9l6.3-0.4
		c0,0,4.6-0.1,5.6-0.4s3.7,0,3.7,0l11.2-1.7l7.5-2.2l5.6-1.2l6.8-2l7.2-0.9l7.3-1.4l7.1-1.1l6.2-0.5l8.2,0.9l8,0.2l14.7,0.9
		c0,0,8.2,0,9.1,0.5c0.9,0.5,41.4,0.4,41.4,0.4l16.7,0.2h10.8l42.2-0.1l12.9-3l12.9-4h6l11.5-1.4l15.2-1.3h8.4l29.9,0.2l19.4-0.5
		l8.9-4.2l5.5-8.6l2.6-13.1l0.9-17.9l-1-8l-17.9,2l-8.9,1l-9.9-3l-9.9-1l-13.4,0.1l-11.3,0l-14.3-0.1l-10.3-1l-20.7-1.8l-14.5,0.8
		l-18.9,5l-8.9-1l-10.1-3.5l-6.8-1.5l-8,2l-5,0.7l-13.9-1.7l-18.1,0.2l-13.8,0l-13.2-2.7l-6.6-2.5h-9.9l-5.7,1.6l-11.2,2.4l-2.2,0.2
		l-4.5,0.7l-14.2-1.9l-5-3l-5.5-0.9c0,0-8.8,0.3-9.1,0.6c-0.3,0.3-22.9,1.9-22.9,1.9l-14.9,1l-17.1-0.5l-11.9-1.1l-10.4-0.1
		l-6.3-0.9l-11.1-1l-8,3l-6,4l-11.3-3.9L1150,396.2z"/>
	<path class="st4" d="M1612.1,407.7l-1,7.8l-1,12.6v7.6l2,8.3l5.9,10l6,4l13.9,2l8.9-2c0,0,7-1,8-1c1,0,8.9,0,8.9,0l9.9,1l9.9,1
		l8.8-0.1l7.1,0.1l0.7-14.2l0.2-18.7l-1-17.9l-17.3,0.9l-15.5,0.1h-7l-13.9-3c0,0-6-2-7-2c-1,0-9.8,1.7-9.8,1.7l-8.1,3.2l-4.2-0.7
		L1612.1,407.7z"/>
	<path class="st4" d="M1856.6,459.9l-8-3l-4.2-3.7l-3.7-5.2v-9l4-10.9l4-8l3-13.9v-5l-12.8,3.1l-28-0.1c0,0-14.4-0.2-14.2-0.6
		c0.2-0.4-26.6-0.4-26.6-0.4l-9.9,4l-10.2,1.1l-21.4-0.1h-15.2V439v19.9l10.3-0.7l10.4-1l8.2-0.6l8.7-0.2l12.9,0.7l9.7,0.7l9.3,1.1
		l12.7,1h20.1l14.9,1l7.6,1.9l9.7,10.3l3.6,14.7v10.9l-0.9,25.1l-3.1,19.7l-2,12.9l-11.2,7.3l-15.7,5.6l-16.9,2h-21.1h-16.7
		l-14.4-2.9l-15.4-4.1l-24,1.2l-7.5,1.4l-53,2.4l-40.7-3l-24.5-3l-61.9,3.7l-21.5-1.2l-20.9,4.4l-13,4.4l-28.3-1l-40.9-1.3
		l-24.9-2.4l-15.5-4.6l-19,6.2l-19.4,6.3l-10.3,4.4l-10.4,0.5l-15.4-1.5l-13.7,2.6l-22.8,2.1l-12.2,0.3l-15.9-2l-9.9-1l-8.5,0.8
		l-8.4,0.2l0.4,7.2l1.6,10.7l4,5c0,0,5.7,2.2,5.8,2.6s5.1,2.4,5.1,2.4l9.2,1.2l12.7-0.2h16.9l24.7-1.9l20-1.1l35.8-9l21.4-4.4
		l10.4-1.6l9.9-1l12.9,2l7,1l15.9,1l19.9-2l12.7-1.2l11.2-0.7h13.9l9.9,1h9.9l10.9-2l8.9-2l8.9-1l44.3-2.7l23.2-5.2l10.9-2l19.1,1.6
		l27.3,0.5l6.2-0.1h74.5l25.8-2l23.7,2.2l11.1-1.2h38.8l12,3h22.7l17.9,1h5l12.9-4l8-9l3.9-15.7l4-23.1l0.5-16.8l1.2-16.4l3.2-22.5
		l2-16.4l1-10.5l-2.6-15.2l-3.7-14.6l-1.6-16.1l-3-15.9l-1.7-11.4l1.6-28.1l0.1-9.2l-1-9l-2-5l-10.1,0.5l-10.8,5.5l-6,8l-4,16.2
		l-1,17.7l2.2,13.4l3.6,15.6l10.4,29.9l3.5,9.1l-2,7.1l-3.9,6.6l-5,2l-6,2l-9.9,1L1856.6,459.9z"/>
</g>
</svg>
