<?xml version="1.0" encoding="utf-8"?>
<!-- Generator: Adobe Illustrator 22.0.1, SVG Export Plug-In . SVG Version: 6.00 Build 0)  -->
<svg version="1.1" xmlns="http://www.w3.org/2000/svg" xmlns:xlink="http://www.w3.org/1999/xlink" x="0px" y="0px"
	 viewBox="0 0 2000 1642.2" style="enable-background:new 0 0 2000 1642.2;" xml:space="preserve">
<style type="text/css">
	.st0{display:none;}
	.st1{display:inline;fill:#FFFFFF;}
	.st2{fill:#CE9663;}
	.st3{fill:#E8A869;}
	.st4{fill:#E02F5E;}
	.st5{fill:#EDC89A;}
	.st6{fill:#EDDBCE;}
	.st7{fill:#3D2107;}
</style>
<g id="Слой_3" class="st0">
	<rect y="0.2" class="st1" width="2000" height="1642"/>
</g>
<g id="Слой_2">
	<g id="Слой_1" class="st0">
	</g>
	<path class="st2" d="M396.5,512l33.7-38.6l33.7-23.7l33.1-36.4l34.3-11.1l24.5-25.7l35.9-17.7l31.1-12.1l35.5-6.8h20.7
		c0,0,15.5,17.8,20.7,17.8s7.8,17.8,7.8,17.8l7.8,20.8l-2.6,26.7l-13,11.9l33.7-5.9h23.3h31.1l31.1-3l25.9,3l31.1,5.9l18.1,23.7
		v17.8l-15.5,11.9l2.6,14.8l18.1,23.7l-5.2,17.8l-36.3,32.6l-33.7,5.9h-36.3h-20.7l-20.7,5.9l-25.6,4.1l-8-10l-15.5,5.9l-18.1,5.9
		l-20.7-3l-20.7-3h-20.7h-23.3l-18.1-14.8h-28.5l-16.3,9.1l-1.9,8.7l-10.4,13.4h-14.2l-14.3-7.4l-18.8,7.4l-12,9.8l-36.6,3.5
		l-5.2-11.9v-23.7h-13l-10.4-8.9v-29.7L396.5,512z"/>
	<path class="st3" d="M422.4,612.8l20.7-29.7l20.7,29.7l-10.4,8.9c0,0-18.1-3-20.7-3C430.2,618.8,422.4,612.8,422.4,612.8z"/>
	<polygon class="st3" points="393.9,541.6 414.6,550.5 399.7,579.1 388.7,568.3 391.3,550.5 	"/>
	<polyline class="st3" points="770.5,427.6 785.2,425.4 795.6,423 814.7,425.9 803.3,455.6 774.8,458.6 770.5,427.6 	"/>
	<path class="st4" d="M93.3,645.5v20.8l2.6,20.8v32.6l2.6,14.8l15.5,5.9l18.1,8.9l5.2,20.8l-2.6,20.8l-2.6,26.7v17.8l2.6,8.9l5.2,3
		l5.2,3l7.8-3l5.2-3l2.6-5.9l2.6-11.9l2.6-17.8v-17.8l2.6-26.7l7.8-11.9l13-3c0,0,10.4,0,13,3c2.6,3,13,8.9,13,8.9l13,17.8
		l20.7,23.7l15.5,14.8l13,14.8l13,8.9l7.8,14.8v14.8v14.8l-5.2,14.8v17.8l5.2,11.9l13,5.9l13-5.9l5.2-11.9v-11.9l-2.6-17.8V862
		l10.4-17.8l25.9-23.7l23.3-14.8l18.1-11.9l13-3l18.1,5.9l28.5,8.9l25.9,5.9l31.1,3l28.5-5.9l25.9-11.9l15.5-8.9l20.7-8.9h13l10.4,3
		c0,0,7.8,5.9,10.4,8.9c2.6,3,13,20.8,13,20.8l7.8,17.8l5.2,35.6v26.7l-5.2,17.8l-2.6,17.8v14.8l7.8,8.9l10.4,5.9l10.4-5.9l7.8-5.9
		l7.8-8.9v-11.9l-5.2-17.8l-2.6-32.6l7.8-23.7l13-29.7l23.3-23.7l20.7-11.9l23.3-3h25.9c0,0,25.9,8.9,28.5,11.9
		c2.6,3,28.5,17.8,28.5,17.8l20.7,29.7l5.2,17.8l10.4,29.7l-2.6,26.7l-7.8,26.7l-5.2,23.7v11.9l7.8,11.9l10.4,8.9l10.4,3h13l7.8-5.9
		l7.8-11.9v-17.8l-5.2-17.8l-2.6-11.9l-2.6-29.7l2.6-17.8l7.8-17.8l15.5-14.8l20.7-14.8h10.4h15.5l18.1,3l20.7,5.9
		c0,0,18.1,5.9,20.7,8.9s20.7,23.7,20.7,20.8c0-3,10.4,29.7,10.4,29.7s0,17.8,2.6,20.8s0,23.7,0,23.7l-7.8,17.8l-2.6,17.8l7.8,11.9
		h13h13l5.2-17.8v-11.9l-2.6-20.8v-23.7l7.8-26.7l10.4-8.9l5.2-5.9l13-3l10.4,11.9l7.8,20.8V948v35.6l2.6,32.6v26.7v29.7l-4.2,41.5
		l-11.3,38.6l-13,20.8v14.8l2.6,14.8l10.4,11.9l18.1,8.9h18.1l13-11.9l13-14.8v-20.8l-3.2-14.8l-9.7-16.7l-5.2-18.9l-5.5-21.1
		l0.3-35.2l7.8-68.2l2.6-26.7l5.2-29.7l7.8-20.8l7.8-14.8l13-11.9l15.5-8.9l20.7-8.9l25.9-3h20.7l18.1,3l31.1,8.9l23.3,11.9
		c0,0,13,11.9,15.5,14.8c2.6,3,10.4,26.7,10.4,26.7l2.6,32.6l5.5,55.3v43.4v33.4c0,0,2.3,31.1,2.3,37.1c0,5.9-2.6,44.5-2.6,44.5
		l-2.6,44.5l-10.4,47.5l-5.2,23.7l-5.2,20.8v20.8l5.2,23.7l18.1,20.8l20.7,3h20.7l15.5-11.9l7.8-20.8l7.8-20.8l-7.8-23.7l-10.4-35.6
		l-10.4-35.6l-5.2-41.5l-4.5-61.9l1.9-50.8v-62.3v-35.6l2.6-29.7l10.4-56.4l15.5-26.7l20.7-14.8l10.4-8.9l28.5-5.9h13l20.7,3
		c0,0,15.5,3,15.5,5.9s5.2,17.8,5.2,17.8s-2.6,20.8-2.6,23.7c0,3,0,23.7,0,23.7l-7.8,23.7c0,0-2.6,11.9,0,14.8s10.4,11.9,10.4,11.9
		l7.8,3l7.8,3l13-3l5.2-5.9l2.6-11.9v-26.7l-5.2-35.6l2.6-26.7l5.2-20.8l13-14.8l15.5-14.8l15.5-5.9l13-3h5.2l25.9-3h18.1l23.3,8.9
		l25.9,14.8l15.5,17.8c0,0,7.8,26.7,10.4,29.7c2.6,3,2.6,32.6,2.6,32.6v44.5c0,0-2.6,32.6-2.6,35.6c0,3-2.6,32.6-2.6,35.6
		s-5.2,26.7-5.2,26.7l-7.8,23.7l-10.4,23.7l-5.2,26.7l2.6,20.8l16.8,22.3l37.3,9.9l31.4-5.6l16.2-17.4l7.1-15.2l2.6-25.6l-5.2-15.9
		l-7.8-11.9l-7.8-36c0,0-13-38.2-13-41.2c0-3-10.4-50.4-10.4-53.4c0-3-5.2-35.6-5.2-35.6v-17.8l5.2-62.3l10.4-23.7
		c0,0,10.4-17.8,13-20.8c2.6-3,13-11.9,15.5-11.9s5.2-4.2,5.2-4.2l25.9-1.7l7.8-3l2.6-5.9l-2.6-14.8v-17.8l-5.2-74.2l-5.2-17.8
		l-10.4-14.8L1801,535.7l-88.1-41.5l-25.9-14.8l-18.1,11.9l-23.3,5.9l-23,21.1l-49.6,14.5l-93.3,20.8l-90.7,14.8l-72.6,3l-49.2-8.9
		l-41.1,16.3l-36.6,7.4l-59.6-3l-62.2-11.9l-36.6-20l-17.8-18.5l-20.7-11.9L971.8,506l-7.8-17.8l5.2-14.8l-2.6-17.8L951,443.7
		l-5.2-11.9l2.6-14.8l5.8-16.7l10.7-14.8l19.8-19.5l13-14.2l10.4-11.9l5.2-20.8l-18.1,8.9l-51.8,20.8l-75.2,23.7l-150.3,53.4
		l7.8,8.9h7.8l15.5-3l15.5-3l18.1-5.9l36.3,3l36.3,3l20.7,5.9l10.4,8.9l7.8,8.9l5.2,14.8l-5.2,14.8l-7.8,3l-5.2,3l-5.2,5.9l-2.6,3
		l10.4,5.9c0,0,7.8,3,7.8,5.9c0,3,5.5,14.1,5.5,14.1l2.3,12.6l-5.2,8.9l-10.4,11.9l-20.7,20.8l-18.1,3l-20.7,3l-19.3,0.2h-14.3
		l-13-3.1l-10.4,3l-13,8.9l-7.8,3h-13l-7.8-5.9l-10.4-3l-7.8-3l-8.2,5.1l-12.6,4.9c0,0-9.7,0.4-12.6,1.1c-2.9,0.7-13.6-1.1-13.6-1.1
		l-24.9-4.1c0,0-11-3-13.6-3c-2.6,0-16.7,3.1-17.4,3.1c-0.7-0.1-11.1-2.3-13.7-1.2c-2.6,1.1-11-9.9-10.7-8.9
		c0.3,1.1-11.7-4.5-11.7-4.5l-8.7-0.4h-7.5c0,0-8.1,5.9-10.7,5.9c-2.6,0-5.2,5.9-7.8,8.9c-2.6,3-13,5.9-13,8.9c0,3-15.5,3-15.5,3
		h-13l-10,0.1l-10.8,5.9l-10.4,5.9l-5.2,5.9l-28.8,3l-10-8.9l-2.6-14.8l2.6-11.9c0,0-6.3-3-5.7-3s-15-3-15-3l-10.4-17.8l2.6-14.8
		l2.6-17.8v-11.9l-2.6-3l-28.5,8.9L93.3,624.7V645.5z"/>
	<path class="st5" d="M62.2,1241.7l2.6,17.8l10.4,17.8l7.8,14.8l10.4,17.8l13,8.9l13,14.8v14.8l-7.8,20.8c0,0,0,14.8-2.6,17.8
		s2.6,26.7,2.6,26.7l2.6,20.8l5.2,47.5c0,0,0,53.4,2.6,56.4s5.2,8.9,5.2,8.9l18.1,3c0,0,16.2-3,17.2-1.5c1,1.5,22.7,0.4,22.7,0.4
		l19.8,4.1l23.3,3h15.2h13.2l22.8-3l55.4-6.3c0,0,14.6-0.4,13.6-1.5s12-1.1,12-1.1h15.5c0,0,22.7,1.5,25.6,0.7s28.8-3.7,28.8-3.7
		l28.5-8.9l23.3-14.8l28.5-8.9l20.4-7.8l13.6-4.1l10.4-2.5l11,4.7l18.9,5.7l21.6,6.9l29.2,3.7l17.5-0.7h31.1l26.2,0.4l30.8-0.4
		l28.5,3l33.7,3l20.7,3l20.7-3l21.1-9.6l25.6-8.2l17.2-5.9l26.9-3l30.8,4.4l37.9-0.4l29.8-4.1h20.7l23.3-1.1l26.9-2.2l30.1-2.6h10.4
		l23.3,5.9l29.8,3.7l24.9,0.7l30.8,4.4h38.9l41.5,3l43.7-2.2l42.4-0.4l40.8-6.3l30.4-5.2l26.6-0.7l18.8,3l20.9,3.8l20.5,7l40.8,4.1
		c0,0,37.6,3.7,38.2,3.3c0.6-0.4,42.8-1.1,43.7-0.7c1,0.4,32.1,0.4,32.1,0.4l31.1-11.9l23.3-5.9l25.1-15.9l11.2-13.8l5.2-26.7
		l10.4-86l2.6-50.4l-2.6-38.6l-7.8-44.5l-13-20.8l-18.1-11.9l-28.5-3l-54.4-3l-57-3l-46.6-5.9l-31.1-3l-46.6,3l-33.7,3l-21.4,2.6
		l-1.9,15.2l2.6,23.7l7.1,36.3l5.8,26l9.4,26.5l8.4,25.4l0.3,25.2l-11.5,22.7l-19,16.6l-24,2.2l-15.5-5.9l-15.5-11.9l-5.2-20.8
		l-2.6-11.9l1-24.1l7.5-32.6l9.7-50.1l4.2-33.4l1-27.8l-28.5-4.1l-44.1-3l-54.4,3l-31.1,3l-32.8-1l-17.7-5.7l-1.3,9.6
		c0,0-0.6,12.6-0.3,15.2c0.3,2.6-10,17.4-10,17.4l-15.5,11.9l-14.6-0.4l-17.2-5.3l-11.1-10.7l-6.4-10.3l-5.2-20.8l5.2-5.9l-8.1-0.7
		l-12.2,2.3l-70.4,4.4c0,0-36.3-1.5-35-2.2c1.3-0.7-25.3-0.4-25.3-0.4l-20.1-0.4l-23.3,3l-49.2,5.9l-23.3,3l-18.1,11.9l-31.1,5.9
		h-38.9h-28.5H666l-141.9-2.2l-29.2-3.7l-15.2,0.4l-26.2-3.3h-23.3l-26.9,5.9l-53.4,11.9l-18.8,8.2l-38.2,6.7l-41.5,3l-42.4,4.1
		l-37.9,10.8l-46.6-3l-28.5-3L62.2,1241.7z"/>
	<path class="st5" d="M93.3,737.4l-13,26.7L70,796.7l-13,32.6L46.6,859l-2.6,23.7l-10.4,26.7l-13,50.4L9.9,989.6l13.4,5.9l13,5.9
		l13,8.9h13l15.5-5.9l10.4-8.9l10.4-3l13,3h13l15.5,3h25.9H184l13,2l17.1,2.3l21.3,2.2l19.4-3l19.9-0.5l33.7-3c0,0,33.7-5.9,33.7-3
		s23.3-3,23.3-3l18.1,3l20.7,9.8l23.4,5.1l20.7-2.5l15.5-0.5l18.1-7.9l15.5-4h13h10.4l21.6,8.9l17.3,4.9l38.9,4l25.9-5.9
		c0,0,14.7-2,17.7,0.5c3,2.5,20.2,1.9,20.2,1.9l17.3,3.5l17.3,3l15.5-4l13-4.9l13,3.7l13,5.2l15.5,3c0,0,9.5,0.1,12.5,4.5
		c3,4.4,14.6,1.5,14.6,1.5h11.8l18.1-5.9l15.5-5.9l15.5-5.9l18.1,3h15.5l31.1,3l31.1,3h35.5h26.7l26.8,0.5l22.5-0.5h20.7l18.1,8.9
		l15.1,1l21.2-1l18.2-3.2l15.4-2.7h10.4l4.9-5.9l0.2-35.6l-2.6-47.5l-2.6-26.7l-5.2-14.8l-13.4-4.7l-17.7,4.7l-13,17.8l-2.6,11.9
		v38.6v23.7l-0.7,14.3l-9.7,6.5h-7.8l-10.4-3l-5.2-11.9v-11.9l4.7-13.6l3.9-15.3l-0.8-15.6v-17.8l-5.6-12.3l-2.2-11.5l-7.3-9.8
		l-12.3-12.7l-8.9-7.1l-10.4-3l-13-8.9l-15.5-3l-15.4-2.5c0,0-15.7-0.4-18.3-0.4s-18.1,3-18.1,3s-10.4,8.9-13,11.9
		c-2.6,3-12.1,9.9-13.8,12.4c-1.7,2.5-9.5,11.4-9.5,14.3s-2.6,11.9-2.6,14.8c0,3,2.2,34,2.2,34l4.5,21.5l3.7,12.8v15.3l-7.8,14.3
		l-7.8,5.9l-10,3.6l-13.3-3.6L896,984.6l-3.5-23.6l8.1-32.4l3.9-40l-17.3-53.4l-19.9-25.7l-22.5-18.8l-20.3-5l-31.6-6.9l-28.5,5.9
		L738.5,802l-19.1,22.9l-12,25.2l-7.4,28.7l-0.4,15.8c0,0,5.8,20.1,5.5,21.9c-0.3,1.8-0.8,25.6-0.8,25.6l-9.9,11.9l-14.9,1.8
		l-8.4-7.8c0,0-7.8,0-7.8-5.9c0-5.9-4.7-19.5-4.7-19.5l10-22.4l2.5-18.4l-0.9-23.2l-2.2-21.8l0.4-13.2l-14.5-19l-8.8-13.8l-10.4-8.9
		l-10.4-3l-29,6.9l-17,8.5l-29.2,14.3l-34.6,5.9l-41.9-5.9l-37.6-11.9l-18.1-5.9l-13,3l-18.1,11.9l-23.3,14.8l-17.4,15.9l-15,18.9
		l-6.5,12.7l4.2,31.9l2.7,26.7l-12.1,6.7h-16.8l-5.6-7.4l-3.6-19.6l5.3-24.4v-25.7l-13-20.8l-20.7-17.8l-22.1-22.3l-9.9-11.8
		l-17.3-28.2l-25.9-5.9l-18.1,8.9l-2.6,15.3l-2.6,26.2v20.8l-2.6,14.8l-10.4,11.9h-13l-5.6-8.4l-4.8-15.3l4.3-27.7l4.3-21.3
		l-8.6-25.2l-15.5-8.9L93.3,737.4z"/>
	<path class="st5" d="M1215.4,1016.3l6.5-48.9l11.7-49l36.3-29.7l37.1-10.4l30.2-1.5l36.3,5.9l46.6,23.7l15.5,26.7l3.3,37.8
		l3.8,49.7l-3.8,5.5l-47.4,2h-41.5l-38.5-7.4l-21.1-7.4l-24.6,3.3l-15.6,7.1l-13.7,5.4c0,0-10.9-3.9-13.5-3.9s-10.4-5.9-10.4-5.9
		L1215.4,1016.3z"/>
	<path class="st5" d="M1479.7,1022.2l3.9-66.4l9.1-49.3l19.7-29.7c0,0,18.3-16.8,21.3-15.8c3,1,21.5-8.3,21.5-8.3s15.2-2.6,21.6-2.6
		s11.7,0,14.3,0c2.6,0,15.5,5.9,15.5,8.9s7.8,5.9,10.4,8.9s0.7,12.5,4.2,16.6c3.5,4.1-4.2,30.8-4.2,30.8l-2.4,24.1l-0.2,20.4
		l2.2,9.4l10.4,7.8l10.8,3.6l13-3l6.8-13.5l1.4-21.6l-1.5-17l-4.1-28l2.6-32.6l18.1-29.7l19-15.8l25.1-4.9l26.8-5.4l31.1,3.5
		l27.6,7.9l21.6,23.2l13.4,25.2l6.5,25.7v21.8v33.4l-3.7,58l-24,5.9l-85.9-0.5l-42.3-2l-47.9-0.5l-21.6,5.4l-42.3,14.1l-17.3-5.2
		l-31.5,0h-31.9L1479.7,1022.2z"/>
	<polygon class="st6" points="1124.7,583.2 1096.2,577.2 1078,571.3 1057.3,565.4 1041.7,556.5 1028.8,550.5 1023.6,538.7 
		1018.4,535.7 1000.3,526.8 984.7,514.9 977,514.9 966.6,497.1 966.6,482.3 966.6,467.5 966.6,458.6 956.2,446.7 948.5,443.7 
		948.5,428.9 942.7,415.3 956.2,396.3 966.6,381.4 982.1,369.6 995.1,351.8 1005.5,339.9 1010.6,319.1 1018.4,289.5 1020.4,264.1 
		1033.7,237.3 1047.7,215.8 1065.1,200.5 1085.8,176.8 1101.3,161.9 1124.7,141.2 1156.5,96.6 1191.7,62.5 1218,43.3 1243.7,27.2 
		1275,19.5 1290.5,4.7 1298.3,4.7 1311.3,22.5 1324.2,37.3 1339.8,49.2 1352.7,58.1 1365.7,70 1386.4,78.9 1404.5,90.7 
		1425.3,105.6 1443.4,114.5 1466.7,135.2 1490.1,150.1 1508.2,161.9 1536.7,182.7 1565.2,212.4 1575.6,236.1 1585.9,259.8 
		1591.4,289.6 1585.9,319.1 1578.2,345.8 1585.9,348.8 1622.2,351.8 1635.2,351.8 1645.5,351.8 1655.9,357.7 1666.3,369.6 
		1674,387.4 1674,411.1 1681.8,428.9 1681.8,449.7 1684.4,476.4 1675.9,491.9 1655.9,494.2 1637.8,503.1 1627.4,514.9 1609.3,526.8 
		1573,535.7 1536.9,544.8 1482.3,553.5 1435.6,562.4 1392.9,570.6 1357.9,571.3 1316.4,571.3 1290.5,571.3 1264.6,562.4 
		1241.3,574.3 1212.8,583.2 1184.3,583.2 1140.2,583.2 	"/>
	<path d="M1302.1,0.2c8.5,11.7,15.8,24.8,25.9,34.6c8.5,8.3,20.4,12.5,30.4,19.1c53.2,35,107.3,68.7,159.2,105.8
		c36.2,25.9,66.4,59.1,72.3,109.6c1.5,12.7,2.1,25.7,0.9,38.4c-1.1,11.9-5,23.5-8,36.9c18.9,0.9,37.8,2.2,56.8,2.6
		c19.9,0.5,34.2,13.7,36.8,35.8c1.9,16,2.7,32.3,5,48.2c1.8,12.3,4.8,24.5,7.9,36.6c0.9,3.4,3.5,7.2,6.3,8.9
		c11,6.7,21.9,14.2,33.8,18.6c46.4,17.1,89.4,40.3,126.5,75.7c2.3,2.2,5.3,3.7,8.2,4.8c29.9,11.4,53.1,33.7,76.5,55.6
		c10.9,10.2,16.4,23.6,17.5,38.7c1.2,17.1,1,34.2,1.8,51.4c0.5,10.7,1.4,21.5,2.4,32.2c2.7,27.4,7.5,54.7,7.8,82.2
		c0.4,33.9-4.2,67.8-3.9,101.7c0.2,17.8,6.2,35.5,9.5,53.3c1.2,6.6,3.3,13.4,3,20c-1.7,35.1,4,68.4,15.8,101.2
		c4.9,13.7,6.6,30.2,5.1,44.9c-5.5,56.2-13.4,112.2-19.3,168.4c-2.2,20.9-1.2,42.3-2.4,63.4c-1,19.2-0.9,38.8-4.8,57.3
		c-6.9,32.3-9.5,66.8-31.5,93.2c-2.9,3.4-5.7,7.6-9.5,9.3c-20.4,9.4-41.6,12.9-63.9,9.5c-13.8-2.1-28.1-2.8-42-1.8
		c-31.7,2.5-62-6.3-93-9.5c-31.7-3.2-64.1,2.1-96.1,2.6c-19,0.3-38-1.5-56.9-2.2c-19.8-0.8-40.2-5-59.3-1.3c-42.2,8-84,3.9-126,1.1
		c-10.6-0.7-21.5,3.2-32.1,3c-64.5-1.4-129-4.5-193.5-4.5c-20.5,0-41,7.1-61.3,11.8c-24.8,5.6-49.2,13.4-75.2,8.9
		c-7.4-1.3-15.3,1.6-23,2.3c-23.8,2-47.7,3.1-71.4,5.9c-11.1,1.3-21.8,6.3-32.7,9.1c-26.5,6.8-53,3.9-79.7,0.9
		c-29.8-3.3-59.5-0.3-89.4,5.7c-39.2,7.9-79.1,10.5-118.9,0.8c-27.3-6.7-54.9-7.3-82.3,0.1c-49.7,13.4-99.1,27.8-149.1,39.7
		c-21.4,5.1-43.9,4.9-65.9,6.8c-21.3,1.8-42.5,4.4-63.8,4.7c-27.2,0.4-54.5-0.7-81.8-2.2c-21.5-1.2-38.8-13.1-53.1-29.9
		c-2.4-2.8-3.6-7.8-3.7-11.8c-1.3-44.9-1.6-89.8-3.6-134.6c-0.8-18.1-5.4-35.9-8.3-53.9c-3.1-19.8-3.5-39.4,6-57.6
		c7.1-13.5-0.4-21.5-9-28.4c-28.2-22.6-43.4-55-46.3-90.5c-3.3-39.9-15.3-76.8-23.2-115c-1-4.9-3.9-9.6-6.3-14
		c-8.9-16.3-18-32.4-27-48.6c0-16.8,0-33.6,0-50.4c14.6-46.9,32.2-93,42.7-140.9c9.3-42.4,28-79.8,41.4-119.8
		c10.9-32.5,10.7-67-0.2-100.9c-1.8-5.6,1.3-15.7,5.3-20.3c5.3-6.1,13.6-9.9,21.1-12.9c31.4-12.7,62.8-25.3,94.6-36.7
		c28-10,56.6-18,84.6-27.7c34.1-11.8,68-24.4,101.8-37.1c4.5-1.7,9-5.4,11.8-9.6c28.2-41.9,67.5-68.5,107.2-95.2
		c47-31.6,96.2-56.4,150.7-68.1c23.5-5,40.5,5.7,45.5,29.7c0.3,1.4,0.2,3.7,1,4.1c21,11.8,12.2,29,7.3,45.5
		c-0.4,1.3,0.3,2.8,0.6,5.6c19-6.7,37.6-13.7,56.3-19.9c51.6-17.1,103.6-32.9,154.9-51.1c26.2-9.3,51.3-22.2,76.6-34.1
		c2.4-1.1,3.7-6.3,4.4-9.9c9.4-48.1,32.9-86.7,65.3-120.3c38.5-39.8,75.4-81.5,113.8-121.4c8.9-9.3,21.1-14.9,32-21.8
		c18.3-11.6,36.8-22.8,55.3-34.2c4.6-2.9,9.4-5.5,14.1-8.2C1293,0.2,1297.5,0.2,1302.1,0.2z M1269.8,551.1c1.7,3.2,3.1,9,5.2,9.3
		c37.6,5.7,75.3,10,113.3,3.3c35.1-6.2,70.2-12.2,107.5-18.6c-21.1-16.1-39.8-30.5-54.8-42c-10.1,3.9-17.4,8.5-25.1,9.3
		c-21.4,2.3-43.4,1.9-62.3-10.1c-14.7-9.3-23.2-2-32.4,7.9c-3.9,4.1-7.3,9.1-11.7,12.4c-13.1,9.9-26.7,19.3-40,28.8
		c2.1-3.4,3.6-7.5,6.4-10c20.4-18.4,41.1-36.4,62.2-55c-1.6-2.9-3.3-5.8-4.9-8.7c-24.2-46.2-48.1-92.6-72.6-138.6
		c-5.2-9.9-5-17.5,4-23.9c16.7-11.8,32.8-24.9,50.3-35c18.3-10.5,22.8-15.8,18.6-38.2c-4.7-25.1-10.5-50-16.1-74.9
		c-1.4-6.2-2.3-13.2-5.7-18c-22.9-32.6-24.6-73.3-36.5-111.5c-2.2,3.2-4.4,5.6-5.5,8.5c-10.7,26.5-21.1,53.1-31.8,79.7
		c-6.7,16.7-17.8,32.8-19.5,50.1c-2.7,26.9-16.1,45.7-31.4,63.3c-17.3,20.1-37.5,37.2-55.5,56.6c-31.6,34.1-30.1,76.7,1.8,100
		c12.4,9,26.3,15.4,39.4,23.3c9.9,6,20.6,11.1,28.8,19.1c4.3,4.2,7.1,14.9,5.2,20.7c-1.7,5.4-10.8,12.1-16,11.5
		c-19.6-2.6-38.9-8.1-58.4-12c-15.5-3.1-31.2-6.5-46.9-7.4c-5.4-0.3-11.1,6.6-16.7,10.2c3.6,4.4,6.5,11,11,12.7
		c22.4,8.4,45.4,14.8,67.8,23.1c18.7,7,37.2,14.8,55.1,24c15.6,8.1,23.6,30.1,19.1,47.8c-0.4,1.5-3.2,2.3-5.2,3.6
		c-0.9-2.2-2-3.7-1.8-4.8c4.6-22.4-5.6-37.7-23.2-44.3c-30.2-11.4-61.5-19-92-29.2c-14-4.6-27.5-11.1-40.8-17.6
		c-2.3-1.1-4.1-6.5-4-9.8c0.6-13.8,11.1-27,23.7-26.2c21.5,1.2,43,4.3,64.2,8.4c12.7,2.5,24.7,9.3,37.4,12.5
		c4.5,1.1,10.2-2.8,15.3-4.4c-2.3-6-3-14-7.1-17.4c-7-5.9-16.2-8.7-24.1-13.4c-16.2-9.7-35-16.8-47.6-30.5
		c-32.2-35-17.3-80.9,11.1-110.8c17.6-18.5,36.7-35.3,53.8-54.3c9.6-10.7,18.9-23.2,24.2-36.8c9-22.9,14.2-47.5,21.8-71.1
		c8.7-26.7,15.8-54.5,33.6-76.7c2.8-3.5,3.8-8.9,6.3-15.4c-14.1,6.9-25.5,12.9-37.2,18.3c-18.7,8.6-34.1,21.1-48.2,37.4
		c-26.1,30.3-53.7,59-81.3,87.6c-27.7,28.6-57.7,55.7-71.2,95.8c-8.4,25.1-11.3,52.3-17.8,78.3c-4,16.2-2.2,31,3.8,45.9
		c5.2,13,11.6,25.6,15.1,39.1c5,19.2,2,22.2-17.3,23.2c-13.5,0.7-27.1,1.4-41.9,2.1c0,6.2,0.2,11,0,15.9c-1.3,27.4,0.7,31,23.7,43.3
		c9.7,5.2,21,8.5,28.5,16.2c15.2,15.6,31.9,27.7,52,32.8c19.4,4.8,39.2,7.7,58.9,10.5c20.6,3,41.3,6,61-6c4-2.5,9.6-2,14.5-2.8
		c0.2,1.3,0.3,2.6,0.5,3.9c-4.4,2.3-8.8,4.7-13.2,7c0.4,1.2,0.8,2.4,1.2,3.5c14-4.8,28.4-8.8,42-14.6
		C1250.8,563.5,1260.1,556.8,1269.8,551.1z M834.9,798.9c-35-23.9-86.3-15.8-108.1,21.3c-16.9,28.8-31.3,60.3-18.8,97.5
		c4.3,12.8,2.8,27-9.6,35.6c-10.7,7.5-22.1,6.7-31.7-2c-10.4-9.4-10.4-22.2-6.3-35.3c8.1-26.3,9-52.6,1.6-80.4
		c-31.9,8.9-62.6,14.9-93.1,0.5c29.9-11.9,60.4-6.4,94.7-2.7c-8.1-14.2-14.1-26-21.2-37.1c-7.5-11.6-18-16.6-30.9-11.5
		c-10.6,4.2-22,7.4-31.2,14c-25.3,18.1-53.3,23.3-82.2,19.8c-20-2.4-39.6-9.2-59-15.3c-17.4-5.5-33-8.1-47.9,7.8
		c-7.9,8.4-19,13.3-28.9,19.3c-27.2,16.4-38.8,36.1-31,67.2c1.8,7,3,15.1,1.6,21.9c-1.4,7-5.6,17.8-10.1,18.7
		c-8.4,1.7-20,0.5-26.3-4.9c-5.6-4.9-7.3-16.9-7.9-26.1c-0.5-6.9,3.4-14.2,5.1-21.3c4.8-19.3-1.7-34.4-14.4-47.9
		c-11-11.7-21.2-18.3-38.4-12.9c-15.2,4.7-32.9,5.1-47.2-6.4c0-2-0.1-4-0.1-6c17-1.2,34-2.4,50.7-3.6c-5-7-10.3-14.8-15.9-22.4
		c-5.7-7.6-11.1-15.8-17.8-22.3c-16.3-15.7-37.3-8.9-40.9,13.9c-2.4,15.2-0.1,31.2-1.6,46.6c-0.8,8.6-3,20-8.5,24.2
		c-5.6,4.3-17.4,4.4-23.7,0.6c-5.4-3.2-7.7-14.1-9.6-22.1c-1-4.2,2-9.4,2.5-14.3c1.6-14.6,4.8-29.4,3.7-43.8
		c-1.1-13.8-11.8-21.9-24.1-24.8c-12.7-3-15.9,8.3-19.9,17.7C72,800.6,53.8,838,49.6,882.5c29.2-1.8,58.2-3.6,87.3-5.4
		c0.2,1.4,0.4,2.8,0.5,4.2c-5.5,1.5-11,3.5-16.5,4.2c-21.2,2.7-42.4,5.8-63.7,6.9c-10.1,0.5-13.9,4.1-16.3,14.5
		c-3.7,16.6-9.1,32.8-14.3,48.9c-3.4,10.4-7.8,20.5-11.8,30.9c9.9,4.5,18.6,6.8,25.4,12c14.2,10.8,26.4,9.4,39.6-2
		c5.6-4.9,14.3-10.7,20.1-9.2c20.4,5.4,40.7,6.8,61.6,6c29.7-1.1,58.5,9.8,89,4.6c32.5-5.5,65.9-4.7,98.9-6.7c1.8-0.1,4,0.2,5.4-0.7
		c11.7-8,22.6-3.3,33.5,2.2c29.4,14.9,58.3,16,89.5,3.4c15.2-6.1,35.5-7.9,50.5-2.2c38.8,14.8,77.5,13.5,117,9.7
		c6.6-0.6,14-0.2,20,2.5c17.6,8,34.2,5.9,51.6-1c6.3-2.5,14.3-2.8,20.8-1c11.8,3.2,22.9,9.4,34.6,13c6.6,2,14,2.2,21,1.9
		c31.2-1.6,59.1-22.7,92.7-14c23.9,6.2,49.6,5.4,74.5,6.1c28.5,0.9,57.2,1.8,85.5-0.7c15.6-1.3,29.2,0.7,43.7,5.9
		c11.8,4.2,24.6,7.4,36.9,6.9c18.2-0.8,36.2-5.2,56.5-8.5c-1.5-35.4-2.4-71.8-5.2-108c-0.4-5.7-9.2-14.8-14.5-15
		c-13.1-0.7-22,7.9-27.2,22c-7.9,21.7-2.9,42.5-0.5,64.1c0.9,8.2-3.5,21.2-9.3,24.9c-6.7,4.3-18.6,3.5-26.6,0.2
		c-9.6-4-10-15.7-7.9-25.9c1.7-8.1,5.1-15.9,6.5-24.1c9.3-54-17.2-92.5-71.3-107.1c-32.3-8.7-55.9,6.5-73.9,31.2
		c-15.5,21.3-16,47-3.9,72.3c8.3,17.3,3.3,40.7-9.3,49.8c-13.3,9.7-30.4,5.9-44.1-9.1c-13.7-15.1-6.9-31.1-2.2-47
		c11.9-39.7,8.3-77.1-15.4-110.4c-8.5-12-16.4-26.5-32.3-29.7C842.2,802,838.6,800.4,834.9,798.9z M1151.1,1175.2
		c-12.4,1.9-23.9,5.1-35.4,5.2c-34.9,0.1-69.8-0.9-104.7-1.6c-10-0.2-20-2-29.8-1.1c-21.6,2-43.1,4.8-64.5,8
		c-10.2,1.6-20.8,3.5-30.1,7.9c-18.3,8.5-36.7,13.2-56.7,12.6c-22.3-0.7-44.6,0.5-66.8,0.4c-77.7-0.2-155.4-0.4-233-1
		c-10.3-0.1-21.3-6.5-30.6-4c-16.9,4.5-32.3,0.6-48.2-2.7c-4.9-1-10.1-2.4-14.8-1.5c-22.7,4.1-45.6,7.7-67.9,13.6
		c-30.6,8.2-59.9,22.7-92.5,20.4c-6.3-0.4-12.7,0.6-19,1.3c-19.8,2.4-41.2,0.7-59,8.4c-30.4,13.2-59.3,9.1-89.4,3.2
		c-11.4-2.2-23.5-0.4-36.7-0.4c4.6,29.9,16.2,50.8,35.1,68.1c22.6,20.6,22.1,23.3,11,53c-3.2,8.5-6.6,18.2-5.6,26.9
		c5.1,46.4,11.2,92.7,17.9,138.9c0.8,5.5,7.7,14.3,11.7,14.2c27.6-0.4,55.2-2.7,82.8-4.6c9.1-0.6,18.1-1.9,28.8-3
		c-2.4,6.8-3.4,9.9-5.8,16.7c31.5-4.5,60.1-8.7,88.7-12.8c5.8-0.8,11.6-1.9,17.4-1.9c21.8-0.2,44.9,5.1,65.2-0.9
		c40.4-11.8,79.2-30,118.9-44.9c6.6-2.5,15.3-4.5,21.4-1.9c36.2,15.2,73.5,19.5,112.1,19.1c41.7-0.3,83.4,3.6,125.2,4.9
		c17.7,0.5,35.6,8.9,53.3-2.4c22.8-14.4,48.4-20.3,74.3-20.8c40.9-0.8,81.3-10.5,122.9-2.4c22.1,4.3,46-1.7,69.1-3.2
		c9.9-0.6,19.8-3,29.6-2.1c13.8,1.3,27.3,6.5,41.1,7.3c63,3.5,126,7.3,189.1,8.4c28.3,0.5,57.2-2.4,85-8.5c33.4-7.3,67-8,98.2,2.2
		c37.6,12.3,74.8,13.7,112.8,13c11.8-0.2,23.7-0.6,35.5,0c29.5,1.6,56.3-8.6,82.8-20.7c21.5-9.8,38.1-23.5,34.4-52.8
		c-0.3-2.3,0.8-4.8,1.2-7.2c9.1-57.6,14.4-115.7,8.4-173.8c-2-19.2-13.4-38.3-24-54.8c-4.8-7.5-17.8-11.5-27.3-12.1
		c-24.3-1.7-48.9,0.2-73.2-1.1c-24.9-1.3-49.6-4.6-74.5-7c-22.1-2.1-44.2-6-66.2-5.6c-23.9,0.4-47.8,5.3-71.7,6.9
		c-10,0.7-13.3,3.5-12.8,14.8c2,38.5,11.7,74.7,25.7,109.7c7.5,18.5,9.5,37,4.2,56.2c-6.8,24.6-25.6,39.6-48.8,39.5
		c-23-0.1-43.4-15-47.8-40.1c-2.8-16.2-1.4-34.3,2.1-50.6c8.7-41.2,18.8-82,19.7-126.2c-14.2-1.7-27.6-3.8-41-4.8
		c-23.5-1.7-47.6-6.6-70.5-2.9c-29.2,4.6-57.7,12.3-86.9,2.4c-8.9,39.6-22.1,52.5-50.3,50.2
		C1167.1,1225.2,1154.7,1209.8,1151.1,1175.2z M534.9,640.9c-6.2-5-10.3-11.1-14.9-11.6c-18.4-2-37-2.5-55.6-3
		c-13.9-0.4-27.8-0.3-41.6,0c-28.1,0.7-56.2,0.6-84.2,2.8c-26.7,2.1-53.8,2.7-79.2,14.3c-1.9,0.9-4.5,0-6.8,0
		c-47.8,0-95.5,0.2-143.3-0.4c-9.7-0.1-12,4-11.3,13c0.9,10.8,2.8,21.7,2.3,32.4c-1.1,19.7-1.7,35.9,20,46.3
		c23.8,11.4,24.2,36.2,19.4,61.3c-2.4,12.4-3.2,25.3-2.8,38c0.1,3.8,6.7,10.2,10.6,10.3c4.1,0.2,9.6-4.8,12.2-9.1
		c2.1-3.5,0.6-9.5,1-14.3c1.8-21.8,3.3-43.7,5.8-65.4c0.4-3.8,5.1-10,8.1-10.1c18.1-0.9,37.4-2.8,49.5,16.3
		c15.7,24.8,34.6,45.6,57.4,62.4c0.7,0.5,1.3,1.4,2.1,1.9c18,14.7,23.9,33.6,17.4,57.2c-2.3,8.5-5.4,17.2-5.4,25.8
		c0,6.4,2.9,15.9,7.3,18.4c5.4,3.1,14.6,2.5,20.1-0.7c3.1-1.8,3.2-12,2.9-18.3c-0.6-12.2-2.4-24.4-4-36.6
		c-2.9-22.4,11.5-34.5,24.8-45.9c15.6-13.3,32.4-25.1,49.6-35.8c6.8-4.3,16.7-7.2,24.1-5.3c17.5,4.5,34.3,12.5,51.5,18.4
		c31.6,11,62.5,10.7,92-8c8.2-5.2,16.4-11.4,25.3-14.3c45-14.9,57.8-7.2,74.5,30.4c15.5,34.9,15.5,71,4.6,107.9
		c-2.2,7.4,1,17.8,4.3,25.5c1.4,3.2,11.4,5.9,14.2,3.7c5.7-4.3,11.1-11.5,13-18.6c1.9-7-0.4-15.5-1.5-23.2
		c-6.2-43.5,4.1-80.6,36-109.2c33-29.5,102-28.3,132.1,3.7c43,45.7,55.1,90.4,30.1,154c-4.3,11-0.4,29.8,8.8,37.8
		c9.1,7.8,19.1,8.9,29.1,1.9c12.1-8.3,12.6-20.8,9.5-34.1c-1.7-7.2-5.3-13.9-6.2-21.1c-6.8-53.3-5.8-67.8,37.6-97.9
		c13.6-9.4,27.6-7.5,40.4-5c21.9,4.3,46.1,8.5,63.8,21.5c27.3,20.1,35.5,73.7,22.9,108.3c-3.9,10.8-4.4,21.9,5,29.5
		c3,2.4,9.9,2.6,13.3,0.4c9.5-6.1,6.8-16.1,6.3-26.4c-1-21-1.5-42.3,1-63c2.2-17.5,26.5-33.3,40.6-29.8c12.2,3,19.6,19.2,18.6,39.6
		c-0.4,7.9-0.3,15.8-0.1,23.7c0.8,39,3,77.9,2.3,116.9c-0.7,40.7-1.2,82.1-26.7,116.7c-2.8,3.7-2.7,11.5-1.5,16.7
		c4.3,19.5,24.9,32.5,42.7,26.6c31.9-10.7,31.4-34.4,16.5-66.4c-6.1-13.2-11.9-28-12.8-42.4c-3.6-58,4.9-115,14.8-171.8
		c3.3-18.7,12.8-31.4,26.9-40.5c28.9-18.6,60.2-28.2,93.7-22.5c20.8,3.5,42.1,8.2,61.3,17.1c21.3,9.8,35.3,28.8,36.9,55.8
		c1.8,30,4.5,60,5.5,90c3.1,91.1,9.2,182.2-20.6,270.9c-5.7,17-1.5,40.7,4.3,58.9c7.3,22.8,34.7,29.9,54.3,18.6
		c20.7-12,29.3-43.5,21.8-64.8c-10.7-30.1-22.5-61-25.7-92.6c-5.5-53.3-5.9-107.3-6.1-161c-0.2-41.4,1.8-82.9,5.7-124.1
		c1.8-18.9,7-40,17.2-54.9c27.3-40.3,66.7-47.8,109.9-37.4c10.4,2.5,22,21.4,20.4,33c-3,22.3-6.6,44.5-9.7,66.8
		c-1.8,12.9,4.6,21.2,14.8,25c10.3,3.8,18.9-1.7,20.9-12.8c1.8-10.2,0.1-21.1-0.5-31.7c-1.1-19-5.5-38.4-3.1-56.7
		c3.6-27.1,18.9-50.6,42.1-59.2c22.6-8.4,48.4-10.1,72.5-9.1c16.2,0.6,33.8,8.1,47.7,17.7c31,21.3,37.9,57.5,37.2,93.6
		c-1.3,63.9-2.3,128.2-28.8,188.2c-10.6,23.9-5.8,42.7,8.8,56.7c20.9,20,55.4,20.3,76.6,0.6c17.2-15.9,19.3-36.5,6.1-57.6
		c-2-3.2-3.4-7-4.4-10.7c-7.1-27-14.4-53.8-20.8-81c-13.5-57.4-20.6-114.8-7-174c6-25.9,20.9-44.3,37.6-59.9
		c7.4-7,23.9-2.4,36.3-3.2c0.7,0,1.3-1.2,3.5-3.4c-2.8-6.3-6-13.1-8.9-20.1c-1.6-3.9-3.9-8.2-3.6-12.1c0.9-14,4.1-27.9,3.8-41.8
		c-0.7-43.6-2.1-45.9-42.2-36.5c-23.2,5.4-46,7.1-69.6-2.3c-34-13.5-68.6-25.2-106.2-20.1c-12.1,1.6-24.9-4.6-37.4-5
		c-16.7-0.5-33.6-0.2-50.1,2.4c-16.3,2.5-33,6.2-48,13.1c-13.2,6.1-25.3,7.8-39.3,5.8c-16.9-2.4-34.8-5.1-51.1-1.4
		c-55.6,12.7-111.8,12.6-168,15.2c-7.7,0.4-15.6-1-23.2,0.3c-10.4,1.8-20.4,5.8-30.7,8.1c-4.5,1-9.4,0.5-14-0.1
		c-18.3-2.3-36.5-6.8-54.8-6.9c-33.5-0.2-67,3.5-100.5,3c-23.4-0.3-46.4-1.9-70,0.9c-35.5,4.3-71.7,8.1-107.2,5.2
		c-75.9-6.2-151.6-16.3-227.3-25.9c-20.9-2.6-42.4-6.1-61.9-14.1c-19.3-8-38.2-15.3-58.9-14.9C569.5,625.9,548.5,620.8,534.9,640.9z
		 M1482.1,1030.5c0,43.9,0.1,88.3-0.1,132.7c0,8.7,4.7,9.6,10.7,9c15.4-1.5,30.7-3.6,46.1-4.4c22.5-1.1,45.2-2.6,67.6-1.3
		c23.5,1.3,46.7,7.3,70.2,8.6c37.4,2.1,75,2.2,112.5,3c17.1,0.4,43.1,20.8,46.2,38.9c4,23.1,7.7,46.6,8.5,70
		c2.2,60.4-9,119.6-15.6,179.2c-0.3,3-1.9,6.8-4.1,8.4c-31.4,22.7-65.1,38.5-103.6,39.7c-25.4,0.8-50.9,0.8-76.2,3.4
		c-23.6,2.4-45.4-0.4-67.5-10.2c-34.5-15.4-71.8-17-107.1-7.3c-46.4,12.6-93.1,5.8-139.5,10c-28.7,2.6-58.1-2-87-4.9
		c-33.3-3.4-67.3-0.5-99.5-12.9c-2.4-0.9-5.3-0.7-8-0.5c-28.9,2.1-57.7,4.1-86.6,6.5c-10.8,0.9-21.7,2.3-32.3,4.5
		c-24.2,5-48.3,16.5-72.2-2c-2.8-2.2-7.9-1.4-12-1.3c-31.1,0.1-59.5,11.1-87.4,24.9c-4.5,2.2-10.2,3-15.3,2.6
		c-37.1-2.5-74.2-6.3-111.4-8c-53.2-2.4-107.2,5-158.5-18.2c-4.5-2-10.9-1.7-15.6,0.1c-34.6,13.2-69.2,26.2-103.2,41
		c-18,7.8-36.1,8.9-54.7,8c-7.7-0.4-15.5-3.4-22.9-2.5c-16.5,1.9-32.9,8-49.4,8c-45.5-0.1-90.8,11.5-136.6-1.6
		c-16-4.6-34.1-0.7-52.5-0.7c0,12.6-0.9,23.5,0.3,34c0.8,6.5,3.8,13.7,7.9,18.7c17.2,21,40.4,28.5,65.1,28
		c40.3-0.8,80.6-2.7,120.8-6.2c29.2-2.6,58.5-6.9,87.2-13.3c32.3-7.1,64.2-17,96.1-26.4c38.1-11.3,76.5-15.3,115.6-7.3
		c39.8,8.1,79,6.1,118.9-1.9c27.3-5.5,56-3.8,84.1-4.2c20.7-0.3,42.8,6.5,61.9,0.9c47.6-13.9,96.2-13.6,144.3-17.4
		c27.8-2.2,54.8-5.6,81.8-12.8c23.1-6.2,46.4-13.1,70.8-8.8c11.6,2,23.5,2.7,35.3,2.8c42.7,0.2,85.4-0.1,128-0.1
		c8.1,0,16.3,0.8,24.4,0.6c15.7-0.3,31.5-1.6,47.2-1.5c25.3,0.1,50.8,3.1,76,1.2c34.4-2.6,68.3-9,103-0.6
		c14.1,3.4,29.9,2.7,44.2-0.3c35.8-7.5,71.5-2.8,107.2-1.8c2.6,0.1,5.4,1.3,7.8,2.4c22.5,10.4,46.1,9.4,69.8,8.8
		c16.2-0.4,32.5-0.5,48.5,1.3c47.3,5.3,68.8-13,82.7-59.7c13.9-46.5,14.6-94.4,17.3-142.5c2.9-51,10.8-101.7,16.1-152.6
		c2.8-27.1,7.7-53.5-2.3-81.4c-8.4-23.3-10.1-49.5-14.2-74.5c-2.9-17.7-5.1-35.6-7.3-53.5c-2.2-18.5-7.5-37.5-5.3-55.4
		c5.5-43.9,4.9-87.5,1.4-131.3c-0.7-9.2-5.3-13.2-12.1-12.3c-12.4,1.6-24.6,3.2-34.6,14.4c-32.6,36.7-35.9,82.8-31.6,128.6
		c5.6,59.9,21.1,117.8,43.9,173.3c7.6,18.4,6.6,38.9-4.6,56.7c-17.2,27.4-58.6,35.5-87.5,17.6c-26-16.1-32.8-45.5-19.3-79.8
		c10.3-26.2,18.2-53.1,20.5-83.1c-14.9,1.9-28.3,5.4-41.6,5.1c-49-1.2-97.9-4.1-146.9-5.1c-9.8-0.2-19.6,5.4-29.5,8.1
		c-11.2,3.1-22.3,8-33.6,8.4C1550.2,1031.3,1517.1,1030.5,1482.1,1030.5z M12.4,994.8c-8.3,36.3-6.7,67.2,16.4,93.9
		c5.4,6.3,11.8,13.6,13.4,21.5c7.8,38.3,14.3,76.9,20.8,115.5c1.7,10,5.9,12.2,14.9,11.4c12.4-1.2,25-0.4,37.4,0.1
		c20.2,0.8,41.5,7.3,60.2,2c26.6-7.5,53-11.8,80.2-13.8c31.1-2.3,62.8-1.3,91.8-17.2c3.9-2.2,8.7-2.7,13.1-3.5
		c19.6-3.7,39.2-7.5,58.9-10.7c10.9-1.8,21.9-3.2,32.8-3.3c10.7-0.1,21.3,1.8,32,2.6c24.4,1.9,48.8,4.8,73.2,5.4
		c40.8,1,81.6,0.2,122.5,0.7c20,0.2,39.9,2.4,59.9,2.2c28.6-0.2,57.3-0.9,85.8-3.1c16.1-1.2,32.8-3.1,47.6-9.2
		c17.3-7.1,34-12.7,52.7-11.2c5.8,0.5,11.7-1.1,17.6-1.6c24.3-2.3,48.5-5.9,72.8-6.5c27.2-0.6,54.5,2.4,81.7,2
		c17.5-0.2,37.2,1,51.9-7c11.7-6.3,20.5-24.7,24.8-39.6c5.5-19.4,6.6-40.7,7.2-61.3c1.4-42.9-1.9-44.8-41.3-36.1
		c-12.7,2.8-27.9,6.6-38.8,1.8c-24.1-10.6-47.3-9.9-72.6-9c-45.2,1.5-90.6-3.5-135.9-6.5c-21.4-1.4-41.6-3.4-63.4,5.2
		c-25.3,10-53.2,16-80.3,0.4c-15.4-8.9-31.8-10.1-48-0.5c-2.8,1.6-7.1,1.4-10.4,0.6c-29.5-6.7-59-7.7-89.1-4.2
		c-24.4,2.8-48.5,0.8-71.3-12.3c-16.5-9.5-35.3-5.4-51.6,1.3c-30.6,12.6-59.9,14.8-89.8-1.4c-7.1-3.8-15.5-7.3-23.1-6.8
		c-25.9,1.7-51.7,5.6-77.6,7.8c-19.9,1.7-39.9,2.8-59.8,3c-12.8,0.2-25.7-1.5-38.5-2.7c-8.6-0.8-17-2.7-25.6-3.2
		c-15.1-0.8-30.7,1.4-45.2-2c-14.7-3.4-27.2-5.4-38.8,7.2c-3.1,3.4-7.4,6.3-11.6,7.4c-5.4,1.5-12,2.9-16.9,0.9
		C38.9,1009.4,26.4,1002,12.4,994.8z M471,614.8c23.1,2.8,45.5,10.9,65.5,6.4c20.5-4.6,40-5.3,59.9-3.4c17.7,1.7,35.2,7,52.5,11.9
		c7.8,2.2,14.6,9.2,22.4,10.5c40.8,6.9,81.6,13.7,122.7,18.6c47.8,5.7,95.7,10.9,143.8,13.5c29.8,1.6,59.8-1.3,89.6-3.3
		c21.2-1.4,42.7-8.4,63.5-6.2c36.8,4,73.4,8.2,109.8,1.1c33.5-6.6,67.1,8.4,100.3-2.2c1.7-0.5,3.6-0.1,5.4-0.1
		c17.3,0,34.6,0.8,51.8-0.2c14.7-0.9,29.3-4.5,44-5.4c8.9-0.6,18,3,26.8,2.1c15.3-1.6,30.4-5.4,45.5-8.2c30.5-5.6,61-10.1,91.9-2.3
		c5.1,1.3,12-0.5,16.6-3.5c17-11.3,35.3-14.8,54.7-14.6c13.2,0.2,26.4-0.8,39.5-0.7c14.3,0.1,28.5,1,42.8,1.1
		c7.9,0,15.8-0.7,23.6-1.4c4.4-0.4,9.1-2.9,13.2-1.9c21.6,5.1,43.1,10.8,64.6,16.5c18.4,4.9,36.6,13.7,55,14.2
		c20.3,0.6,40.7-6.2,64.6-10.5c-7-6.7-12.2-12.8-18.4-17.3c-39.8-28.9-78.8-59.3-120.1-85.4c-27.9-17.6-59.3-28.9-89-43.3
		c-6.6-3.2-12.8-7.5-19.4-10.6c-2.8-1.3-6.5-1.6-9.5-0.8c-9.8,2.4-19.6,5.3-29.1,8.6c-4.7,1.6-9.9,3.7-13.3,7.3
		c-9.9,10.6-18.2,22.1-33.8,25.1c-51.4,9.9-102.5,21.6-153.8,31.7c-59.9,11.8-120.1,19.2-181,7.4c-7-1.4-15,2.1-22.3,4.3
		c-15.9,5-31.6,14.6-47.6,15.2c-44,1.7-88.2,0.7-131-13c-10.7-3.4-21.3-7.7-31.4-13c-9.9-5.2-18.6-11.8-26.4-21.6
		c-7.1-8.8-20.3-11.9-30.9-17.2c-19.7-9.8-26.4-21.7-21.6-44.4c3.1-14.5-1-23.6-11.3-31.7c-3.4-2.7-7.9-6.9-8.1-10.7
		c-1.1-15.6-2.6-31.7,9.4-44.4c7.8-8.3,15-17.1,22.4-25.7c10.3-12,20.5-24.1,30.1-35.6c-91.6,31.4-182.8,62.5-273.9,93.7
		c0.4,1.8,0.8,3.6,1.2,5.4c5.8-1.2,11.5-2.4,17.3-3.5c16-3,31.9-7.3,48-8.5c13.7-1,27.6,1.4,41.3,2.6c17.6,1.5,35.2,3.3,52.8,5
		c1,0.1,1.9,1.3,3.6,2.5c-3.6,1.6-6.3,2.9-11,5c18.6,12.3,19.2,29.5,12.8,49.2c5.5,0,9.4,0,13.3,0c0.1,0.8,0.1,1.5,0.2,2.3
		c-9.2,2.5-18.4,5-28.7,7.8c19.1,16.6,27.1,35.1,17.9,49.8c-9.4,15-23.5,26.5-34.3,38.2c12.7-2.2,28.5-5,44.3-7.8
		c0.2,2.2,0.5,4.3,0.7,6.5c-14.1,1.8-28.2,4-42.3,5.2c-8.9,0.8-17.8,0-26.8,0.4c-18,0.9-36.8,6.1-53.8,1.9c-14-3.5-22.6,1.6-33,8.7
		c10.3,0,20.5,0,30.8,0c-4.1,2.1-8.2,2.4-12.2,2.1c-19.7-1.7-40.7,6.5-58.7-9.2c-1.5-1.3-5.6-1.1-7.3,0.1c-24.9,18.3-51,4-76.6,3.8
		c-5.4,0-10.7,1.4-16.1,1.5c-10,0.2-27.3,3.3-28.8-0.6c-7.7-19.6-23.2-12.5-35.2-15c-3.4-0.7-8.6,8.9-12.9,13.7
		c3.9,3,7.5,6.4,11.6,8.9c2.8,1.6,6.2,1.8,9.4,2.6c-0.1,1.3-0.3,2.6-0.4,3.9c-16.5-0.9-33.1-2.1-49.6-2.5
		C496.1,605.5,482.3,599.3,471,614.8z M1353.6,69.2c7.9,8.6,13.3,16,19.9,21.5c39.2,32.7,80.8,61.1,97.3,118
		c11.4,39.5,17,77,5.7,116.6c-1.6,5.7-4.7,12.1-9,15.4c-21.8,16.8-44.1,32.8-66.3,48.9c-16.5,12-30.5,26-35.8,48
		c-4.2,17.4-0.7,31.4,13.3,39c14.5,7.9,29.3,10.4,45.3,0.4c21.4-13.4,44.1-24.5,66.4-36.1c10.9-5.6,15.2,6.1,21,11.8
		c1.6,1.6-2.1,9.4-2.9,14.4c-0.5,3,0,6.2,0.2,9.3c0.5,5.2,2.3,10.6,1.5,15.6c-2.9,18.3-0.1,23.7,16.8,24.1
		c8.7,0.2,18.3-2.2,26.1-6.4c19-10.3,37.4-22.1,55.7-33.7c10.6-6.7,30.8-6.5,34.7,2.2c6.1,13.8,14.9,14.2,25.6,8.4
		c10.7-5.8,13.6-17.7,10.5-30.7c-4-16.7-7.7-33.9-8.7-51c-1.1-17.9-7.1-32.4-18.6-44.4c-7.3-7.6-14.4-8-21.6,1.6
		c-10.8,14.3-21.4,29.4-34.5,41c-10,8.9-23.3,16.5-35.7,17.9c-9.3,1-22.2-6.5-28.9-14.6c-7.7-9.4-3.7-23.2,3.9-32.6
		c7.7-9.5,17.1-17.3,25.8-25.8c3.3-3.2,7.8-5.6,10-9.5c11.3-20.2,14.3-41.7,10.5-65.3c-7.7-47.1-35.8-78.9-69.6-103.5
		C1463,134,1411,102.3,1360.1,68.9C1359.5,68.5,1358.5,68.9,1353.6,69.2z M1481.8,1020.5c13.7,0,25.5-0.1,37.2,0
		c19.7,0.1,39.7-1.5,59.2,1.2c14.3,2,25.6-1,37-9.3c4.6-3.3,10.7-5.8,16.2-5.9c30.2-0.5,60.4-0.2,90.6-0.2c1.8,0,3.7,0,5.4,0.5
		c28.7,8.3,57.7,4.9,86.6,2.1c18.6-1.8,24.7-9.2,25.9-30.3c0.6-11.8-1.2-24.1,1-35.5c5-25.8,0.3-50.3-7.2-74
		c-3.5-11.1-10.5-22.1-18.5-30.2c-26.2-26.4-57.7-27.1-91.5-22.7c-54.4,7.1-73.4,57.4-65.3,103.8c2.5,14.4,3.7,29.4,3.7,44
		c0,5.8-4.6,15.9-8.2,16.6c-10.6,1.9-22.8,2.8-32.4-1.3c-10.6-4.5-15.6-15.6-12.3-30.3c4.3-19,7.5-38.6,8.9-58.1
		c1.5-20.2-9.1-31-27.6-34.3c-26.6-4.8-49.5,4.6-69.8,21.3c-9,7.5-17.7,17.9-22.1,29.1C1484.7,942.5,1482.7,980.5,1481.8,1020.5z
		 M1416.3,501.3c-15.6-6.3-33.2-13-50.4-20.8c-3.9-1.8-8.7-7.1-9.2-11.2c-3.5-32.2,2.8-63.7,32.1-83.7c16.9-11.5,34.8-21.5,51-34.1
		c10.3-8,22.3-17.6,27-29.5c23.3-58.9-4.2-108.8-27.3-159c-0.8-1.7-2.5-2.8-3.9-4.1c-21.6-20.2-43.3-40.2-64.8-60.5
		c-5.4-5.1-10.2-10.8-15.1-16.5c-10.5-12.1-20.7-24.7-31.5-36.5c-9.2-10-19.3-19.1-30.3-30c-8.8,3.7-15.9,18-11.7,27.9
		c4.4,10.5,7.9,21.4,11.7,32.1c7,19.6,12.1,40.2,21.5,58.4c8.7,16.7,14.2,33.4,16.2,52.3c1.9,17.5,3.4,35.9,9.7,51.8
		c8.6,21.8,4,40-15.3,50.3c-14.9,8-29,18-42.4,28.8c-10,8.1-12.9,19.5-5.8,32.7c22.6,42.1,44.3,84.7,67.3,126.5
		C1358.1,500,1394.7,510.8,1416.3,501.3z M575.8,509.9c1.8-0.6,3.6-1.3,5.4-1.9c3.4,5.9,7.7,11.4,9.9,17.8
		c3.8,11.5,9.1,9.5,14.4,2.5c3-4,4.9-9.4,6-14.5c1.9-9.4,2.9-19,4.2-28.5c27.7,3.9,27.7,3.9,37.8-27.1c17.6-2.3,17.3-2.5,27-21.1
		c2.6-5,7.6-9.6,12.4-11.9c9.4-4.6,21.2-22.6,17.9-32.8c-3.8-11.9-14.5-11-24-10.8c-1.8,0-3.7-0.1-5.4,0.6
		c-24.3,9.2-48.8,17.8-72.6,28.2c-9.8,4.3-17.8,13.4-27.4,18.8c-51,28.5-97.9,62.8-134.4,111.7c-0.9,1.2-2.7,1.6-4,2.4
		c-1-0.9-2-1.9-2.9-2.8c7.4-11.2,13.3-24.4,22.6-33.2c18.6-17.7,38.5-34.1,59.1-49c21.8-15.7,44.8-29.6,67.9-43.2
		c16.9-10,34.5-18.6,52.1-26.9c10.4-4.9,21.6-7.9,32.4-11.8c-0.2-1.7-0.4-3.3-0.6-5c-6.9,0-14.8-2.4-20.5,0.4
		c-30.6,14.6-60.7,30.6-91.1,45.9c-4.6,2.3-9.6,3.5-14.4,5.2c-0.2-4.4,0.3-6,1.4-6.5c32.7-16.9,65.6-33.2,97.9-50.8
		c13.3-7.2,23.7-4.1,35,4c4.5,3.3,10.6,4,15.9,5.9c0.6-8-0.3-12.8-2.6-16.7c-10.6-17.5-26.6-14.4-41.6-10.7
		c-38.7,9.5-75.1,25.5-109.2,47.3c-23.8,15.2-49.3,28-70.7,46.5c-24.2,20.9-46.1,45.6-66.1,71.3c-8.7,11.3-12,29-14.1,44.5
		c-1.8,13.5,7.5,20.5,21.1,19.7c0.9-7.7,1.8-15.6,2.8-23.5c1.7,0.1,3.5,0.2,5.2,0.3c0,11.5,1.9,23.5-0.4,34.4
		c-4.1,19,0.1,26.7,18.1,28.4c10.2,1,17.3-2.7,24.2-11c4.2-5,11.6-7.6,18.1-9.5c5.1-1.5,10.8-0.2,16.3-0.3c18.7-0.3,32.3-11,40-28
		c3.2-7-0.9-17.7-1.5-26.8c-0.1-0.7,0.9-1.5,4.2-6.4c4.4,12.4,7.9,22.4,12.8,35.9c7.9-6.4,15.9-11.3,22.1-18.1
		C588,539.9,584.4,524.8,575.8,509.9z M1439.8,1031.4c-23.2,0-43.7-2-63.8,0.5c-25.9,3.2-50.4,0.3-75.2-7.3
		c-11.8-3.6-25.6-5.3-37.2-2.2c-15,4-28.4,15.4-45.2,4.8c-5.2,35.9-9.9,69.1,0.1,102c6,19.8,13.3,40.1,36,42.6
		c15,1.6,30.8,2.4,45.5-0.8c27.9-6.1,55.4-6.1,83.3-2.6c18.7,2.4,37.6,3.5,56.5,5.1C1439.8,1125,1439.8,1078.9,1439.8,1031.4z
		 M755.3,471.1c-0.2-0.9-0.3-1.7-0.5-2.6c7.9-2.5,16.4-8.5,23.6-7c26.9,5.4,55.1,4.6,80.4,18.5c3.2,1.8,7.2,4.5,10.1,3.8
		c6.6-1.7,14.1-3.9,18.7-8.7c3.3-3.4,5.2-14.1,3-16.9c-7-8.6-15.5-19.2-24.9-21.2c-25.6-5.4-52.4-11.3-77.9-8.6
		c-26.1,2.8-51.4,14.3-78.7,9.1c-3.3-0.6-8.2,2.9-11.1,5.9c-7,7.1-13.3,15-20.3,23.1c7.8,0.7,13.3,1.2,18.9,1.8
		c-0.1,1.8-0.2,3.6-0.2,5.4c-11.6,0-23.1,0-34.6,0C658,497,655.7,499.2,633,501c-0.9,0.1-2.1-0.3-2.7,0.1c-1.9,1.5-3.5,3.3-5.3,4.9
		c1.7,1.7,3.5,4.9,5.2,4.9c5.8-0.1,11.9-0.2,17.2-2.4c13-5.5,25.3-12.7,38.3-18.1c26.3-11,53.8-4.4,80.7-4.8c0.5,0,1,1.4,3.1,4.4
		c-5.4,0.5-9.4,1.2-13.5,1.3c-15,0.1-30.1-0.7-45,0.3c-8.4,0.6-17.5,2.3-24.6,6.7c-16.6,10.3-33.3,19.2-52.9,19.9
		c-3,0.1-5.9,3-8.9,4.6c55.3,1.5,58,1.9,70.5,13.7c-10.2-1.9-17-3-23.6-4.5c-16.8-3.6-33.1-5.9-47.1,9.3c-2.9,3.2-8.9,4.2-13.4,4.1
		c-5.9-0.2-11.7-2.5-16.8-3.6c-2.4,6.1-3.7,10.2-5.6,14c-4.1,7.7-6.1,14.9,0.4,22.6c9.6,11.4,20.3,4.3,30.5,2.5
		c7.9-1.4,9-7.9,8.6-15.6c-0.2-4.5,1.4-9,2.2-13.6c1.7,0.3,3.4,0.5,5.1,0.8c0,10.5,0,21,0,29.8c21.4,14.8,19-13.7,31.6-18.5
		c-0.6,4.7-0.4,7.7-1.5,9.8c-6.3,12.1,1,16.2,9.4,15.5c8.2-0.6,16-5.6,24.1-7.9c5.7-1.6,13.6-5.1,17.3-2.5
		c17.1,12,32.5,5.1,48.8-1.3c5.9-2.3,13.7-4,19.3-1.9c30.1,11.5,81.1-2.5,101.8-29.2c11.4-14.8,8.1-31.9-8.4-39.7
		c-5.6-2.6-12.3-2.2-18.5-3.6c-8.9-2.1-17.6-4.7-26.4-7.1c0.4-1.6,0.8-3.3,1.2-4.9c11.4,2,22.7,4.1,34.1,6.1c0.3-1.5,0.7-3.1,1-4.6
		c-12.5-4.9-24.7-10.9-37.5-14.5c-12.6-3.5-25.6-5.5-38.6-6.7C780.7,470.2,768,471.1,755.3,471.1z M1217.4,1017.6
		c13.1,7.7,22.1,7.1,32.4,0.9c10.7-6.4,22.6-13.4,34.3-14.2c28-2.1,56.3-1.1,84.4-0.4c7.5,0.2,15,3.9,22.5,6
		c-0.2,1.4-0.5,2.8-0.7,4.2c-23.7,10-48.1,0.3-75,2.1c10.5,3.7,18.4,8.8,26.4,8.9c28.1,0.5,56.3-0.9,84.4-1
		c10.2,0,13.8-4.6,12.6-15.3c-2.2-20-4.2-40.1-6.1-60.2c-1.8-18.7-12.3-31.3-24.9-42.1c-23.3-20-51.4-25.7-79.5-25.5
		c-31.4,0.2-60.2,13.2-85.5,34.1c-2.7,2.2-5.7,5.5-6.4,8.8C1229.7,955.4,1223.5,987,1217.4,1017.6z M387.9,519.8
		c-96.7,38.9-195.4,63.5-287.2,110.6c11.6,2.9,22.8,4.4,34,4.5c31.7,0.4,63.4,0.4,95.1,0.3c8.5-0.1,18.4,1.3,25.4-2.6
		c32.9-18.6,68.9-12.8,103.5-17.3c10.7-1.4,21.8,0.2,32.6,1.4c17.7,2,19.1,1,20.1-18.9c0.2-3.3,0-6.6,0-9.8
		c-22.3-2.4-26.5-7.2-26.2-31.6C385.4,545.3,386.8,534.2,387.9,519.8z M1496.1,450.5c-24.3,4.3-38.5,24.9-60.1,39.1
		c19.5,14.6,36.5,27.1,53.3,39.9c14,10.6,29.1,11.6,45.1,7.6c20.8-5.1,41.4-11.2,62.5-14.3c17.6-2.6,28.3-14.1,38.1-27.7
		c5.8-8,2.1-15.5-7.4-15.5c-4.3,0-9,1.4-12.7,3.8c-20.9,13.7-41.6,27.9-62.3,41.9c-22.4,15.1-53.9-0.7-56.4-28.9
		C1495.1,481.7,1496.1,466.6,1496.1,450.5z M996.6,358.8c-13,15.6-27.7,31.7-40.6,49.3c-12.7,17.2-7.6,31.7,12.4,36.8
		c10,2.6,20.6,3.2,31,3.4c18.9,0.2,21.2-3.6,15.8-22.8C1009,403.7,1003,381.9,996.6,358.8z M1627,357.3c-13-1.6-22-2.2-30.7-3.9
		c-20.7-4.1-36.7,1.3-47.9,22.3c-6.4,12-5.4,20.6,3.5,29.8c9.2,9.6,17.6,8.4,26-0.8c9.6-10.5,18.9-21.3,28.8-31.3
		C1611.9,368.1,1618.2,364.1,1627,357.3z"/>
	<path d="M845.9,803.5c-0.5,2.7-0.6,7.6-1.7,7.8c-26.5,6.2-52.4,4.5-77.6-7.6c21.9-17.4,45.5-5.7,68.4-4.9
		C838.6,800.4,842.2,802,845.9,803.5z"/>
	<path d="M721.3,1347.8c6.3-1.4,12.7-3.9,19-4c84.6-0.8,169.2-1.3,253.8-2c4.9,0,10-1.1,14.5-2.9c33.8-13.3,68.7-12.7,103.8-9.1
		c4.2,0.4,8.3,2.7,12.5,7.6c-9.5,2.2-18.8,5.3-28.4,6.4c-30.3,3.4-60.6,7.4-91,8.6c-87.7,3.4-175.4,5.8-263.1,8
		c-7,0.2-14.1-3.5-21.2-5.3C721.3,1352.6,721.3,1350.2,721.3,1347.8z"/>
	<path d="M365.2,1439.8c10-1.3,20.1-2.5,30.1-3.9c20.3-2.8,41.8-1.9,60.5-9.5c36.4-14.8,75.3-10.4,112-21.9
		c11.3-3.5,24.4-0.6,36.7-0.6c0.3,1.4,0.5,2.9,0.8,4.3c-7.7,3.5-15.2,8.6-23.3,10.3c-29.9,6-60,10.5-89.9,16.3
		c-24.9,4.9-49.6,12-74.6,15.8c-14.6,2.2-29.7-0.2-44.6-1c-2.6-0.1-5.2-2.6-7.7-3.9C365.1,1443.8,365.1,1441.8,365.2,1439.8z"/>
	<path d="M159.2,1310.1c7.7-1.9,15.3-3.9,26.9-6.8c-17-1-29.9-1.7-45-2.5c19.8-9.1,147.9-20.2,163.4-13.8c-10.1,3-18,5.4-26,7.8
		c0,0.7,0,1.4,0.1,2.1c16,0,32,0,48,0c0,1.4,0,2.8,0.1,4.1c-55.4,9.1-110.8,17.6-167,14.2C159.4,1313.6,159.3,1311.9,159.2,1310.1z"
		/>
	<path d="M1572,1264.1c5.8-3.1,11.3-8,17.4-9c60.2-10,120.5-18.1,181.6-12.1c5.6,0.5,11,2.3,16.5,3.5c-0.1,1.8-0.1,3.7-0.2,5.5
		c-71.2,6.5-142.5,13-213.7,19.5C1573.2,1269.1,1572.6,1266.6,1572,1264.1z"/>
	<path d="M1618.4,1320.6c-2.5-11.2,3.3-16.7,12.7-17.4c33-2.4,66.1-4.7,99.2-6.1c6.8-0.3,13.8,3.3,20.7,7.7
		c-38,17.2-79.4,5.4-116.2,20.2c-4.1,3.9-7.7,10.4-12.3,11.4c-16.3,3.3-33.5,8.8-50-5.9C1586.4,1316,1602.4,1325.1,1618.4,1320.6z"
		/>
	<path d="M964.9,1237.2c-81.9,3.9-163.8,7.7-245.8,11.6c-0.3-1.4-0.6-2.7-1-4.1c4.1-2.1,8.1-5.6,12.5-6.2
		c76-11.5,152.2-13.9,228.6-6.1c2,0.2,3.9,1.4,5.9,2.2C965,1235.5,965,1236.3,964.9,1237.2z"/>
	<path d="M1544.8,1459.4c-42.9,4.5-85.8,8.8-128.7,13.5c-14.9,1.7-29.6,5.1-44.6,6.4c-7,0.6-14.1-2.2-23.5-3.9
		C1368.2,1453.9,1506.4,1443,1544.8,1459.4z"/>
	<path d="M844.2,1305.4c11.3,0,22.6,0,33.9,0c0,0.8,0,1.6,0.1,2.4c-76,2.9-152,5.8-227.9,8.7c0-1.8,0-3.6-0.1-5.4
		c24.5,0,48.9,0.2,73.4-0.2c4.7-0.1,11.4-0.5,13.8-3.7c9.1-12.3,21.5-14.1,34.3-14.7c18.6-0.8,37.3-1.9,55.8-1.1
		c6.2,0.3,12.2,5.9,18.3,9.1C845.2,1302.2,844.7,1303.8,844.2,1305.4z"/>
	<path d="M940.1,1429.5c-67.6,7.2-135.2,14.5-204.3,21.9C746.4,1433,901.4,1416,940.1,1429.5z"/>
	<path d="M281.5,1475.4c-47,7.2-94,14.3-141,21.5c-0.8-2.2-1.7-4.4-2.5-6.6c3.5-3.4,6.6-8.7,10.6-9.8
		c41.5-10.9,83.4-19.3,126.5-13.7c2.1,0.3,4.1,1.5,6.1,2.3C281.3,1471.3,281.4,1473.4,281.5,1475.4z"/>
	<path d="M1288.9,1219.5c41.8,0,81.8,0,124.8,0c-10.4,13.9-98.3,26.7-123.7,21.4c4.1-4.1,7.5-7.5,11.6-11.6
		C1297.5,1226.1,1293.8,1223.2,1288.9,1219.5z"/>
	<path d="M1014.7,1433.8c71.4-4.8,142.8-5.2,214.1,1.3C1210.3,1444.7,1036.8,1444.1,1014.7,1433.8z"/>
	<path d="M1726.7,1472.4c-8.7,1.9-17.3,5.5-26,5.5c-29,0.2-58.1-0.3-87.1-1.7c-8.3-0.4-16.7-4.3-24.7-7.5c-2.2-0.9-3.3-5.1-4.9-7.9
		c2.6-1.1,5.3-3.3,7.8-3.2c34.9,1.2,69.8,2.6,104.7,4.4c10.1,0.5,20.2,2.7,30.3,4.1C1726.7,1468.3,1726.7,1470.3,1726.7,1472.4z"/>
	<path d="M394.2,1282c18.8-14.7,135.5-23.3,158.6-11.6C522.8,1281.2,407.4,1289.7,394.2,1282z"/>
	<path d="M261.2,1396.3c-20.1,5.3-37,10.2-54.1,14.2c-23,5.4-46.1,10.4-69.2,15.1c-2.9,0.6-6.3-1.9-9.5-3c1.4-2.8,2.1-6.4,4.2-8.2
		C150.9,1398.7,235.1,1385.6,261.2,1396.3z"/>
	<path d="M373.5,1386.4c-40.5,16.6-82.2,26.6-127.5,26.7C258,1394.9,346.7,1376.3,373.5,1386.4z"/>
	<path d="M625.6,1315.1c-10.5,2.7-17.6,5.4-24.9,6.2c-27.9,3-55.9,5.6-83.9,7.7c-3.5,0.3-7.3-3.3-11-5.2c2.2-2.8,3.9-7.4,6.5-8.1
		c34-9.6,68.2-15,103.2-6.4C617.9,1309.8,620,1311.8,625.6,1315.1z"/>
	<path d="M1042.4,1256.7c59.8-8.6,119.1-6,177.9,12.1c-59.2-2.4-118.4-4.9-177.6-7.3C1042.6,1259.9,1042.5,1258.3,1042.4,1256.7z"/>
	<path d="M1039.1,1214.1c9-17.8,84.4-23.8,108.4-8.7C1136,1216.5,1054.5,1223,1039.1,1214.1z"/>
	<path d="M1090,1305.4c-32.9,17.8-102.4,18.9-124.8,0.7C1008.7,1300.1,1049.3,1301.8,1090,1305.4z"/>
	<path d="M517.7,1350.9c-19.2,17.6-91.2,27.1-104.7,14.6C422.2,1352.8,497.5,1341.8,517.7,1350.9z"/>
	<path d="M370.8,1508.3c40.8-5.4,81.6-10.8,125.3-16.6c-16.7,21.7-98.3,33.5-124.7,21.1C371.2,1511.3,371,1509.8,370.8,1508.3z"/>
	<path d="M360.9,1336.8c-10.6,4.1-18.3,8.4-26.5,10.1c-20.4,4.2-41.1,7.5-61.7,10.6c-3.2,0.5-6.8-2.6-10.3-4c2-3,3.3-7.8,6-8.8
		c27.9-10.7,56.3-18.4,86.2-13C355.8,1331.9,356.7,1333.3,360.9,1336.8z"/>
	<path d="M900.2,1368.9c-6.9,6.6-10.3,12.8-14.5,13.5c-21.8,3.6-43.7,6.1-65.7,8.1c-3,0.3-6.3-5.1-9.5-7.9c3-2.3,5.8-6.3,9.1-6.8
		c21.1-3.4,42.3-6.3,63.5-8.9C887.3,1366.4,891.6,1367.8,900.2,1368.9z"/>
	<path d="M1321.6,1386.6c-47.5,7-91.3,5.3-138.1,0.6C1196.8,1375.3,1299,1375.4,1321.6,1386.6z"/>
	<path d="M610.1,1385.8c32.3-3.7,62.2-7.1,94.6-10.7C692.8,1399.9,625.7,1407.5,610.1,1385.8z"/>
	<path d="M1766,1383c-6.2,2.9-12.1,7.7-18.5,8.5c-29.8,3.6-58.5-3-86.7-14.3c34.5,0,69,0,103.5,0
		C1764.9,1379.1,1765.4,1381,1766,1383z"/>
	<path d="M1000.1,1396.9c36,0.8,69.2-4.8,104.9,1.6C1080.4,1417.2,1017.1,1417.1,1000.1,1396.9z"/>
	<path d="M616.5,1481.1c30.1,0,59.9,0,89.6,0C681.6,1502.9,628.1,1501.2,616.5,1481.1z"/>
	<path d="M341.6,1233.6c18.1-14.1,80.3-13.2,95.4,0.5C423.8,1243.3,362.3,1243.4,341.6,1233.6z"/>
	<path d="M1346.5,1418.8c2.3-1.7,4.9-5.2,6.9-4.8c22.4,3.8,44.7,8.2,67,12.6c1.9,0.4,3.5,2.5,5.4,4c-16.2,16.4-48.9,11.2-79.5-12.1
		L1346.5,1418.8z"/>
	<path d="M764.7,1408.1c-15.1,12.1-66.1,14.7-79.7,4.8C696.4,1399,747.7,1395.4,764.7,1408.1z"/>
	<path d="M336.3,1480.7c-2.3,2.9-3.3,5.3-4.5,5.5c-22.6,3-45.2,5.9-67.9,8.2c-2.3,0.2-4.9-4.2-7.4-6.5c1.7-1.9,3.4-5.4,5.2-5.6
		c22.9-2.1,45.8-3.7,68.7-5.2C331.8,1476.9,333.3,1478.7,336.3,1480.7z"/>
	<path d="M1342.1,1292c16.9-15.9,56.2-17.7,69.1-3.8C1399.1,1300.4,1360.2,1302.9,1342.1,1292z"/>
	<path d="M583.5,1266.7c10.8-22.2,54.3-19.4,71.7,5.6C630.3,1270.4,607.6,1268.6,583.5,1266.7z"/>
	<path d="M1309.8,1459.3c-12.7,13.9-49.3,14.6-69,1.3C1252.5,1449.6,1297.3,1448.7,1309.8,1459.3z"/>
	<path d="M1259.8,1311.5c17.8-13.6,37.9-16.7,58.7-15.7c1.9,0.1,5.1,3.7,5,5.7c-0.1,2.8-2.2,7.6-4,8
		C1299.8,1313.4,1280.2,1320.6,1259.8,1311.5z"/>
	<path d="M1591.3,1191.6c-21.5,5.6-40.9,8-61.4,1.2C1538.7,1175.4,1577.2,1174.6,1591.3,1191.6z"/>
	<path d="M1500,1425.9c19.6-7.7,38.1-8.6,58.3-3.4C1544.7,1440.3,1514.1,1442.4,1500,1425.9z"/>
	<path d="M978.6,1295.7c-19.6,7.4-38,9.1-57.1-0.6C935.5,1282.1,963.8,1282.2,978.6,1295.7z"/>
	<path d="M1587.1,1417.1c19.6,2.3,37.4,4.4,56.2,6.6C1632.6,1441.7,1602.9,1438,1587.1,1417.1z"/>
	<path d="M1140.1,1354.1c8.5-3.5,16.9-7.6,25.6-10.2c2.3-0.7,5.8,3.1,8.8,4.9c-1.8,3.5-3.1,9.7-5.5,10.2c-8.8,1.9-18,2-27.1,2.8
		C1141.3,1359.2,1140.7,1356.6,1140.1,1354.1z"/>
	<path d="M1537,1292.5c8.4,0,16.8-0.4,25.2,0.2c2.5,0.2,4.7,3.3,7.1,5.1c-2.6,2.1-5.3,6.1-7.8,5.9c-8.6-0.6-17.1-2.6-25.7-4.1
		C1536.3,1297.3,1536.7,1294.9,1537,1292.5z"/>
	<path d="M1346.2,1418.4c-4.4,1.8-8.9,5.3-13.1,5c-5-0.4-9.9-4-15.1-6.3c10.4-8.2,16.5-7.7,28.5,1.7
		C1346.5,1418.8,1346.2,1418.4,1346.2,1418.4z"/>
	<path d="M1355.4,1348.8c5.3-1.6,10.5-4.3,15.8-4.4c2.9-0.1,6,4,9,6.2c-2.9,2.3-5.9,6.5-8.7,6.4c-5.4-0.1-10.7-2.7-16-4.3
		C1355.4,1351.4,1355.4,1350.1,1355.4,1348.8z"/>
	<path d="M402.4,961.3c58.8-4.7,117.6-10.4,176.2,2.2C519.7,976.5,461,974.4,402.4,961.3z"/>
	<path d="M528.2,867.1c-34.9,5.3-69.8,10.6-104.7,15.9c-7.6,1.2-15.2,3.6-22.8,3.5c-4.4,0-8.9-3.7-13.3-5.7
		c3.6-3.7,6.6-9.3,10.8-10.7c9-3.1,18.6-5,28-5.7c28.8-2,57.7-3.4,86.6-4.5c5.2-0.2,10.5,2,15.8,3.1
		C528.4,864.5,528.3,865.8,528.2,867.1z"/>
	<path d="M608.4,973.4c11.4-11.8,91.6-17,108-7.9C704,983.7,629.4,989.6,608.4,973.4z"/>
	<path d="M848.2,867.5c-32.5,10.7-65.6,5.8-98.4,5.6c-3.3,0-6.5-5.5-9.7-8.5c3.1-2.9,6.1-8,9.3-8.2
		C782.8,854.3,816.2,853.6,848.2,867.5z"/>
	<path d="M543.3,916.9c2.6-1.6,5.2-3.2,8.3-5c-3.5-2.3-6.3-4.1-9.1-5.9c10.3-18,43.7-21.8,64.7-7.1c-5.4,3.3-10.3,6.3-16.6,10.1
		c6.7,1.6,12.3,2.9,17.9,4.3c-0.1,1.7-0.1,3.5-0.2,5.2c-21.5,1.4-43,2.8-64.6,4.2C543.6,920.7,543.4,918.8,543.3,916.9z"/>
	<path d="M1068.8,900.2c-38-1.8-73.3-3.5-111-5.4C973.7,870.8,1044.6,875.1,1068.8,900.2z"/>
	<path d="M175.3,957.2c-38.7,15.4-75.9,6.9-112.7-7.4C100.5,946.2,138.1,947.6,175.3,957.2z"/>
	<path d="M719.4,971.8c35.3-6.4,67.2-5.9,101.8-3.9C802.8,988.1,740.8,990.8,719.4,971.8z"/>
	<path d="M345.4,964.7c-35,12.3-69.1,14-105.5,13.7C257.4,960.1,323.5,951.6,345.4,964.7z"/>
	<path d="M847.9,887.3c-15.6,15.1-67.8,16.1-83.1,1.5C777,877.2,831.7,876.2,847.9,887.3z"/>
	<path d="M475.5,907.1c-19.9,14-41.9,13.8-63.9,13.5c-2.6,0-6.1-4.2-7.4-7.3c-0.7-1.7,2.3-7.2,4.2-7.6
		C430.8,901,453.2,895.8,475.5,907.1z"/>
	<path d="M879.9,920.8c-18.8,13.2-42.7,16.6-60.3,9.2C829.2,914.7,862.4,909.2,879.9,920.8z"/>
	<path d="M199.5,895.6c-19.3,12-38.4,11.2-58.7,5.2C151.3,885.9,184.6,882.8,199.5,895.6z"/>
	<path d="M960.6,980.6c13.2-8.6,39.8-4.4,51.8,7.6C1001.7,999.8,972.1,996,960.6,980.6z"/>
	<path d="M185.9,912.5c19-7,37.8-6.9,56.4,2.4C223.3,926.6,204.6,921.1,185.9,912.5z"/>
	<path d="M1022.7,935.6c-14.3,12.2-27.2,13.3-41.3,4.4C989.2,925.6,1004.8,923.6,1022.7,935.6z"/>
	<path d="M378.2,831.8c10.6-1.2,21.1-2.8,31.7-3.3c1.9-0.1,4.1,4.2,6.1,6.4c-2.1,2.2-4.1,6.3-6.3,6.4c-10.3,0.7-20.6,0.3-30.9,0.3
		C378.6,838.3,378.4,835,378.2,831.8z"/>
	<path d="M756.4,907.7c-12.5,11.3-22.3,11.6-35.7,1.7C729.8,897.4,742.2,896.5,756.4,907.7z"/>
	<path d="M1028.4,962.2c11.6-11.9,22.3-12.3,34.5-2.2C1054.3,971.7,1044.7,972.5,1028.4,962.2z"/>
	<path d="M1064.8,935.3c9.8-5.2,17.6-5.7,23.4,3.6c0.8,1.3-2.3,7.7-4.5,8.4C1074.3,950.3,1068.8,945.1,1064.8,935.3z"/>
	<path d="M1046.6,1000.1c10.4-14,19.5-14.5,28.3-1.4C1065.5,999.2,1056.1,999.6,1046.6,1000.1z"/>
	<path d="M1146,924.1c6.4,0,12.8-0.2,19.2,0.4c0.5,0.1,0.6,5.7,0.9,8.7c-6.8,0-13.7,0-20.5,0C1145.8,930.2,1145.9,927.2,1146,924.1z
		"/>
	<path d="M882.3,630.1c-39.2,0-78.5,0-117.7,0c-0.2-0.4-0.3-0.8-0.5-1.2c7-1.4,14-2.8,21.5-4.2c-49.3-5-98.1-9.9-147-14.9
		c0.1-1.7,0.1-3.3,0.2-5c86.4-2.3,172.8-4.5,257.2-6.7c3.3,3.5,6.1,6.6,10.3,11.1c-47.4,0-94.7,0-142,0c-0.1,1.6-0.1,3.3-0.2,4.9
		c39.5,3.8,78.9,7.7,118.4,11.5C882.4,627.2,882.3,628.7,882.3,630.1z"/>
	<path d="M1085.4,604.4c43.1,4.6,85.3-10.3,129.8-5.3c42.5,4.8,86.1-1.8,129.2-3.3c0.1,2.3,0.3,4.7,0.4,7c-8.7,0.8-17.3,2-26,2.4
		c-19,0.9-38.1,1-57.2,2.2c-43.9,2.6-87.8,6.9-131.8,7.9C1115.2,615.6,1100.3,608.2,1085.4,604.4z"/>
	<path d="M1740.5,550.8c-100.7,16.2-202,21.8-303.9,19.1c25.9-2.2,51.8-5.3,77.7-6.3c31.2-1.3,62.6,1.1,93.7-1.6
		c33.8-2.9,67.2-9.8,100.9-14.6c10.3-1.5,20.7-1.5,31-2.2C1740.2,547.1,1740.4,549,1740.5,550.8z"/>
	<path d="M1709.3,564.3c-37.6,5.7-75,12.8-112.8,16.7c-25.1,2.6-50.6-0.8-75.8,0.9c-36.6,2.4-73.1,7.1-109.7,10.7
		c-3.1,0.3-6.3,0-9.5,0c-0.1-1.6-0.2-3.1-0.3-4.7c102.6-8.6,205.1-17.2,307.7-25.8C1709,562.8,1709.1,563.5,1709.3,564.3z"/>
	<path d="M1421.8,596c59.6,0.2,119.5-3.8,178.6,8.3c0,1.4-0.1,2.7-0.1,4.1c-59.6-2.6-119.1-5.2-178.7-7.8
		C1421.7,599.1,1421.8,597.6,1421.8,596z"/>
	<path d="M1644.2,516.7c31.1-8,61.6-4,92,9.2c-34.6,4.5-69.1,9-103.7,13.5c-0.2-1.1-0.4-2.3-0.5-3.4c21.1-4.2,42.3-8.3,63.4-12.5
		c0-0.9,0-1.8,0-2.7c-17.1,0-34.3,0-51.4,0C1644.1,519.5,1644.2,518.1,1644.2,516.7z"/>
	<path d="M1426.3,611.2c-36.5,3-73,6-109.5,9c-0.1-1.2-0.2-2.5-0.3-3.7c36.7-3.3,73.3-6.6,110-9.9
		C1426.5,608.1,1426.4,609.6,1426.3,611.2z"/>
	<path d="M818.5,405.2c23,0,45.9,0,68.9,0c0,1.1,0,2.2,0,3.3c-23,0-46.1,0-69.1,0C818.4,407.4,818.5,406.3,818.5,405.2z"/>
	<path d="M1274.2,637.2c-22.5,1.9-44.9,3.8-67.4,5.7c-0.1-1-0.2-2.1-0.3-3.1c22.4-2.3,44.9-4.7,67.3-7
		C1273.9,634.3,1274,635.8,1274.2,637.2z"/>
	<path d="M1035.6,587.1c11.7-1.2,23.5-2.3,37.7-3.8c-12,17.1-26,2.8-36.9,9.9C1036.1,591.2,1035.8,589.1,1035.6,587.1z"/>
	<path d="M1083.9,631.2c16.6-1,33.2-2,49.8-2.9c0.1,0.9,0.1,1.8,0.2,2.8c-16.7,1.2-33.5,2.3-50.2,3.5
		C1083.8,633.5,1083.9,632.3,1083.9,631.2z"/>
	<path d="M1092.6,505.7c24,4.6,48.1,8.9,72,13.9c12.5,2.6,17.2,13.8,19.7,25.7c2.1,10-6.2,20.3-18.6,20.2
		c-21.5-0.1-43.5,2.1-63.9-10c-26.9-15.9-54.2-30.8-81.4-46.1c0.7-1.5,1.3-2.9,2-4.4c15.9,9.1,32.5,16.9,47.5,27.6
		c20.1,14.3,40.9,24.9,65.1,26.6c7.7,0.6,15.7,2.4,23,0.8c7.3-1.6,18.9-5.6,19.7-10.5c1.8-10-4-20.2-14.9-23
		c-13.2-3.4-26.6-5.8-40-8.6c-10.5-2.2-21-4.3-31.5-6.4C1091.8,509.7,1092.2,507.7,1092.6,505.7z"/>
	<path d="M1298.5,462.9c-35.1,21.9-73.2,30.4-113,31.6c-0.4-1.9-0.9-3.9-1.3-5.8c37.7-10.3,75.3-20.6,113-30.9
		C1297.6,459.4,1298.1,461.1,1298.5,462.9z"/>
	<path d="M1193.4,406.4c-17.6-7.1-34.8-15-46.7-32.3c-8-11.6-8.3-25.6-0.7-38.2c10.2-16.8,20.4-33.6,30.6-50.3
		c2-3.3,4.5-6.2,6.8-9.3c1.2,0.9,2.4,1.8,3.5,2.7c-10.2,17.5-19.4,35.9-30.8,52.4c-14.7,21.3-13.8,36.8,6.8,51.8
		c10.2,7.5,21.5,13.3,32.3,19.8C1194.6,404.2,1194,405.3,1193.4,406.4z"/>
	<path d="M1278.7,213.4c13,16.1,14.5,38.6,2.4,52.5c-10,11.4-22.3,20.3-33.5,30.3c-0.9-1-1.7-2.1-2.6-3.1c5-5.1,9.4-11,15-15.3
		c26-19.8,27.5-24.1,19.1-57.9C1278.6,218.3,1278.8,216.4,1278.7,213.4z"/>
	<path d="M1058.6,266.5c21.7-3.5,38.9,8,56.3,18.5c-0.5,1.5-1,3.1-1.5,4.6C1095.1,281.9,1076.8,274.2,1058.6,266.5z"/>
	<path d="M1264,105.3c-5.5,20.1-11.1,40.2-16.6,60.3c-1.2-0.4-2.5-0.8-3.7-1.2c5.5-20.1,10.9-40.2,16.4-60.3
		C1261.4,104.5,1262.7,104.9,1264,105.3z"/>
	<path d="M1173.8,324.8c0,15.7,0,31,0,43.8C1163.8,359.4,1162.9,344.9,1173.8,324.8z"/>
	<path d="M1081.1,242.7c9.2,1.6,18.5,3.3,27.7,4.9c-0.2,1.7-0.5,3.4-0.7,5.2c-9.2-1.6-18.5-3.3-27.7-4.9
		C1080.6,246.2,1080.9,244.4,1081.1,242.7z"/>
	<path d="M1181.5,157.7c7.1,1.4,14.2,2.9,21.3,4.3c-0.3,2.1-0.6,4.1-0.9,6.2c-7.1-1.3-14.2-2.6-21.4-3.9
		C1180.9,162.1,1181.2,159.9,1181.5,157.7z"/>
	<path d="M1561.1,447.2c-16,1.7-23.7-7.2-32.1-15.6c-8.5-8.5-17.6-16.7-27.4-23.1c-11.1-7.2-15.1-16.8-12.9-29.7
		c2.4-14,8.4-25.1,21.2-29.6c1.7,1.8,3.4,3.5,5.1,5.3c-4.2,2.7-9.4,4.5-12.5,8.3c-13.3,16-9.6,33.2,8.1,42.6
		c5.6,2.9,10.8,7.2,15.4,11.8c5.4,5.3,9.4,12.2,14.9,17.2C1545.9,438.8,1552.3,441.7,1561.1,447.2z"/>
	<path d="M1559.2,308.9c-23.3-4.1-46.7-8.2-70-12.4c24.9-13,46.7,7.9,70.7,4.4C1559.7,303.6,1559.4,306.3,1559.2,308.9z"/>
	<path d="M1660,420.1c-5.6-2.3-13.2-2.8-16.3-7.1c-10.2-14.1-19.8-15-31.1,0.8c-0.8-1.8-1.5-3.6-2.3-5.5c4.3-4.3,8-10.1,13.1-12.3
		c4.1-1.8,10.8-0.9,14.7,1.8c8,5.5,14.9,13,22.2,19.6C1660.2,418.3,1660.1,419.2,1660,420.1z"/>
	<path d="M1413.9,473.4c-29.9,0-43.9-22.5-31.9-47.6c1.7,8.9,1.1,21.8,6.4,30C1393.8,464,1405.1,467.7,1413.9,473.4z"/>
	<path d="M1532,468.5c8.3,21.5,8.3,21.5,32,17.7c-8,11-17.2,14.5-27.5,8.1C1527.4,488.8,1528.4,479.5,1532,468.5z"/>
	<path d="M1794.3,870.7c-5.5,3.1-10.8,7.4-16.7,9.1c-30.6,8.8-61.4,17.2-92.2,25.1c-3.9,1-8.8-2.1-13.2-3.3c3-3.7,5.4-9.7,9.1-10.7
		c31.8-9.4,63.8-18.2,95.9-26.4c5.1-1.3,11.1,1.2,16.7,2C1794,867.9,1794.1,869.3,1794.3,870.7z"/>
	<path d="M1584.3,991.7c-18.2,14-72.2,15.2-87.7,2C1508.1,982.2,1569.7,980.8,1584.3,991.7z"/>
	<path d="M1497.7,924.7c14.9-17.3,72.8-23.5,93.9-10.5C1560.2,924.5,1530.8,927.3,1497.7,924.7z"/>
	<path d="M1702.6,959.7c32.5-3.3,61.4-6.1,92.5-1.1C1776.9,976.7,1729.5,977.5,1702.6,959.7z"/>
	<path d="M1766.1,939.5c-4.7-2.7-10.9-6.3-17.1-9.9c6.2-2.4,12.3-5.6,18.7-7c6.6-1.5,13.5-1.8,20.3-1.5c3,0.1,5.9,3,8.8,4.6
		c-2.2,2.7-4,6.7-6.8,7.7C1783.3,936,1776.1,937.1,1766.1,939.5z"/>
	<path d="M1537.5,958.5c11.7-11.1,22.9-11.4,35.4-1.8C1565.2,969.9,1551.9,970.8,1537.5,958.5z"/>
	<path d="M1332.8,395.3c-12.8-12.5-18.6-29-15.4-46.7c2.8-15.7,14.4-23.4,29.6-25.7c14.7-2.2,29.2-6.8,43.6-11.2
		c4.6-1.4,9.3-4.3,12.6-8c19.6-22.3,30.1-48.2,29.1-80.5c1.3,6.5,5,13.7,3.5,19.4c-4.6,17.4-9.7,35-17.4,50.9
		c-6.3,12.9-16.7,22.9-31.5,25.6c-13.4,2.5-26.5,6.7-39.8,9.4c-19.5,3.9-27.9,15.8-23.7,36.6
		C1325.3,375.5,1329.5,385.3,1332.8,395.3z"/>
	<path d="M1381.3,229.1c0.9-55.4-30-96.5-53-141.1C1357.3,130,1387.1,171.5,1381.3,229.1z"/>
	<path d="M1394.2,178c3.6,17.8,7.3,35.6,10.9,53.5c-1.3,0.3-2.7,0.7-4,1c-3.8-17.8-7.6-35.7-11.4-53.5
		C1391.2,178.7,1392.7,178.4,1394.2,178z"/>
	<path d="M421.3,550.8c-4-36.6,87.4-130.8,125.4-129.2c-14.6,10.8-26.4,19.2-37.8,28.1c-17.2,13.3-35.3,25.6-50.7,41.1
		c-10.6,10.6-17.3,25.8-25.5,39.2C429.2,535.5,426.3,541.5,421.3,550.8z"/>
	<path d="M510.8,519.2c3.1-3.3,5.8-7.5,9.5-9.6c6.9-4.1,14.4-7.1,22.6-10.9c-16.1-15.8-16.2-16.2-5.2-32.2
		c-6.7,18.1,4,26.1,11.8,27.8c8.1,1.7,17.9-5.7,27-9.1c0.7,1.3,1.4,2.7,2.1,4c-5.9,3.6-11.7,7.6-17.9,10.7
		c-8.6,4.2-17.9,6.9-26,11.9c-5,3.1-8.8,8.9-12.4,14.1c-8.2,11.9-15.8,24.3-23.9,36.3c-4.1,6.1-8.8,11.7-16,16.9
		c0.9-3.4,0.9-7.8,2.8-10.1c5.5-6.5,12.6-11.5,17.6-18.4c5.5-7.5,9.5-16.4,13.5-25c0.4-1-3.8-4.4-5.8-6.8
		C510.5,518.8,510.8,519.2,510.8,519.2z"/>
	<path d="M645.4,434.3c-12.6,12.1-25.1,24.1-37.7,36.2c-1.1-1.2-2.2-2.4-3.3-3.7c6.2-7.3,12.4-14.5,19-22.2c-6.6-3.9-11.8-7-17-10.1
		c25.6,5.1,29.5,4.6,46.6-24.5c7.4-12.5,13.9-9.3,25.4-6.9c-8.6,4.7-14.7,8.1-21.2,11.7c7,6.4,12.7,11.6,18.3,16.7
		c-0.8,1.1-1.6,2.2-2.5,3.3c-5.3-3.6-10.4-8.9-16.2-10.3c-3.2-0.7-7.7,5.1-11.6,8C645.3,433.2,645.4,433.8,645.4,434.3z"/>
	<path d="M510.5,518.8c-4.5,15-15.2,23.3-27.4,29.9c6.5-12.9,13.5-25.3,27.8-29.5C510.8,519.2,510.5,518.8,510.5,518.8z"/>
	<path d="M590.3,459.3c3.4,7.9,6.9,15.8,12,27.6c-8.8-3.7-13.4-5.6-19.3-8c0.8-5.8,1.7-11.8,2.6-17.9
		C587.1,460.5,588.7,459.9,590.3,459.3z"/>
	<path d="M475.6,550.7c-10.8,7.3-22.3,15.1-33.2,22.5C445.5,559.6,462.4,548.2,475.6,550.7z"/>
	<path d="M713.1,561c0-6.2,2.2-14.2-0.6-18.9c-3.1-5.4-10.6-7.7-19.4-13.5c10-3,16.6-5.1,24.4-7.4c-5.3-5.2-10.2-9.9-16.6-16.1
		c25.7,10.3,49.3,19.7,72.9,29.2c-19,7.5-37.4-18.2-55.8,0.8C726,546.9,724.3,553.8,713.1,561z"/>
	<path d="M872,531.8c-5.5,3.2-10.2,8-15.2,8.5c-12.9,1.2-29.3,5.7-38.2-0.8c-14.4-10.6-23.8-4.3-34.2,1c-1.1,7.9-2.2,15.1-3.2,22.2
		c-1.5-0.3-2.9-0.5-4.4-0.8c0.5-3,0.9-6,1.5-9c1.5-7,1.6-18.6,5.1-20c10.6-4.3,23.6-8.4,33.5-5c5.7,1.9,11.1,12.7,19.9,11.1
		c7.5-1.3,15.8-3.7,21.7-8.5C865.5,525,869.1,524.9,872,531.8z"/>
	<path d="M774.6,442.8c5.9-5.6,12.5-8.9,22.6-3.6c6.9,3.6,15.6,3.2,23.5,4.1c4.6,0.5,9.3,0.1,13.9,0.1c0,1.9,0,3.8,0.1,5.7
		c-10.7,0-21.5,0.8-32.1-0.2C793.4,447.9,784.2,444.9,774.6,442.8z"/>
	<path d="M824.9,492.9c-13.8,0-27.5,0-41.3,0c0-1.1,0-2.2,0-3.3c14,0,27.9,0,41.9,0C825.2,490.6,825,491.8,824.9,492.9z"/>
	<path d="M720.2,468.6c6.3,0,12.5,0,18.8,0c0.1,1.2,0.1,2.4,0.2,3.7c-6.3,0.3-12.5,0.6-18.8,0.9
		C720.3,471.7,720.3,470.2,720.2,468.6z"/>
	<path d="M1371.4,948.8c-38.8,8.3-77.8,12.8-119.6,12.8C1263.2,940.1,1348.7,932.1,1371.4,948.8z"/>
	<path d="M1312.1,918.5c12.5-14.2,54.5-16.6,69.2,0C1358.2,918.5,1335,918.5,1312.1,918.5z"/>
	<path d="M1295.2,975.7c-21.2,7.7-39,15.1-58.6,3.9C1246,965.2,1271.3,963.1,1295.2,975.7z"/>
	<path d="M1347.3,981c21.4-7.8,42.8-13,64.7-8.1c0.1,2.4,0.3,4.8,0.4,7.3C1390.9,983.1,1369.2,984.8,1347.3,981z"/>
	<path d="M1328.5,535c30.2,0,59.5,0,87.4,0C1402,547.4,1345.5,548.7,1328.5,535z"/>
	<path d="M960.3,427.6c29.1-7.3,29.1-7.3,26.1-31.9c1.3,0,2.7,0,4,0c0.1,7.8,2.4,16.6-0.2,23.1C984.2,433.8,971.5,429.8,960.3,427.6
		z"/>
	<polygon points="1878.8,1164.6 1891.7,1161.6 1896.9,1152.7 1902.1,1140.9 1902.1,1126 1899.5,1102.3 1881.4,1031.1 1886.5,1072.6 
		1891.7,1102.3 1894.3,1126 1889.1,1146.8 	"/>
	<polygon points="1492.7,1351.5 1490.1,1363.3 1484.9,1369.3 1477.1,1375.2 1469.3,1378.2 1482.3,1378.2 1490.1,1375.2 
		1495.2,1363.3 1497.8,1339.6 	"/>
	<polygon points="1205,1132 1210.2,1140.9 1218,1152.7 1220.6,1170.5 1220.6,1179.4 1218,1185.4 1218,1173.5 1215.4,1158.7 
		1210.2,1146.8 	"/>
	<polygon points="922.5,995.5 930.3,992.5 932.9,983.6 938.1,977.7 938.1,983.6 935.5,989.6 930.3,995.5 	"/>
	<path d="M336.9,820.5l10.4-5.9l2.4-2.7l5.4-6.2l7.8-5.9l7.8-8.9c0,0,15.5-11.9,15.5-8.9c0,3-10.4,11.9-10.4,11.9l-7.8,5.9
		l-10.4,8.9L336.9,820.5z"/>
	<polygon points="318.7,900.6 318.7,906.5 316.2,921.3 321.3,906.5 	"/>
	<polygon points="103.7,698.9 106.2,710.7 111.4,719.6 119.2,728.5 121.4,729.4 127,731.5 116.6,722.6 111.4,713.7 108.8,710.7 	"/>
	<polygon points="585.7,776 593.4,776 603.8,773 619.3,767.1 634.9,770.1 629.7,767.1 616.8,764.1 606.4,770.1 	"/>
	<polygon points="691.9,867.9 691.9,882.8 689.3,897.6 691.9,909.5 691.9,900.6 694.5,882.8 	"/>
	<polygon points="1645.5,870.9 1643,891.7 1643,912.4 1643,930.2 1645.5,918.4 1645.5,897.6 	"/>
	<polygon points="1645.5,959.9 1643,965.8 1637.8,971.8 1643,968.8 	"/>
	<polygon points="1922.8,669.2 1933.2,669.2 1941,678.1 1943.6,690 1941,701.8 1941,692.9 1941,684 1935.8,675.1 1930.6,672.2 	"/>
	<polygon points="1920.2,767.1 1907.3,776 1896.9,787.8 1891.7,799.7 1884,814.5 1891.7,796.7 1891.7,784.9 1902.1,776 
		1907.3,770.1 	"/>
	<polygon points="158.1,808.6 158.1,820.5 155.5,826.4 154.6,827.9 150.3,835.3 145.1,838.3 142.5,838.3 145.1,841.2 150.3,838.3 
		152.9,835.3 155.5,829.4 158.1,823.4 	"/>
	<polygon points="103.7,675.1 101.1,663.3 103.7,654.4 108.8,648.4 119.2,645.5 129.6,645.5 121.8,648.4 114,648.4 108.8,651.4 
		106.2,657.3 	"/>
	<polygon points="158.1,612.8 173.6,601 191.8,595 212.5,592.1 194.4,598 181.4,601 	"/>
	<polygon points="303.2,609.9 334.3,606.9 355,598 378.3,592.1 355,601 334.3,609.9 	"/>
	<polygon points="510.5,636.6 523.5,642.5 533.8,654.4 533.8,669.2 531.2,657.3 523.5,648.4 	"/>
	<path d="M702.3,669.2c0,3,18.1-5.9,18.1-5.9H736h28.5l7.8,5.9l-7.8-3h-18.1h-15.5L702.3,669.2z"/>
	<polygon points="1106.5,986.6 1109.1,989.6 1116.9,992.5 1122.1,989.6 1119.5,992.5 1111.7,992.5 	"/>
	<polygon points="1142.8,870.9 1135,879.8 1127.3,891.7 1124.7,906.5 1129.9,894.6 1132.4,885.7 	"/>
	<polygon points="987.3,829.4 1005.5,826.4 1018.4,829.4 1039.2,835.3 1049.5,838.3 1034,832.3 1015.8,826.4 1005.5,823.4 	"/>
	<polygon points="1269.8,704.8 1290.5,687 1313.8,678.1 1342.3,678.1 1311.3,684 1298.3,687 	"/>
	<polygon points="1469.3,939.1 1471.9,986.6 1466.7,1043 1469.3,1060.8 1469.3,1037 1471.9,1007.4 1474.5,977.7 	"/>
	<path d="M241,704.8"/>
	<path class="st7" d="M10.4,989.6l-5.8,15.9c0,0-1.3,15.2-1.6,14.5c-0.3-0.7,0,17.1,0,17.1l2.3,14.8l5.2,14.8l10.4,17.8
		c0,0,10.4,11.9,10.4,14.8c0,3,10.4,26.7,10.4,26.7l2.6,20.8l5.2,20.8l5.2,31.9l6.8,35.2l1,7h10.4l15.9-1.5l11.7-1.1l13.9,2.1
		l18.1,3.4l15.5,3l14.9-3h13.6l13.3-5.6l11.7-3.3l13.9-3l18.8-0.2l14.9-2.8l16.5-1.1c0,0,12-0.4,14.6-1.1c2.6-0.7,9.7,0,9.7,0
		l29.2-5.2l19.4-6.7l14.6-3.7l17.8-5.9l18.7-2.8l19.2-4.2l18.5-3.3l16.2-1.5l21.4,2.6l20.7,0.7l38.2,2.6c0,0,21.4,0,23.6,1.5
		c2.3,1.5,108.1,1.3,108.1,1.3l43.5,0.5h28.2l110.1-0.4l33.7-8.9l33.7-11.9h15.5l30.1-4.2l39.6-3.9h22l78.1,0.7l50.5-1.5l23.3-12.6
		l14.3-25.6l6.7-38.9l2.4-53.4l-2.6-23.7l-46.6,5.9l-23.3,3l-25.9-8.9l-25.9-3l-35,0.3l-29.5,0.1l-37.4-0.4l-26.8-3l-54-5.4
		l-37.7,2.5l-49.2,14.8l-23.3-3l-26.2-10.4l-17.8-4.4l-20.7,5.9l-13,2.2l-36.3-5.2l-47.1,0.7l-36.1,0l-34.3-8.2l-17.2-7.4H495
		l-14.9,4.8l-29.2,7l-5.8,0.5l-11.7,2.1l-36.9-5.6l-13-8.9l-14.3-2.6c0,0-23.1,0.9-23.8,1.7s-59.7,5.7-59.7,5.7l-38.9,3l-44.7-1.5
		l-31.1-3.3l-27.2-0.4l-16.5-2.6l-28.8-3l-20.7,8.9l-15.5,11.9l-29.5-11.5L10.4,989.6z"/>
	<path class="st7" d="M1215.4,1023.7l-2.6,23.2l-2.6,37.6v22.6l5.2,24.8l15.5,29.7l15.5,11.9l36.3,5.9l23.3-5.9c0,0,18.1-3,20.7-3
		c2.6,0,23.3,0,23.3,0l25.9,3l25.9,3l23-0.4l18.5,0.4l1.9-42.3l0.6-55.6l-2.6-53.4l-45,2.6l-40.5,0.4h-18.1l-36.3-8.9
		c0,0-15.5-5.9-18.1-5.9c-2.6,0-25.6,5.2-25.6,5.2l-21.1,9.6l-11.1-2L1215.4,1023.7z"/>
	<path class="st7" d="M1852.9,1179.4l-20.7-8.9l-11-11.1l-9.7-15.6v-26.7l10.4-32.6l10.4-23.7l7.8-41.5v-14.8l-33.4,9.3l-72.9-0.4
		c0,0-37.6-0.7-36.9-1.9s-69.3-1.1-69.3-1.1l-25.9,11.9l-26.6,3.3l-55.7-0.4h-39.5v92v59.3l26.9-2.2l27.2-3l21.4-1.9l22.6-0.7
		l33.7,2.2l25.3,2.2l24.3,3.3l33,3h52.5l38.9,3l19.8,5.7l25.3,30.6l9.4,43.8v32.6l-2.3,74.9l-8.1,58.6l-5.2,38.6l-29.2,21.9
		l-40.8,16.7l-44.1,5.9h-55h-43.5l-37.6-8.5l-40.2-12.2l-62.5,3.7l-19.4,4.1l-138.3,7l-106.2-8.9l-63.8-8.9l-161.3,11.1l-56-3.7
		l-54.4,13l-34,13.2l-73.9-3.1l-106.7-3.8l-64.9-7l-40.5-13.7l-49.6,18.5l-50.5,18.9l-26.9,13l-27.2,1.5l-40.2-4.4l-35.6,7.8
		l-59.5,6.3l-31.9,0.8l-41.5-5.9l-25.9-3l-22.1,2.3l-21.9,0.6l1,21.5l4.2,31.9l10.4,14.8c0,0,14.9,6.7,15.2,7.8
		c0.3,1.1,13.3,7,13.3,7l24,3.7l33-0.7h44.1l64.5-5.6l52.2-3.3l93.3-26.7l55.7-13l27.2-4.8l25.9-3l33.7,5.9l18.1,3l41.5,3l51.8-5.9
		l33-3.7l29.2-2.2h36.3l25.9,3h25.9l28.5-5.9l23.3-5.9l23.3-3l115.6-8.2l60.6-15.6l28.5-5.9l49.9,4.8l71.3,1.5l16.2-0.4h194.4
		l67.4-5.9l61.9,6.7l28.8-3.7h101.1l31.4,8.9h59.3l46.6,3h13l33.7-11.9l20.7-26.7l10.3-46.8l10.5-68.9l1.3-50.1l3.2-48.9l8.4-67.1
		l5.2-48.9l2.6-31.1l-6.8-45.2l-9.7-43.4l-4.2-47.8l-7.8-47.5l-4.5-34.1l4.2-83.8l0.3-27.4l-2.6-26.7l-5.2-14.8l-26.2,1.5
		l-28.2,16.3l-15.5,23.7l-10.4,48.2l-2.6,52.7l5.9,39.9l9.4,46.5l27.2,89l9.1,27.1l-5.2,21.1l-10,19.7l-13,5.9l-15.5,5.9l-25.9,3
		L1852.9,1179.4z"/>
</g>
</svg>
